<svg xmlns="http://www.w3.org/2000/svg" viewBox="0 0 562 99"><g fill="none" fill-rule="nonzero"><path fill="#B4413A" d="M62.3 6.58V4.19c.07-2.59 1.47-4 4-4h12.12c2.57 0 4 1.36 3.85 3.93-.15 2.09.46 3.1 2.47 4.06 4.91 2.37 7.05 6.81 7.07 12.05.1 21.56.07 43.11 0 64.67 0 7.67-5.39 13.11-13 13.48H13.94c-4.59 0-8.47-1.45-11.22-5.28a13.77 13.77 0 0 1-2.65-8.19V19.77C0 12.987 5.18 7.3 11.94 6.74c1-.1 2.07-.15 3.1-.15H62.3v-.01zm23.76 46.11v-8.52-23.52c0-5.33-2.94-8.22-8.25-8.22H14.2c-5.46 0-8.36 2.92-8.36 8.37v63.6c0 5.25 3 8.26 8.29 8.26h63.35a11.9 11.9 0 0 0 4.74-1c3-1.34 3.86-4 3.86-7.12-.027-10.633-.033-21.25-.02-31.85z"/><path fill="#6D6E71" d="M496.28 56.87H473.6c-2 0-2 0-1.55 2a22.44 22.44 0 0 0 17.53 16.31 22.21 22.21 0 0 0 19.44-5.85c2.34-2.12 5.72-1.18 6.38 1.79a3.9 3.9 0 0 1-1.19 3.59 22.67 22.67 0 0 1-13 7.36c-6.51 1.19-13 1.17-19.17-1.49-10-4.31-16-11.88-17.69-22.61-2.47-16.1 8.17-30.6 24.1-33.75 13.63-2.7 26.33 5.3 31.79 16.39a29.75 29.75 0 0 1 3 11.86c.15 3.09-1.86 4.43-4.37 4.4-6.6-.08-13.2 0-19.8 0h-2.79zm19-7.43c-1.14-9-10.08-18.49-22.08-18.24-12.33.26-20.4 10-21.18 18.24h43.26zM231.49 71.87c-1.65 1.5-3 2.85-4.49 4-3.68 3-7.62 5.49-12.34 6.33-10.72 1.91-20-1-27.41-9-5.64-6-7.8-13.38-7.44-21.58.598-13.687 10.612-25.127 24.1-27.53 16.76-3.11 31.4 8.8 34.37 23.39a37.86 37.86 0 0 1 .68 6.89c.08 8 0 15.92 0 23.87a9.58 9.58 0 0 1-.16 1.78c-.41 2.09-1.88 3.13-4.11 3a3.55 3.55 0 0 1-3.21-3.57c-.01-2.43.01-4.86.01-7.58zm-44.33-18.41a22.08 22.08 0 0 0 22.1 22.11c12.55 0 22.06-10.18 22.19-22.39-.32-12.054-10.224-21.636-22.282-21.56-12.058.076-21.84 9.783-22.008 21.84zM315.13 82.8a29 29 0 0 1-29.42-29.82c.26-16.08 13-29.17 30.14-29.24 16.36-.07 29.08 14.54 29.07 29.74-.01 14.91-12.58 29.67-29.79 29.32zm.29-51.65c-12.244-.081-22.246 9.758-22.366 22.001-.12 12.244 9.687 22.277 21.93 22.437 12.243.16 22.307-9.616 22.506-21.858.16-12.28-9.23-22.19-22.07-22.59v.01zM432.15 82.99c-6.22-.08-11.85-1.59-16.56-5.75a16.28 16.28 0 0 1-4.67-7.14 4.23 4.23 0 0 1 1.88-5.16 4 4 0 0 1 5.19 2c.42.73.73 1.52 1.16 2.24a12.84 12.84 0 0 0 8.68 5.87c5.64 1.28 11 .55 15.65-3.08a8.4 8.4 0 0 0 .21-13.06 21.34 21.34 0 0 0-10.45-4.46c-4.62-.73-9.17-1.66-13.39-3.81-5.05-2.58-7.65-6.53-7.45-12.31a13.31 13.31 0 0 1 7.82-12.24c4.69-2.38 9.76-2.8 14.94-2.3a25 25 0 0 1 9.83 2.8 18.89 18.89 0 0 1 4.1 3.06 5.55 5.55 0 0 1 1.62 5.59 3.16 3.16 0 0 1-2.6 2.64c-1.63.28-3.19 0-3.95-1.56-2.22-4.64-6.45-5.41-10.84-5.58a26.83 26.83 0 0 0-7.58.75 7.37 7.37 0 0 0-5.9 6.42 5.25 5.25 0 0 0 1.4 4.52 12.71 12.71 0 0 0 6.7 3.48c3.57.82 7.18 1.52 10.73 2.42a26.94 26.94 0 0 1 8.65 4c9.75 6.72 8.3 19.5.45 25.65-4.64 3.61-9.93 4.91-15.62 5.01zM392.26 77.61c-.57.38-.9.57-1.2.79a21.94 21.94 0 0 1-34.91-12.92 20 20 0 0 1-.41-4.16V27.6c0-2.44 1.34-4 3.47-4a3.56 3.56 0 0 1 3.87 3.75v33.72c.086 7.477 5.815 13.677 13.262 14.352 7.447.676 14.198-4.392 15.628-11.732a18.35 18.35 0 0 0 .28-3.22V27.23a3.48 3.48 0 0 1 2.42-3.48 3.6 3.6 0 0 1 4.09 1.19 4.1 4.1 0 0 1 .76 2.19c.047 17.44.047 34.88 0 52.32a3.66 3.66 0 0 1-7.31 0c.04-.55.05-1.05.05-1.84zM147.57 83.04c-13.986.172-26.138-9.579-29-23.27-3.14-15.75 6-30.77 22.07-35 9.25-2.41 17.55-.42 24.92 5.55a15.52 15.52 0 0 1 3.05 3.5 2.92 2.92 0 0 1-2.19 4.48 4.11 4.11 0 0 1-3.52-1.06 23.78 23.78 0 0 0-10.74-5.44 22.19 22.19 0 1 0-8.45 43.56 21.89 21.89 0 0 0 19.22-5.84 3.8 3.8 0 0 1 5.54 0 2.79 2.79 0 0 1 .55 3.61 18 18 0 0 1-3.38 4 26.59 26.59 0 0 1-14.26 5.65c-1.27.09-2.54.16-3.81.26zM257.38 32.99c2.16-1.69 4.1-3.36 6.18-4.81a26.51 26.51 0 0 1 14.82-4.76 6.89 6.89 0 0 1 3.29.82 3.38 3.38 0 0 1 1.38 4 4 4 0 0 1-4.16 2.62 19.51 19.51 0 0 0-12.34 4.2 22.79 22.79 0 0 0-9 14.88 23.82 23.82 0 0 0-.22 3.58c0 8.56-.07 17.11 0 25.67a3.7 3.7 0 0 1-5.57 3.28 3.6 3.6 0 0 1-1.82-3.3V67.78 27.37a3.71 3.71 0 0 1 4.9-3.76 3.37 3.37 0 0 1 2.42 3.1c.05 1.63 0 3.27 0 4.91.06.43.1.85.12 1.37zM561.63 43.9v35.15a3.7 3.7 0 0 1-7.37.63V8.54a3.61 3.61 0 0 1 3.63-3.9 3.45 3.45 0 0 1 3.71 3.63v13.44c.027 7.393.037 14.79.03 22.19zM541.71 43.8v34.78a6.52 6.52 0 0 1-.24 2.12 3.63 3.63 0 0 1-4.07 2.23 3.75 3.75 0 0 1-3-3.29v-71c0-2.55 1.57-4.1 4-4a3.5 3.5 0 0 1 3.29 3.16v1.44c.027 11.533.033 23.053.02 34.56z"/><path fill="#FFF" d="M14.92 17.5a3.75 3.75 0 0 0-3.85 3.84 3.84 3.84 0 0 0 7.67 0 3.75 3.75 0 0 0-3.78-3.84h-.04z"/><path fill="#B4413A" d="M45.92 86.91A34 34 0 1 1 79.91 53.8c-.482 18.425-15.558 33.11-33.99 33.11zm28.14-34c-.29-15.343-12.81-27.63-28.155-27.63-15.346 0-27.866 12.287-28.155 27.63 0 15.49 12.6 28.26 27.91 28.26a28.13 28.13 0 0 0 28.4-28.25v-.01zM14.96 17.5a3.75 3.75 0 0 1 3.82 3.87 3.84 3.84 0 1 1-3.82-3.87z"/><path fill="#B4413A" d="M45.84 68.42a15.58 15.58 0 1 1 15.67-15.08c-.255 8.45-7.216 15.15-15.67 15.08zM56.29 52.8a10.38 10.38 0 1 0-10.32 10.4 10.36 10.36 0 0 0 10.32-10.4z"/><path fill="#B4413A" d="M58.91 64.12a9.33 9.33 0 0 1 1.41.92c1.54 1.51 3 3 4.55 4.59a1.55 1.55 0 0 1 .11 2.42 1.59 1.59 0 0 1-2.33-.24c-1.55-1.55-3.15-3.07-4.61-4.7a2.33 2.33 0 0 1-.41-1.8c.1-.44.78-.75 1.28-1.19zM27.91 33.12a9.8 9.8 0 0 1 1.38.88c1.5 1.48 3 3 4.45 4.5a1.71 1.71 0 0 1 .23 2.44 1.61 1.61 0 0 1-2.42-.23c-1.54-1.55-3.14-3-4.59-4.69a2.54 2.54 0 0 1-.33-1.93c.07-.37.78-.61 1.28-.97zM60.26 75.27c-.26.27-.6.94-1.09 1.07a1.85 1.85 0 0 1-1.67-.44c-1.34-2.12-2.6-4.3-3.73-6.54a1.89 1.89 0 0 1 .54-1.72c.41-.28 1.59-.25 1.78 0 1.46 2.28 2.76 4.65 4.11 7 .046.207.066.418.06.63zM61.55 45.22c-.29-.28-.94-.63-1.06-1.12a1.89 1.89 0 0 1 .48-1.65c2.08-1.32 4.23-2.55 6.41-3.7a1.42 1.42 0 0 1 2 .63 1.37 1.37 0 0 1-.45 2c-2.09 1.26-4.23 2.42-6.34 3.64a5 5 0 0 1-1.04.2zM55.48 38.39c-1.46 0-2.29-1.07-1.74-2.11 1.17-2.18 2.43-4.3 3.73-6.4a1.4 1.4 0 0 1 2-.37 1.34 1.34 0 0 1 .56 2c-1.18 2.12-2.4 4.23-3.66 6.3-.2.3-.72.47-.89.58zM38.55 68.95c-1.59 2.54-3 4.95-4.63 7.26-.17.26-1.3.18-1.68-.12a1.81 1.81 0 0 1-.46-1.64c1.18-2.26 2.46-4.47 3.84-6.61a1.89 1.89 0 0 1 1.69-.34c.46.16.75.84 1.24 1.45zM54.22 28.05c-.78 2.75-1.38 5.24-2.18 7.67a1.51 1.51 0 0 1-2.87-.83c.58-2.44 1.23-4.87 2-7.24a1.93 1.93 0 0 1 1.72-.85c.52.09.95.85 1.33 1.25zM39.76 26.69c.23.25.87.65 1 1.18.7 2.25 1.28 4.53 1.85 6.82a1.41 1.41 0 0 1-1.1 1.83 1.4 1.4 0 0 1-1.87-1c-.65-2.31-1.27-4.62-1.84-6.94-.21-1 .58-1.89 1.96-1.89zM61.73 60.35c.59.26.93.37 1.24.54 1.83 1.06 3.65 2.12 5.47 3.2 1.07.64 1.38 1.53.86 2.37-.52.84-1.34.93-2.42.31-1.9-1.09-3.83-2.14-5.66-3.35a2.19 2.19 0 0 1-.71-1.78c.07-.49.81-.84 1.22-1.29zM42.84 70.48c-.77 2.77-1.41 5.24-2.17 7.67a1.29 1.29 0 0 1-1.89.72c-.47-.25-1.05-1.09-1-1.53.53-2.45 1.22-4.87 1.94-7.27a1.26 1.26 0 0 1 1.74-.84c.62.24 1.01.87 1.38 1.25zM31.47 62.48a3.86 3.86 0 0 1-.91 1c-1.9 1.16-3.86 2.24-5.8 3.35a1.51 1.51 0 0 1-2.2-.43 1.58 1.58 0 0 1 .63-2.25c1.95-1.15 3.92-2.29 5.91-3.38 1.18-.6 2.38.09 2.37 1.71zM33.58 29.28a4 4 0 0 1 1 .93c1.14 1.87 2.22 3.79 3.28 5.71a1.58 1.58 0 0 1-.44 2.31 1.6 1.6 0 0 1-2.22-.73c-1.06-1.9-2.16-3.8-3.22-5.7-.7-1.33-.07-2.55 1.6-2.52zM67.95 51.39h3.47a1.37 1.37 0 0 1 1.52 1.47 1.42 1.42 0 0 1-1.57 1.56h-6.82a1.56 1.56 0 0 1-1.71-1.62c.08-1.07.73-1.52 1.78-1.51 1.05.01 2.23 0 3.34 0l-.01.1zM30.11 45.35c-.59-.25-1-.37-1.32-.56-1.79-1-3.58-2.07-5.35-3.12-1.06-.63-1.39-1.55-.9-2.36a1.67 1.67 0 0 1 2.43-.35c1.9 1.08 3.78 2.2 5.67 3.3a1.44 1.44 0 0 1 .71 1.93c-.22.49-.84.81-1.24 1.16zM72.06 46.7c-.24.22-.61.87-1.14 1-2.24.7-4.52 1.28-6.79 1.85a1.42 1.42 0 0 1-1.85-1.08 1.4 1.4 0 0 1 1-1.88c2.3-.64 4.61-1.27 6.93-1.82 1.07-.22 1.84.47 1.85 1.93zM21.08 44.57c2.78.77 5.25 1.41 7.68 2.16a1.35 1.35 0 0 1 .81 1.78 1.32 1.32 0 0 1-1.6 1.11c-2.48-.6-5-1.26-7.36-2.06a1.83 1.83 0 0 1-.77-1.64c.16-.55.88-.97 1.24-1.35zM21.09 61.13c-.4-.4-1-.79-1.26-1.35a1.26 1.26 0 0 1 .88-1.72c2.37-.68 4.75-1.3 7.15-1.88a1.35 1.35 0 0 1 1.72 1.09 1.33 1.33 0 0 1-.82 1.76c-2.44.77-4.92 1.35-7.67 2.1zM24.08 51.39h3.46a1.36 1.36 0 0 1 1.47 1.41 1.39 1.39 0 0 1-1.4 1.61c-2.39.07-4.79.06-7.18 0a1.47 1.47 0 0 1-1.53-1.61 1.42 1.42 0 0 1 1.59-1.43h3.59v.02zM47.46 30.91v3.35c0 1.12-.62 1.76-1.62 1.7a1.45 1.45 0 0 1-1.46-1.67V27.6c0-1.12.6-1.77 1.52-1.77a1.57 1.57 0 0 1 1.56 1.74v3.34zM44.42 74.8v-3.36c0-1.12.44-1.6 1.5-1.62 1.06-.02 1.58.56 1.58 1.68v6.72c0 1.09-.68 1.73-1.62 1.65-.94-.08-1.43-.73-1.42-1.71.01-.98-.04-2.23-.04-3.36zM64.41 56.2c2 .54 4.35 1.17 6.7 1.87a1.27 1.27 0 0 1 .84 1.83 2 2 0 0 1-1.47 1 13.81 13.81 0 0 1-3-.67c-1.39-.36-2.77-.71-4.14-1.13a1.44 1.44 0 0 1-1.07-1.86c.2-.87.85-1.18 2.14-1.04zM49.05 70.47c.4-.39.79-1 1.34-1.25a1.26 1.26 0 0 1 1.72.88c.667 2.4 1.293 4.82 1.88 7.26a1.27 1.27 0 0 1-1.08 1.59 1.35 1.35 0 0 1-1.78-.81c-.72-2.44-1.29-4.9-2.08-7.67zM65.71 34.8a8 8 0 0 1-.82 1.3c-1.56 1.59-3.16 3.14-4.75 4.7a1.49 1.49 0 0 1-2.23.09 1.42 1.42 0 0 1 0-2.22c1.62-1.64 3.23-3.3 5-4.84a2.3 2.3 0 0 1 1.83-.28c.35.11.61.78.97 1.25zM34.64 65.8a9.39 9.39 0 0 1-.91 1.44c-1.51 1.54-3.06 3-4.59 4.54a1.55 1.55 0 1 1-2.22-2.14c1.6-1.62 3.18-3.25 4.87-4.77a2.07 2.07 0 0 1 1.7-.33c.44.15.73.81 1.15 1.26z"/></g></svg>
