<svg xmlns="http://www.w3.org/2000/svg" fill="none" viewBox="0 0 549 458"><path fill="#1572B6" d="M188.931 270.386L170 57.791h208l-18.951 212.562L273.87 294l-84.939-23.614z"/><path fill="#33A9DC" d="M274.003 275.959l68.824-19.137 16.195-181.645h-85.019V275.96z"/><path fill="#131313" d="M332.991 10.885h-17.262l17.95 19.504v9.288h-36.975V28.805h17.95l-17.95-19.51V0h36.287v10.885zm-43.62 0h-17.276l17.95 19.504v9.288h-36.961V28.805h17.95l-17.95-19.51V0h36.294v10.885h-.007zm-43.187.474h-18.631v16.992h18.631V39.71h-31.869V0h31.869v11.36z"/><path fill="#fff" stroke="#fff" d="M231.077 103.174c3.336-3.227 5.572-4.05 13.199-4.79 4.144-.402 5.265-.93 8.141-3.843 2.589-2.62 4.25-3.788 7.166-5.038 3.597-1.537 6.059-1.858 13.486-1.737 7.167.113 11.204.581 16.168 1.89 6.006 1.584 8.982 2.747 12.786 4.999 4.164 2.465 7.34 4.918 5.044 3.875-.293-.133-.667-.307-.78-.394-.114-.087-1.949-.668-5.285-1.704a35.99 35.99 0 0 0-17.35-.935c-8.154 1.583-14.84 4.777-20.018 9.548l-1.268 1.176h-8.415c-4.631 0-12.218 0-16.862-.04-4.865 0-8.448-.1-8.448-.187 0-.201 1.301-1.711 2.436-2.82zm-22.788 39.67c.203-1.947.73-3.847 1.561-5.619l.254-.488 1.068 1.049a19.84 19.84 0 0 0 3.95 2.88c.602.254 1.216.478 1.842.668 1.227.401 1.601.441 3.843.461 2.776 0 3.65-.147 5.732-1.109 1.615-.749 2.362-1.383 2.923-2.493a4.097 4.097 0 0 0-.601-4.677c-1.288-1.289-3.643-1.871-7.573-1.877-4.832 0-8.562.668-10.39 1.804a4.116 4.116 0 0 1-.854.461c-.154 0-.22-.147-1.068-2.406-2.242-5.953-2.262-6.013-2.262-7.263a4.536 4.536 0 0 1 .32-1.958c.708-1.597 1.675-2.285 4.091-2.893 1.962-.501 2.235-.755 2.075-1.931a4.404 4.404 0 0 0-.2-.942c-.147-.241-1.955 0-3.01.361-1.734.628-1.588.668-1.468-.361a5.804 5.804 0 0 1 1.929-3.896 7.717 7.717 0 0 1 2.335-1.71c2.209-1.049 2.576-1.083 11.498-1.083h8.007l.594.963a4.228 4.228 0 0 0 5.812 1.677 4.382 4.382 0 0 0 2.002-2.145l.274-.501 27.472.087.847.38a4.794 4.794 0 0 1 2.269 6.134 7.789 7.789 0 0 1-1.768 2.673c-2.489 2.853-5.712 4.156-9.956 4.009-2.396-.073-2.449 0-1.849 1.57 2.069 5.493 1.922 10.598-.433 15.369a17.294 17.294 0 0 1-9.029 8.425c-3.189 1.377-4.671 1.544-14.827 1.671-11.891.147-13.412.24-15.935.995a10.01 10.01 0 0 0-5.058 3.188c-.275.32-.571.622-.887.902a1.781 1.781 0 0 1-.394-.361 18.067 18.067 0 0 1-2.055-3.849 19.061 19.061 0 0 1-1.081-8.165zm40.144 93.158a30.945 30.945 0 0 0-1.822 3.788c-.1.268-.38 1.237-.62 2.165-.401 1.537-.434 1.951-.441 4.731-.025 1.19.011 2.381.107 3.568.153.708-.073.668-1.335-.16l-1.588-1.069c-1.374-.929-6.779-5.058-8.101-6.188a89.531 89.531 0 0 1-10.89-11.198 100.024 100.024 0 0 1-7.34-11.092 52.686 52.686 0 0 1-5.165-20.3c-.287-7.216 2.182-15.488 6.526-21.822 2.002-2.947 4.338-5.486 8.281-9.061 3.944-3.575 10.977-8.513 17.143-12.067 4.711-2.72 5.338-3.127 7.454-4.678a41.225 41.225 0 0 0 8.634-8.405 21.511 21.511 0 0 0 3.63-9.529c.2-2.259.12-4.535-.24-6.775-.173-.668-.187-.955-.047-1.069a8.275 8.275 0 0 1 1.548-.501c.891-.237 1.769-.52 2.63-.849l1.267-.501 1.108 1.196a22.89 22.89 0 0 1 4.825 8.366c.65 2.093.989 4.27 1.007 6.461.22 6.775-1.855 13.831-6.052 20.54a110.297 110.297 0 0 1-9.696 12.602l-2.455 2.82c-3.524 4.042-8.675 10.985-10.497 14.225a17.885 17.885 0 0 1-.841 1.337 70.796 70.796 0 0 0-4.003 8.499 45.637 45.637 0 0 0-1.622 7.136 38.52 38.52 0 0 0 .06 8.259c1.188 6.782 3.61 11.98 7.734 16.604a8.018 8.018 0 0 1 1.335 1.757 4.2 4.2 0 0 1-.534 1.21zm24.689-25.712c.107 1.063.227 2.052.274 2.199.087.3-.347.668-2.509 1.971-1.261.775-2.943 1.897-5.238 3.481-4.071 2.82-10.677 9-12.979 12.147-.667.869-1.334 1.604-1.568 1.604a6.285 6.285 0 0 1-1.288-1.176c-3.59-3.855-6.199-9.849-6.953-15.976-.601-4.878.908-11.687 3.884-17.553 2.976-5.867 9.342-14.493 16.548-22.445 3.911-4.296 5.339-6.013 7.074-8.686a71.412 71.412 0 0 0 4.671-8.533 43.766 43.766 0 0 0 2.969-9.829c.424-3.143.478-6.325.16-9.481-1.014-6.127-2.669-9.882-6.206-13.918a4.462 4.462 0 0 1-.76-1.049c.14-.281.337-.53.58-.729a18.2 18.2 0 0 0 1.522-1.837c1.301-1.771 1.221-1.697 1.708-1.59a35.614 35.614 0 0 1 5.959 2.332c5.011 2.492 8.981 5.819 12.892 10.824 1.755 2.245 4.003 6.802 5.338 10.751a25.986 25.986 0 0 1 .921 12.582 33.034 33.034 0 0 1-1.441 5.345c-.121.268-.468 1.083-.781 1.811a60.213 60.213 0 0 1-5.919 9.736c-2.002 2.626-5.118 6.307-6.993 8.265a51.36 51.36 0 0 0-9.029 12.896 34.297 34.297 0 0 0-2.815 16.858h-.021zm42.26-21.549a41.961 41.961 0 0 1-6.566 6.682c-1.729 1.263-9.249 5.092-12.679 6.468-.747.301-4.264 1.871-6.452 2.887-.554.254-1.635.741-2.403 1.082-1.334.595-7.34 3.535-9.195 4.51-1.161.608-1.334.602-1.475-.04a35.67 35.67 0 0 1-.106-6.728c1.054-7.958 4.364-14.086 11.717-21.689a65.843 65.843 0 0 0 12.158-16.999c2.129-4.23 3.523-9.007 3.59-12.348a47.6 47.6 0 0 0-.547-6.849 38.503 38.503 0 0 0-3.717-10.383 64.778 64.778 0 0 0-5.812-8.553 29.308 29.308 0 0 0-3.016-3.067 62.144 62.144 0 0 0-6.673-4.591 51.604 51.604 0 0 0-6.579-2.893 12.29 12.29 0 0 1-1.682-.668 1.858 1.858 0 0 1-.2-1.056 7.557 7.557 0 0 0-.981-3.588 2.327 2.327 0 0 1-.4-.982c.193-.194 6.252-.094 8.054.14 6.105.782 9.435 1.844 15.314 4.898a53.117 53.117 0 0 1 22.541 22.538 34.71 34.71 0 0 1 3.303 10.023c1.281 7.73 1.335 15.227.234 21.054a64.574 64.574 0 0 1-2.002 7.464 49.246 49.246 0 0 1-3.497 8.085 52.792 52.792 0 0 1-2.909 4.597l-.02.006zm22.974-23.259a56.739 56.739 0 0 1-8.527 13.778c-2.296 2.673-9.136 8.92-9.136 8.352.243-.626.53-1.233.861-1.817a58.337 58.337 0 0 0 4.331-11.54c.233-.949.667-2.673.987-3.768 1.208-4.397 1.535-8.246 1.202-14.286-.341-6.194-1.735-13.09-3.537-17.5a45.716 45.716 0 0 0-5.258-9.461c-4.491-5.613-7.747-8.847-12.565-12.489a50.784 50.784 0 0 0-14.514-7.797c-6.005-2.072-10.082-2.626-18.764-2.539a44.733 44.733 0 0 1-5.165-.094c-.227-.361 3.337-2.706 6.046-4.009a35.305 35.305 0 0 1 7.647-2.753 35.696 35.696 0 0 1 14.167-.514 51.432 51.432 0 0 1 21.032 9.2 67.657 67.657 0 0 1 10.01 9.589c.527.668 1.248 1.53 1.608 1.924a47.584 47.584 0 0 1 3.67 4.891l1.375 2.085a48.115 48.115 0 0 1 2.669 5.245 57.463 57.463 0 0 1 4.33 16.184 34.898 34.898 0 0 1-2.455 17.312l-.014.007z"/><path fill="#231F20" d="M34.476 319.301a25.075 25.075 0 0 1 16.185 5.906l5.962-7.106c-5.995-5.04-13.72-8.081-22.147-8.081C15.466 310.02 0 325.485 0 344.496c0 19.009 15.465 34.475 34.476 34.475 8.427 0 16.152-3.043 22.147-8.082l-5.962-7.106a25.085 25.085 0 0 1-16.185 5.905c-13.892 0-25.195-11.301-25.195-25.192 0-13.892 11.303-25.195 25.195-25.195zM225.324 367.701h-13.923V321.29h13.923c12.796 0 23.205 10.411 23.205 23.206 0 12.794-10.409 23.205-23.205 23.205zm0-55.692H206.76a4.64 4.64 0 0 0-4.64 4.64v55.692a4.64 4.64 0 0 0 4.64 4.641h18.564c17.914 0 32.486-14.573 32.486-32.486 0-17.914-14.572-32.487-32.486-32.487M282.941 316.649v55.692a4.642 4.642 0 0 0 4.64 4.642h38.676v-9.282h-34.034v-18.565h21.658v-9.281h-21.658v-18.564h34.034v-9.282h-38.676a4.64 4.64 0 0 0-4.64 4.64zM423.425 316.649v55.692a4.642 4.642 0 0 0 4.64 4.642h38.675v-9.282h-34.033v-18.565h21.658v-9.281h-21.658v-18.564h34.033v-9.282h-38.675a4.641 4.641 0 0 0-4.64 4.64zM379.257 339.855h-15.471v-18.564h15.471c5.119 0 9.281 4.164 9.281 9.282s-4.162 9.282-9.281 9.282zm0-27.846h-20.112a4.64 4.64 0 0 0-4.64 4.64v60.334h9.281v-27.847h15.471c10.236 0 18.564-8.328 18.564-18.563 0-10.237-8.328-18.564-18.564-18.564zM539.3 312.009v47.515l-38.203-45.846a4.641 4.641 0 1 0-8.208 2.971v60.333h9.283v-47.513l38.204 45.844a4.64 4.64 0 0 0 5.145 1.393 4.642 4.642 0 0 0 3.062-4.364v-60.333H539.3zM149.02 339.377l-18.445-12.336v-19.845l33.336 22.223-14.891 9.958zm7.652 5.119l10.646-7.12v14.239l-10.646-7.119zm-26.097 17.455l18.445-12.336 14.891 9.958-33.336 22.223v-19.845zm-26.953-12.336l18.445 12.336v19.845l-33.335-22.223 14.89-9.958zm-7.652-5.119l-10.644 7.119v-14.239l10.644 7.12zm26.097-17.455l-18.445 12.336-14.89-9.958 33.335-22.223v19.845zm4.255 27.519l-15.048-10.064 15.048-10.065 15.048 10.065-15.048 10.064zm49.432-25.887c-.023-.121-.043-.24-.075-.357-.02-.071-.044-.137-.067-.207a3.567 3.567 0 0 0-.109-.31c-.029-.07-.063-.139-.095-.207a3.77 3.77 0 0 0-.145-.283c-.039-.068-.08-.132-.121-.197a4.6 4.6 0 0 0-.326-.441 6.633 6.633 0 0 0-.381-.398 5.233 5.233 0 0 0-.241-.201c-.064-.049-.127-.1-.194-.145-.022-.018-.045-.038-.069-.054l-45.251-30.166a4.247 4.247 0 0 0-4.718 0l-45.25 30.166c-.025.016-.046.036-.07.054-.067.045-.13.096-.194.145a5.05 5.05 0 0 0-.24.201 3.76 3.76 0 0 0-.169.167 3.967 3.967 0 0 0-.539.672c-.041.065-.082.129-.12.197a2.975 2.975 0 0 0-.145.283c-.032.068-.067.137-.095.207a4.454 4.454 0 0 0-.11.31c-.023.07-.047.136-.066.207a4.47 4.47 0 0 0-.074.357c-.011.062-.026.122-.035.183a4.291 4.291 0 0 0-.037.556v30.167c0 .188.013.372.037.556.01.062.024.122.035.184.021.118.044.238.074.356.019.07.043.138.066.206.033.106.069.21.11.312.028.071.063.138.095.206a3.252 3.252 0 0 0 .265.478 3.991 3.991 0 0 0 .539.674c.055.056.11.113.17.165.075.071.158.139.24.204.063.049.126.099.193.145.024.018.045.036.07.052l45.25 30.167a4.242 4.242 0 0 0 4.718 0l45.251-30.167a.889.889 0 0 0 .069-.052c.067-.046.13-.096.194-.145.082-.065.164-.133.241-.204.057-.052.113-.109.169-.165a3.52 3.52 0 0 0 .358-.414c.064-.085.122-.17.18-.26a4.57 4.57 0 0 0 .121-.194c.053-.094.1-.188.145-.284.032-.068.066-.135.095-.206.043-.102.076-.206.109-.312.023-.068.047-.136.067-.206.032-.118.052-.238.075-.356.01-.062.025-.122.033-.184a4.28 4.28 0 0 0 .039-.556v-30.167c0-.187-.015-.372-.039-.556-.008-.061-.023-.121-.033-.183"/><path fill="#000" d="M188.072 444.576c5.328 0 8.688-2.016 10.608-4.368l-3.84-4.176c-1.536 1.824-3.6 3.072-6.528 3.072-3.792 0-5.856-2.16-5.856-5.328v-.432H199.4v-2.112c0-7.728-4.56-12.576-11.952-12.576-7.44 0-12.048 4.944-12.048 13.056 0 7.92 4.368 12.864 12.672 12.864zm-.576-20.832c3.072 0 4.944 2.016 4.944 5.232v.384h-9.984v-.384c0-3.168 1.968-5.232 5.04-5.232zm33.149 15.744V444h7.104v-35.52h-7.104v15.264h-.336c-1.248-2.976-3.36-5.088-7.344-5.088-5.472 0-9.312 3.984-9.312 12.96s3.84 12.96 9.312 12.96c3.984 0 6.096-2.112 7.344-5.088h.336zm-4.608-.432c-3.168 0-4.992-2.064-4.992-5.52v-3.84c0-3.456 1.824-5.52 4.992-5.52 2.496 0 4.608 1.2 4.608 3.792v7.296c0 2.592-2.112 3.792-4.608 3.792zm30.462-22.992c3.168 0 4.272-1.488 4.272-3.36v-1.392c0-1.92-1.104-3.36-4.272-3.36s-4.272 1.44-4.272 3.36v1.392c0 1.872 1.104 3.36 4.272 3.36zm-11.424 22.416V444h22.272v-5.52h-7.296v-19.248h-14.976v5.52h7.872v13.728h-7.872zm40.589 5.52h9.168v-5.52h-9.648v-13.728h9.648v-5.52h-9.648v-8.736h-6.528v5.808c0 2.208-.816 2.928-2.928 2.928h-4.368v5.52h6.72v12.096c0 4.176 2.448 7.152 7.584 7.152zm28.397-27.936c3.168 0 4.272-1.488 4.272-3.36v-1.392c0-1.92-1.104-3.36-4.272-3.36s-4.272 1.44-4.272 3.36v1.392c0 1.872 1.104 3.36 4.272 3.36zm-11.424 22.416V444h22.272v-5.52h-7.296v-19.248h-14.976v5.52h7.872v13.728h-7.872zm38.669 6.096c7.728 0 12.432-4.944 12.432-12.96 0-8.016-4.704-12.96-12.432-12.96-7.728 0-12.432 4.944-12.432 12.96 0 8.016 4.704 12.96 12.432 12.96zm0-5.28c-3.168 0-5.088-2.064-5.088-5.712v-3.936c0-3.648 1.92-5.712 5.088-5.712s5.088 2.064 5.088 5.712v3.936c0 3.648-1.92 5.712-5.088 5.712zM348.808 444h7.104v-16.272c0-2.4 2.16-3.6 4.368-3.6 2.784 0 4.176 1.68 4.176 4.8V444h7.104v-16.032c0-6-3.312-9.312-8.064-9.312-3.984 0-6.192 2.304-7.296 5.088h-.288v-4.512h-7.104V444z"/></svg>