<svg xmlns="http://www.w3.org/2000/svg" viewBox="0 0 666.667 666.667"><defs><clipPath id="a"><path d="M0 500h500V0H0z"/></clipPath></defs><g clip-path="url(#a)" transform="matrix(1.33333 0 0 -1.33333 0 666.667)"><path fill="#231f20" d="M249.55 54.424c-108.092 0-196.028 87.939-196.028 196.027 0 108.087 87.936 196.027 196.027 196.027 108.087 0 196.023-87.94 196.023-196.027 0-108.088-87.936-196.027-196.023-196.027m0 430.576C120.01 485 15 379.99 15 250.45 15 120.91 120.008 15.906 249.55 15.906c129.536 0 234.544 105.005 234.544 234.546C484.094 379.99 379.086 485 249.55 485"/><path fill="#231f20" d="M369.644 229.593l-31.18 20.858 31.18 20.857zM262.012 141.18v58.133l54.035 36.138 43.62-29.172zm-12.462 79.784l-44.083 29.486 44.084 29.486 44.08-29.486zm-12.465-79.784l-97.655 65.099 43.623 29.172 54.032-36.138zM129.45 271.308l31.183-20.857-31.183-20.858zm107.633 88.413v-58.133l-54.032-36.146-43.623 29.18zm24.928 0l97.653-65.098-43.619-29.181-54.034 36.146zm132.45-63.458c-.026.183-.072.358-.102.54a12.2 12.2 0 0 1-.218 1.047c-.054.206-.13.404-.194.602-.1.306-.2.61-.321.908-.086.206-.184.412-.279.61a9.27 9.27 0 0 1-.424.824c-.114.199-.236.39-.354.58-.168.26-.34.512-.528.756-.136.183-.28.366-.426.542-.199.228-.405.457-.622.67-.163.168-.325.336-.496.489-.229.206-.465.405-.706.595-.186.145-.37.29-.564.427-.073.046-.137.107-.206.153L256.46 393.38a12.46 12.46 0 0 1-13.827 0l-132.56-88.374c-.07-.046-.135-.107-.207-.153-.195-.137-.378-.282-.56-.427-.245-.19-.482-.39-.706-.595-.176-.153-.336-.321-.5-.488a10.812 10.812 0 0 1-1.049-1.213 11.396 11.396 0 0 1-.523-.756 10.369 10.369 0 0 1-.782-1.404c-.095-.198-.194-.404-.278-.61-.122-.297-.22-.602-.32-.908-.066-.198-.138-.396-.195-.602-.092-.343-.153-.694-.218-1.046-.03-.183-.076-.358-.099-.541a11.988 11.988 0 0 1-.114-1.625v-88.374c0-.55.041-1.091.114-1.633.023-.176.07-.358.1-.533.064-.352.125-.702.217-1.046.057-.206.13-.404.194-.603.1-.304.2-.61.321-.915.084-.207.183-.405.278-.603.134-.281.271-.556.424-.831.114-.192.232-.381.358-.572.164-.26.34-.512.523-.756.137-.191.282-.366.431-.541.195-.23.401-.458.618-.672.164-.167.324-.335.5-.487.224-.208.461-.406.705-.596.183-.146.366-.29.561-.427.072-.046.137-.107.206-.152l132.561-88.375a12.46 12.46 0 0 1 6.916-2.098c2.407 0 4.817.702 6.911 2.098l132.562 88.375c.07.045.133.106.206.152.194.137.378.28.564.427.241.19.477.388.706.596.171.152.333.32.496.487.217.214.423.443.622.672.145.175.29.35.426.54.188.245.36.497.528.757.118.19.24.38.354.572.157.275.293.55.424.83.095.199.193.397.278.604.122.305.221.61.321.915.064.199.14.397.194.603.092.344.156.694.218 1.046.03.175.077.357.103.533.069.542.112 1.084.112 1.633v88.374c0 .549-.043 1.09-.112 1.625"/></g></svg>