<svg xmlns="http://www.w3.org/2000/svg" xmlns:xlink="http://www.w3.org/1999/xlink" width="116.2" height="28" viewBox="0 0 116.2 28"><defs><linearGradient id="a" x1="18.4" y1="4.53" x2="18.4" y2="41.39" gradientUnits="userSpaceOnUse"><stop offset="0" stop-color="#eb277a"/><stop offset="1" stop-color="#9d2063"/></linearGradient><linearGradient id="b" x1="19.51" y1="4.54" x2="19.51" y2="41.38" xlink:href="#a"/><linearGradient id="c" x1="8.46" y1="1.06" x2="8.46" y2="29.04" gradientUnits="userSpaceOnUse"><stop offset="0" stop-color="#85c443"/><stop offset="1" stop-color="#039047"/></linearGradient></defs><title>CXA logo</title><path d="M33.1,9.7a5.4,5.4,0,0,1,4.6,2.1L36,13.4A3.2,3.2,0,0,0,33.2,12c-2.2,0-3.6,1.6-3.6,4s1.4,4,3.6,4A3.2,3.2,0,0,0,36,18.6l1.7,1.6a5.4,5.4,0,0,1-4.6,2.1A6,6,0,0,1,26.9,16,6,6,0,0,1,33.1,9.7Zm11.3,7.8L41.3,22H38.4l4.4-6.1L38.7,10h2.9l2.8,4.1L47.2,10h2.9L46,15.8,50.4,22H47.5Zm15.1,3.1a5,5,0,0,1-3.9,1.6,4,4,0,0,1-4.2-4c0-2.7,2.2-3.9,4.2-3.9A4.9,4.9,0,0,1,59.5,16V14.2c0-1.4-1.1-2.2-2.8-2.2a4.9,4.9,0,0,0-3.5,1.5l-1.1-1.8a7.1,7.1,0,0,1,5-1.9c2.6,0,5,1.1,5,4.3V22H59.5Zm0-3.2a3.5,3.5,0,0,0-2.8-1.2,2.3,2.3,0,0,0-2.5,2.2,2.3,2.3,0,0,0,2.5,2.1,3.5,3.5,0,0,0,2.8-1.2ZM65.8,24a4.3,4.3,0,0,0,3.7,1.6c2,0,3.8-1.1,3.8-3.7V20.1a4.8,4.8,0,0,1-3.9,2.1c-3,0-5-2.3-5-6s2-6,5-6a4.7,4.7,0,0,1,3.9,2.1V10.4h1.2V21.9c0,3.5-2.3,4.8-5.1,4.8a5.3,5.3,0,0,1-4.4-1.7Zm7.6-10.6a4.5,4.5,0,0,0-3.7-2.1c-2.5,0-3.9,2.1-3.9,4.9s1.4,4.9,3.9,4.9A4.5,4.5,0,0,0,73.4,19Zm3.8-2.9h1.2v2a4.8,4.8,0,0,1,3.8-2.2v1.4h-.6a4.3,4.3,0,0,0-3.2,2.1V22H77.2Zm5.6,5.8c0-3.4,2.1-6,5.4-6s5.4,2.7,5.4,6-2.1,6.1-5.4,6.1S82.7,19.6,82.7,16.2Zm9.5,0c0-2.6-1.5-4.9-4.1-4.9S84,13.6,84,16.2s1.5,4.9,4.1,4.9S92.3,18.8,92.3,16.2Zm10.9,4.1a5.7,5.7,0,0,1-4.1,2c-2.3,0-3.5-1.1-3.5-3.7V10.4h1.2v7.8c0,2.2,1.1,2.9,2.7,2.9a4.8,4.8,0,0,0,3.7-1.9V10.4h1.2V22h-1.2Zm3.8,6.1V10.4h1.2v1.8a4.8,4.8,0,0,1,3.9-2.1c3,0,5,2.3,5,6s-2,6.1-5,6.1a4.8,4.8,0,0,1-3.9-2.1v6.3Zm4.9-15.1a4.5,4.5,0,0,0-3.7,2.1V19a4.6,4.6,0,0,0,3.7,2.1c2.5,0,3.9-2.1,3.9-4.9S114.4,11.3,111.9,11.3Z" transform="translate(-0.9 -1.1)" style="fill:#555759"/><path d="M19.8,6a2.4,2.4,0,0,0-1.4-.7c-1.2-.1-2.1,1.1-1.9,2.6h0v.3a4.6,4.6,0,0,1-.3,2.3l-.2.4v.3c-.2.7.1,1,.7.8l.5-.4.2-.2a2.3,2.3,0,0,1,1.7-.6h.2c1.1,0,1.9-1.1,1.7-2.6a3.8,3.8,0,0,0-.5-1.5Z" transform="translate(-0.9 -1.1)" style="fill:url(#a)"/><path d="M22.7,25.6a3,3,0,0,0,.3-1.9,3.7,3.7,0,0,0-3-3.3h-.3a4,4,0,0,1-2.3-.8l-.4-.4-.3-.2c-.7-.4-1-.1-.6.7l.5.8.2.3a5.7,5.7,0,0,1,1,2.5h0v.3a3.6,3.6,0,0,0,2.9,3,2,2,0,0,0,1.4-.4Z" transform="translate(-0.9 -1.1)" style="fill:url(#b)"/><path d="M12.8,11.4h-.7A4.3,4.3,0,0,1,9.2,9.9,6.3,6.3,0,0,1,7.9,6.4a3.8,3.8,0,0,0,0-.6V5.5C7.6,3.2,6,1.2,4.2,1.1S.8,2.7.9,5.2,2.6,9.7,4.6,9.8h.8a4.2,4.2,0,0,1,3.4,1.6,5.8,5.8,0,0,1,1.1,2,6.8,6.8,0,0,1,.4,1.9,5.2,5.2,0,0,1-.7,3.1l-.3.5a3.4,3.4,0,0,1-2.8,1.2H5.6c-2,0-3.6,1.8-3.5,4.2A4.9,4.9,0,0,0,6.3,29c2.2.2,3.9-1.7,3.7-4.2v-1a5.2,5.2,0,0,1,.9-4.2,3.3,3.3,0,0,1,2.6-1.2h.3c1.5,0,2.5-1.5,2.4-3.3S14.4,11.6,12.8,11.4Z" transform="translate(-0.9 -1.1)" style="fill:url(#c)"/></svg>