<svg xmlns="http://www.w3.org/2000/svg" viewBox="0 0 1792 1225"><g fill="none" fill-rule="nonzero"><path stroke="#000" stroke-linecap="round" stroke-width="60" d="M647 865l66 276h91.822M440.822 865l-66 276H283M165.874 660C107 688.941 70.104 723.175 55.187 762.703 40.27 802.23 31.874 854.99 30 920.983M971 660c41.672 43.61 84.15 65.416 127.436 65.416 43.284 0 96.303-10.903 159.055-32.708"/><path fill="#52595F" d="M398 1023.048c-4.718-.93 3.026 3.47-113.534-64.52-57.181-33.353-105.485-62.08-107.342-63.835-1.857-1.756-4.332-5.218-5.5-7.693-2.105-4.459-2.127-5.258-2.402-87.2l-.277-82.7-64.723-40.465C68.625 654.38 38.51 635.115 37.3 633.823c-1.21-1.291-3.236-4.592-4.5-7.335l-2.3-4.988v-220l2.378-4.788c1.308-2.633 4.233-6.29 6.5-8.125 2.267-1.836 32.36-20.973 66.872-42.528l62.75-39.19v-80.753c0-91.187-.256-87.848 7.332-95.743 3.132-3.26 30.01-19.4 108.168-64.962C341.7 32.068 390.086 3.978 392.023 2.99 397.24.327 403.718-.301 409.5 1.294c3.38.933 25.529 14.235 68.34 41.043C512.677 64.152 541.548 82 541.999 82c.45 0 29.645-18.021 64.877-40.047 55.394-34.63 64.775-40.164 69.354-40.91 5.914-.962 11.75-.173 16.304 2.202 13.985 7.296 211.742 123.604 214.342 126.062 1.857 1.756 4.332 5.218 5.5 7.693 2.105 4.459 2.127 5.258 2.402 87.2l.277 82.7 64.723 40.465c35.597 22.255 65.713 41.52 66.923 42.812 1.21 1.291 3.236 4.592 4.5 7.335l2.299 4.988v220l-2.378 4.788c-1.308 2.633-4.233 6.29-6.5 8.125-2.267 1.836-32.36 20.973-66.872 42.528L915 717.131v80.753c0 91.187.256 87.848-7.332 95.743-3.132 3.26-30.01 19.4-108.168 64.962-57.2 33.343-105.782 61.533-107.96 62.645-4.77 2.435-14.619 2.802-19.636.732-1.872-.772-31.682-19.08-66.244-40.685C571.098 959.676 542.451 942 542 942c-.451 0-29.098 17.676-63.66 39.28-34.562 21.605-64.19 39.794-65.84 40.42-4.192 1.59-10.366 2.164-14.5 1.348zm160.242-236.096c3.943-1.307 46.282-25.409 114.445-65.147 93.209-54.34 109.004-63.88 114.093-68.906 10.093-9.969 15.238-22.27 15.196-36.33-.048-15.634-4.463-26.278-15.384-37.09-15.457-15.304-37.071-19.615-56.563-11.282-2.49 1.065-45.817 26.02-96.28 55.455L542 677.17l-77.75-45.359-77.749-45.358V437.546l77.748-45.357 77.748-45.358 52.002 30.33c28.601 16.683 51.984 30.558 51.962 30.835-.022.277-28.683 17.154-63.69 37.504-35.008 20.35-66.301 38.772-69.54 40.938-26.826 17.934-30.44 56.814-7.398 79.572 8.89 8.78 18.01 13.073 32.843 15.46 4.982.803 16.051-1.078 23.096-3.923 3.183-1.286 53.542-30.173 111.909-64.193 74.629-43.498 107.761-63.338 111.646-66.854C796.303 436.114 802 423.367 802 408.076c0-9.875-1.71-16.778-6.302-25.453-6.798-12.839-4.896-11.595-122.79-80.311-65.6-38.238-110.975-64.083-114.908-65.454-9.139-3.186-23.947-3.15-32.5.077-3.3 1.245-54.78 30.681-114.4 65.414-118.063 68.78-115.986 67.422-122.881 80.418-7.146 13.47-6.719 5.249-6.719 129.233 0 123.984-.427 115.763 6.719 129.233 6.884 12.975 4.94 11.7 121.882 79.907 59.07 34.452 109.199 63.403 111.399 64.335 11.413 4.838 24.961 5.383 36.742 1.477z"/><path stroke="#000" stroke-linecap="round" stroke-width="40" d="M1356.5 988.5l-74 183-69.048-32.82M1521 1013l71.524 164.84-71.524 27.09M1212.352 865c-14.359 39.51-40 65.62-76.921 78.331-36.922 12.71-76.732 12.71-119.431 0M1701.327 865c37.128 19.718 59.415 48.743 66.863 87.074 7.448 38.332 1.908 77.755-16.621 118.269"/><g transform="translate(1145 445)"><circle cx="321.925" cy="321.048" r="320.743" fill="#228DB7" stroke="#000"/><circle cx="307.993" cy="308.107" r="307.802" fill="#F1E9B4" stroke="#000"/><circle cx="296.081" cy="296.195" r="295.89" fill="#C11A18" stroke="#000"/><path fill="#FFF" d="M529.902 211.966l-31.652 4.065-65.62 258.993h-70.844l-58.358-186.986h-1.742l-58.364 186.986H172.77l-65.913-258.993-31.645-4.065v-51.101h142.272v51.101l-33.394 6.388 29.616 143.72h1.742l58.651-201.209h56.909l59.231 201.79h1.743l29.33-144.015-33.681-6.674v-51.101h142.272v51.101z"/></g></g></svg>
