<?xml version="1.0" encoding="utf-8"?>
<!-- Generator: Adobe Illustrator 20.1.0, SVG Export Plug-In . SVG Version: 6.00 Build 0)  -->
<svg version="1.1" id="Layer_1" xmlns="http://www.w3.org/2000/svg" xmlns:xlink="http://www.w3.org/1999/xlink" x="0px" y="0px"
	 viewBox="0 0 400 150" style="enable-background:new 0 0 400 150;" xml:space="preserve">
<style type="text/css">
	.st0{fill:#FF9933;}
	.st1{fill:#0066CC;}
</style>
<g>
	<path class="st0" d="M195.3,31.6c-1.9,0-3.8,0.9-5.6,2.7l-28.5,28.5c-7.7,7.7-15.2,7.7-22.8,0l-28.5-28.5c-3.8-3.8-7.5-3.8-11.3,0
		L70.1,62.8c-7.7,7.7-15.2,7.7-22.8,0L13.2,28.7l5.8-5.6l13.3,13.3l0,0l20.8,20.8c3.8,3.8,7.5,3.8,11.3,0l28.5-28.5
		c7.7-7.5,15.2-7.5,22.8,0l28.5,28.5c3.8,3.8,7.5,3.8,11.3,0l28.5-28.5c3.8-3.8,7.7-5.6,11.4-5.6V31.6z"/>
	<path class="st1" d="M195.3,4.7H363c4.8,0,8.5,0.9,11.3,2.3c3,1.6,4.9,3.9,5.8,6.6c0.9,2.6,0.7,5.5-0.3,8.5
		c-1.3,3.9-4,8.1-8.2,12.1l-28.3,28.5c-7.7,7.7-15.2,7.7-22.8,0l-28.5-28.5c-3.8-3.8-7.5-3.8-11.4,0l-28.3,28.5
		c-7.7,7.7-15.2,7.7-22.8,0L201,34.3c-1.9-1.9-3.8-2.7-5.6-2.7V23c3.8,0,7.4,1.9,11.3,5.6l28.5,28.5c3.8,3.8,7.5,3.8,11.3,0
		l28.5-28.5c7.7-7.5,15.2-7.5,22.8,0L326,57.2c3.9,3.8,7.7,3.8,11.4,0l28.5-28.5c3.3-3.3,5.5-6.4,6.4-9.1c0.4-1.4,0.6-2.6,0.3-3.5
		c-0.3-0.7-0.9-1.4-1.9-2c-1.7-0.9-4.2-1.3-7.7-1.3H195.3V4.7z"/>
	<path class="st1" d="M316.5,109.9c-5.2,0-5.4-5.4-5.4-5.8l22.1,0c0-4.6-1.2-8.5-3.5-11.7c-2.5-3.2-6.8-4.8-13.3-4.8
		c-5.1,0-9.1,1.2-12,3.8c-3,2.5-4.5,5.9-4.5,10.3c0,4.6,1.4,8.2,4.2,10.4c2.6,2.3,6.4,3.5,12.3,3.5c4.1,0,15.4-0.7,16.3-9.4h-11.1
		C320.8,109.9,318,109.9,316.5,109.9z M312.7,94.6c1-1,2.3-1.6,3.8-1.6c1.4,0,2.6,0.4,3.7,1.4c1,1.1,1.5,2.3,1.5,3.9l-10.6,0
		C311.1,96.9,311.7,95.6,312.7,94.6z"/>
	<path class="st1" d="M277.4,84.3l12-3.8v7.8h6.8v6.2h-6.8v11.1c0,1.4,0.1,2.2,0.9,2.9c0.6,0.5,1.7,0.8,2.7,0.8c1,0,3.1-0.3,3.3-0.3
		v6.1c-1.3,0.1-2.7,0.3-4.1,0.4c-1.3,0.1-2.5,0.1-3.8,0.1c-3,0-5.6-0.4-7.8-1.4c-2.2-1-3.2-2.9-3.2-5.6v-14h-5.8v-6.2h5.8V84.3z"/>
	<polygon class="st1" points="232,88.4 245,88.4 250.8,106.2 257.4,88.4 268.6,88.4 251.6,124.7 240.7,124.7 245,115.1 	"/>
	<path class="st1" d="M227.1,91.7c-2-2-6.6-5.7-15.2-3.3c-1.9,0.5-3.6,1.5-4.8,2.4V77h-11.9v37.7h11.4c0.3-0.9,0.4-1.6,0.4-2.2
		c0-0.7,0-0.9,0-0.9l0.1,0c0.7,1,1.9,1.9,3.3,2.7c0.6,0.3,1.2,0.4,1.9,0.7c1.2,0.3,2.5,0.4,3.9,0.4c3.6,0,13.9-2.1,13.9-14.7
		C230.3,96.8,229.3,93.9,227.1,91.7z M216.9,107c-0.8,1.8-2.2,2.5-4.3,2.5c-1.7,0-3.1-0.7-3.9-1.8c-0.8-1.1-1.5-3-1.5-5.8
		c0-1.9,0.3-4,1-5.6c0.6-1.4,2.2-2.5,4.3-2.5c2.5,0,3.8,0.7,4.5,2.2c0.6,1.5,0.9,3.2,0.9,5.3C217.9,103.4,217.6,105.3,216.9,107z"/>
	<path class="st1" d="M188.1,109.8v-13c0-6.5-5.4-9.3-12.6-9.3c-0.3,0-0.7,0-1,0c-5.5,0.1-11.4,2-12,7.8h5.3
		c0.3-2.7,3.2-4.2,6.7-4.3h0.3c5.1,0,8.2,1.6,8.2,6.7v0.7c-2.3,0-9,0.1-9,0.1c-9.4,0.3-13.4,3-13.4,8.7c0,4.9,4.5,8.5,11.1,8.5
		c5,0,9-1.4,11.4-4.6h0.1c0,1.2,0,2.5,0.1,3.6h4.9C188.1,113.3,188.1,111.7,188.1,109.8z M183,103.1c0,9-9.4,9.1-10,9.1
		c-4.9,0-7.1-2.6-7.1-5.2c0-3.8,3.3-4.8,8.5-4.9c0,0,6.8-0.1,8.5-0.1V103.1z"/>
	<polygon class="st1" points="140.4,98.2 131.1,88.5 124.2,88.5 136.3,101.1 123.3,114.7 130,114.7 139.8,104 149.8,114.7 
		157.2,114.7 143.6,101.1 156,88.5 149.5,88.5 	"/>
	<path class="st1" d="M120.3,101.4c0-8.8-5.2-13.9-14.5-13.9h-0.4V91h0.3c4.5,0,9,2.3,9.1,8.4h-9.4v3.6h14.9V101.4L120.3,101.4z
		 M105.4,115.7h0.3c5.8,0,12.9-1.9,13.9-8.8h-5.4c-1.2,3.8-5.1,5.4-8.8,5.4l0,0V115.7z M105.4,87.5c-9.3,0.1-14.9,5.2-14.9,14.6
		c0,8.2,5.5,13.4,14.9,13.6v-3.5c-5.8-0.1-9.3-3.9-9.7-9.3h9.7v-3.6h-9.5c0.9-5.6,4.5-8.2,9.5-8.4V87.5z"/>
	<g>
		<path class="st1" d="M375.9,78.6c0.6-0.1,1.5-0.2,2.4-0.2c1.2,0,2.1,0.2,2.7,0.7c0.5,0.4,0.7,1,0.7,1.7c0,1.1-0.8,1.9-1.6,2.2v0
			c0.6,0.2,1,0.8,1.2,1.7c0.3,1.1,0.5,2.1,0.7,2.4h-1.6c-0.1-0.3-0.3-1-0.6-2c-0.2-1.1-0.7-1.5-1.6-1.5h-0.8v3.6h-1.6V78.6z
			 M377.4,82.4h0.9c1.1,0,1.7-0.6,1.7-1.4c0-0.9-0.7-1.4-1.7-1.4c-0.5,0-0.8,0-1,0.1V82.4z"/>
	</g>
	<g>
		<path class="st1" d="M370.3,82.8c0,4.6,3.7,8.3,8.3,8.3c2.2,0,4.3-0.9,5.9-2.4c1.6-1.6,2.4-3.6,2.4-5.9c0-4.6-3.7-8.3-8.3-8.3
			C374,74.5,370.3,78.3,370.3,82.8z M371.7,82.8c0-3.8,3.1-6.9,6.9-6.9c3.8,0,6.9,3.1,6.9,6.9c0,1.8-0.7,3.6-2,4.9
			c-1.3,1.3-3,2-4.8,2C374.8,89.7,371.7,86.6,371.7,82.8z"/>
	</g>
	<path class="st1" d="M355.9,96.3h11c0,0,1.3-8.6-14.8-8.6c-10.5,0-14.2,4.8-14.2,7.9c0,3.1,1.8,6,9.4,7.8c7.5,1.8,9.7,2.6,9.2,4.8
		c-0.5,2.2-7.4,2.9-7.4-2H338c0,0-0.1,6.8,6.8,8.7c6.9,1.9,17.4,1,20.9-2.5c3.1-3.2,2.7-8.7,0.3-10.6c-2.4-1.9-5.6-2.6-9.3-3.5
		c-3.6-0.9-7.2-1.2-7.2-3.1C349.4,93.3,355.7,92.3,355.9,96.3z"/>
	<g>
		<path class="st1" d="M196,137c0-1.3-0.1-1.9-0.1-2.8h2l0.1,1.3h0.1c0.6-0.9,1.8-1.5,3.3-1.5c2,0,3.5,1.1,3.5,3.8v7.3h-2.3v-7
			c0-1.3-0.3-2.6-2-2.6c-1,0-1.9,0.6-2.2,1.8c-0.1,0.3-0.1,0.6-0.1,1v6.9H196V137z"/>
		<path class="st1" d="M224.7,139.8c0,3.4,1.8,4.1,3.4,4.1c1,0,1.8-0.2,2.4-0.4l0.4,1.3c-0.8,0.3-2,0.5-3.2,0.5
			c-3.5,0-5.3-2.1-5.3-5.5c0-3.5,2-5.7,4.9-5.7c2.9,0,4.1,2.4,4.1,4.8c0,0.4,0,0.7-0.1,1H224.7z M229.3,138.5c0-2.2-1.1-3.1-2.2-3.1
			c-1.5,0-2.3,1.6-2.4,3.1H229.3z"/>
		<path class="st1" d="M251.8,131.6v2.6h2.8v1.3h-2.8v6.5c0,1.4,0.7,1.8,1.5,1.8c0.4,0,0.7,0,0.9-0.1l0.1,1.3
			c-0.4,0.1-1,0.2-1.7,0.2c-0.9,0-1.7-0.2-2.3-0.7c-0.6-0.5-0.9-1.2-0.9-2.8v-6.4h-1.8v-1.3h1.8v-1.9L251.8,131.6z"/>
		<path class="st1" d="M273.1,134.2l1.4,5.4c0.3,1.2,0.6,2.3,0.8,3.5h0.1c0.2-1.1,0.6-2.4,0.9-3.4l1.7-5.4h1.8l1.6,5.2
			c0.4,1.2,0.7,2.4,0.9,3.6h0.1c0.2-1.2,0.5-2.3,0.8-3.5l1.4-5.3h2.3l-3.7,10.9h-1.9l-1.7-5.3c-0.4-1.1-0.6-2-0.8-3.3h-0.1
			c-0.2,1.3-0.5,2.3-0.8,3.3l-1.7,5.2h-1.9l-3.5-10.9H273.1z"/>
		<path class="st1" d="M312.4,139.7c0,4.2-2.6,5.6-4.8,5.6c-2.6,0-4.7-1.8-4.7-5.6c0-4,2.4-5.6,4.9-5.6
			C310.3,134,312.4,135.9,312.4,139.7z M305.2,139.7c0,1.8,0.4,4.3,2.5,4.3c2,0,2.4-2.6,2.4-4.3c0-1.7-0.4-4.2-2.5-4.2
			C305.6,135.4,305.2,138,305.2,139.7z"/>
		<path class="st1" d="M330,137c0-0.9-0.1-2-0.1-2.8h2.1l0.1,1.7h0.1c0.5-1,1.7-1.9,3.1-1.9c0.2,0,0.3,0,0.5,0v1.8
			c-0.1,0-0.3,0-0.5,0c-1.5,0-2.5,1-2.8,2.3c-0.1,0.3-0.1,0.6-0.1,1v6.1H330V137z"/>
		<path class="st1" d="M354.7,139.3L354.7,139.3c0.3-0.4,0.6-0.9,0.8-1.2l2.9-3.9h2.5l-3.8,4.6l4.2,6.3h-2.6l-3.1-5.2l-0.8,1v4.1
			h-2.3v-15.6h2.3V139.3z"/>
	</g>
</g>
</svg>
