<svg class="logo" xmlns="http://www.w3.org/2000/svg" xmlns:xlink="http://www.w3.org/1999/xlink" viewBox="0 0 505.039 237.126">
  <g fill="#3a3a3a">
    <path d="M198.318 11.002v12.571h20.685V34.54h-20.685v23.983H186.46V.036h38.605v10.966h-26.747zM227.654 35.342c0-18.723 7.399-24.162 19.971-24.162 12.66 0 20.061 5.438 20.061 24.162 0 18.812-7.4 23.805-20.061 23.805-12.571 0-19.971-4.993-19.971-23.805zm28.263 0c0-10.075-3.655-13.552-8.292-13.552-4.636 0-8.202 3.478-8.202 13.552 0 9.807 3.566 13.195 8.202 13.195 4.637 0 8.292-3.388 8.292-13.195zM306.205 12.25l-3.389 11.501h-5.527l-8.916 3.388v31.383h-11.769V12.161h10.075l1.604 5.706 4.279-2.764c3.299-2.14 7.044-3.299 10.343-3.299 1.16.001 2.765.179 3.3.446zM370.668 29.19v29.333h-11.769V29.19c0-3.566-1.783-6.509-6.509-6.509h-5.26v35.841h-11.769V29.19c0-3.566-1.783-6.509-6.509-6.509h-5.261v35.841h-11.769V12.161h10.967l.445 1.605 8.916-1.961c4.102 0 8.916.802 11.59 2.585l11.947-2.585c10.434 0 14.981 5.26 14.981 17.385zM198.318 100.17v12.571h20.685v10.966h-20.685v23.983H186.46V89.203h38.605v10.967h-26.747zM266.438 101.329v46.362h-10.967l-.445-1.693-9.361 2.05c-11.323 0-15.691-7.043-15.691-17.385V101.33h11.769v29.333c0 4.457 1.961 6.508 5.171 6.508l7.757-.802v-35.04h11.767zM313.249 118.358v29.333h-11.77v-29.333c0-4.458-1.961-6.509-5.171-6.509l-7.757.803v35.039h-11.769v-46.362h10.967l.445 1.694 9.361-2.051c11.325 0 15.694 7.044 15.694 17.386zM340.712 100.972h5.082l8.915 2.051v9.629l-10.163-1.07h-3.834c-5.617 0-7.489 4.012-7.489 13.017 0 9.184 1.872 12.75 7.489 12.75h3.834l10.163-1.07v9.629l-8.915 2.051h-5.082c-13.552 0-19.258-6.062-19.258-23.359 0-17.298 5.706-23.628 19.258-23.628zM390.287 137.17v8.203l-11.77 2.585c-7.935 0-12.036-5.438-12.036-15.514v-20.238h-5.616v-10.877h5.795V90.273l11.59-1.605v12.66h11.502v10.877H378.25v15.067c0 8.024 1.694 9.896 6.598 9.896h5.439zM410.617 80.823v14.176H397.6V83.586l13.017-2.763zm-.625 20.506v46.362h-11.769v-46.362h11.769zM419.623 124.51c0-18.723 7.399-24.162 19.971-24.162 12.66 0 20.061 5.438 20.061 24.162 0 18.812-7.4 23.805-20.061 23.805-12.572-.001-19.971-4.993-19.971-23.805zm28.263 0c0-10.075-3.655-13.552-8.292-13.552-4.636 0-8.202 3.478-8.202 13.552 0 9.808 3.566 13.195 8.202 13.195s8.292-3.388 8.292-13.195zM505.039 118.358v29.333h-11.77v-29.333c0-4.458-1.961-6.509-5.171-6.509l-7.757.803v35.039h-11.769v-46.362h10.967l.445 1.694 9.361-2.051c11.325 0 15.694 7.044 15.694 17.386zM229.523 212.696h-3.656v22.735l-6.687 1.427h-15.959c-13.374 0-18.812-4.19-18.812-16.673 0-6.241 1.962-10.521 5.35-13.284-2.051-2.496-3.21-6.151-3.21-11.323 0-11.857 5.35-17.118 14.89-17.118h9.094l6.509 1.338v9.45h-14.265c-2.942 0-4.369 2.586-4.369 6.241 0 4.102 1.783 6.419 3.923 6.419h3.478v10.788h-4.28c-3.031 0-5.26 3.389-5.26 6.776 0 4.102 2.496 6.598 6.954 6.598h11.056v-13.374h-3.655v-10.788h18.901v10.788zM277.405 178.192h11.947l8.916 2.051v10.075l-10.164-1.338h-6.687c-7.133 0-10.075 4.993-10.075 18.724 0 13.819 2.942 18.634 10.075 18.634h6.687l10.164-1.07v9.808l-8.916 2.051h-11.947c-11.145 0-17.92-8.381-17.92-29.422s6.776-29.513 17.92-29.513zM307.454 236.858v-64.461l11.769-2.407v66.868h-11.769zM364.783 205.742v31.116h-22.557c-9.985 0-14.8-4.904-14.8-13.998 0-9.272 4.814-14.443 14.8-14.443h5.617l5.171 1.07v-3.478c0-2.675-1.783-4.903-5.528-4.903h-5.171l-10.966 1.069v-9.629l10.342-2.229h9.272c7.223.001 13.82 7.044 13.82 15.425zm-22.468 20.328h10.699v-6.865h-10.699c-1.783 0-3.12 1.961-3.12 3.655 0 1.605 1.516 3.21 3.12 3.21zM394.653 200.66h-5.082c-4.102 0-5.527 1.338-5.527 3.21 0 2.407.892 3.21 5.527 3.655 14.265 1.516 18.277 4.726 18.277 15.781 0 10.698-3.745 13.819-18.188 13.819h-7.578l-8.916-2.051v-9.629l10.164 1.069h6.241c5.706 0 6.954-.98 6.954-3.031 0-2.229-1.516-3.388-6.954-4.101-12.66-1.516-16.851-5.261-16.851-14.979 0-10.164 4.992-14.354 16.851-14.354h6.419l9.629 2.14v9.54l-10.966-1.069zM436.828 200.66h-5.082c-4.102 0-5.527 1.338-5.527 3.21 0 2.407.892 3.21 5.527 3.655 14.265 1.516 18.277 4.726 18.277 15.781 0 10.698-3.745 13.819-18.188 13.819h-7.578l-8.916-2.051v-9.629l10.164 1.069h6.241c5.706 0 6.954-.98 6.954-3.031 0-2.229-1.516-3.388-6.954-4.101-12.66-1.516-16.851-5.261-16.851-14.979 0-10.164 4.993-14.354 16.851-14.354h6.419l9.629 2.14v9.54l-10.966-1.069z"></path>
    <g>
        <path d="M0 0h13.429v147.72H0z"></path>
        <path d="M0 0h147.72v13.429H0zM0 40.287h147.72v13.429H0zM26.858 107.433h13.43v40.287h-13.43z"></path>
        <path d="M26.858 107.433h53.717v13.43H26.858zM94.004 67.146h13.429v80.574H94.004z"></path>
        <path d="M94.004 67.146h53.716v13.429H94.004zM94.004 134.291h53.716v13.429H94.004zM26.858 67.146h13.43v26.858h-13.43z"></path>
        <path d="M26.858 67.146h53.717v13.429H26.858z"></path>
    </g>
  </g>
</svg>
