<svg xmlns="http://www.w3.org/2000/svg" fill="none" viewBox="0 0 516 515"><g clip-path="url(#clip0)"><path fill="#1572B6" d="M97.37 479.66L69 161.49h311.71l-28.4 318.12L224.66 515 97.37 479.66z"/><path fill="#33A9DC" d="M224.86 488L328 459.36l24.27-271.85H224.86V488z"/><path fill="#fff" d="M313.26 91.29h-25.87l26.9 29.19v13.9h-55.41v-16.27h26.9l-26.9-29.2V75h54.38v16.29zm-65.37 0H222l26.9 29.19v13.9h-55.39v-16.27h26.9l-26.9-29.2V75h54.39v16.29h-.01zm-64.72.71h-27.92v25.43h27.92v17h-47.76V75h47.76v17z"/><path fill="#fff" stroke="#fff" d="M160.53 229.41c5-4.83 8.35-6.06 19.78-7.17 6.21-.6 7.89-1.39 12.2-5.75 3.88-3.92 6.37-5.67 10.74-7.54 5.39-2.3 9.08-2.78 20.21-2.6 10.74.17 16.79.87 24.23 2.83 9 2.37 13.46 4.11 19.16 7.48 6.24 3.69 11 7.36 7.56 5.8-.44-.2-1-.46-1.17-.59-.17-.13-2.92-1-7.92-2.55a54.006 54.006 0 0 0-26-1.4c-12.22 2.37-22.24 7.15-30 14.29l-1.9 1.76h-12.61c-6.94 0-18.31 0-25.27-.06-7.29 0-12.66-.15-12.66-.28 0-.3 1.95-2.56 3.65-4.22zm-34.15 59.37a26.188 26.188 0 0 1 2.34-8.41l.38-.73 1.6 1.57a29.732 29.732 0 0 0 5.92 4.31c.902.381 1.823.715 2.76 1 1.84.6 2.4.66 5.76.69 4.16 0 5.47-.22 8.59-1.66 2.42-1.12 3.54-2.07 4.38-3.73a6.128 6.128 0 0 0-.9-7c-1.93-1.93-5.46-2.8-11.35-2.81-7.24 0-12.83 1-15.57 2.7a6.15 6.15 0 0 1-1.28.69c-.23 0-.33-.22-1.6-3.6-3.36-8.91-3.39-9-3.39-10.87-.059-1 .105-2.001.48-2.93 1.06-2.39 2.51-3.42 6.13-4.33 2.94-.75 3.35-1.13 3.11-2.89a6.524 6.524 0 0 0-.3-1.41c-.22-.36-2.93 0-4.51.54-2.6.94-2.38 1-2.2-.54a8.679 8.679 0 0 1 2.89-5.83 11.552 11.552 0 0 1 3.5-2.56c3.31-1.57 3.86-1.62 17.23-1.62h12l.89 1.44a6.345 6.345 0 0 0 3.827 3.087 6.338 6.338 0 0 0 4.883-.577 6.558 6.558 0 0 0 3-3.21l.41-.75 41.17.13 1.27.57a7.168 7.168 0 0 1 3.4 9.18 11.649 11.649 0 0 1-2.65 4c-3.73 4.27-8.56 6.22-14.92 6-3.59-.11-3.67 0-2.77 2.35 3.1 8.22 2.88 15.86-.65 23a25.901 25.901 0 0 1-13.53 12.61c-4.78 2.06-7 2.31-22.22 2.5-17.82.22-20.1.36-23.88 1.49a15 15 0 0 0-7.58 4.77c-.412.48-.856.931-1.33 1.35a2.635 2.635 0 0 1-.59-.54A27.04 27.04 0 0 1 128 301a28.467 28.467 0 0 1-1.62-12.22zm60.16 139.42a46.17 46.17 0 0 0-2.73 5.67c-.15.4-.57 1.85-.93 3.24-.6 2.3-.65 2.92-.66 7.08a52.567 52.567 0 0 0 .16 5.34c.23 1.06-.11 1-2-.24l-2.38-1.6c-2.06-1.39-10.16-7.57-12.14-9.26a133.978 133.978 0 0 1-16.32-16.76 149.619 149.619 0 0 1-11-16.6 78.755 78.755 0 0 1-7.74-30.38c-.43-10.8 3.27-23.18 9.78-32.66 3-4.41 6.5-8.21 12.41-13.56s16.45-12.74 25.69-18.06c7.06-4.07 8-4.68 11.17-7a61.764 61.764 0 0 0 12.94-12.58 32.195 32.195 0 0 0 5.44-14.26c.3-3.382.179-6.788-.36-10.14-.26-1-.28-1.43-.07-1.6a12.365 12.365 0 0 1 2.32-.75 39.38 39.38 0 0 0 3.94-1.27l1.9-.75 1.66 1.79a34.231 34.231 0 0 1 7.23 12.52 33.492 33.492 0 0 1 1.51 9.67c.33 10.14-2.78 20.7-9.07 30.74a165.1 165.1 0 0 1-14.53 18.86l-3.68 4.22c-5.28 6.05-13 16.44-15.73 21.29-.38.66-.95 1.58-1.26 2a105.85 105.85 0 0 0-6 12.72 68.283 68.283 0 0 0-2.43 10.68 57.514 57.514 0 0 0 .09 12.36c1.78 10.15 5.41 17.93 11.59 24.85.785.78 1.458 1.665 2 2.63a6.256 6.256 0 0 1-.8 1.81zm37-38.48c.16 1.59.34 3.07.41 3.29.13.45-.52 1-3.76 2.95-1.89 1.16-4.41 2.84-7.85 5.21-6.1 4.22-16 13.47-19.45 18.18-1 1.3-2 2.4-2.35 2.4a9.385 9.385 0 0 1-1.93-1.76c-5.38-5.77-9.29-14.74-10.42-23.91-.9-7.3 1.36-17.49 5.82-26.27 4.46-8.78 14-21.69 24.8-33.59 5.86-6.43 8-9 10.6-13a106.777 106.777 0 0 0 7-12.77 65.409 65.409 0 0 0 4.45-14.71c.636-4.704.716-9.467.24-14.19-1.52-9.17-4-14.79-9.3-20.83a6.646 6.646 0 0 1-1.14-1.57c.21-.421.506-.792.87-1.09a27.372 27.372 0 0 0 2.28-2.75c1.95-2.65 1.83-2.54 2.56-2.38a53.542 53.542 0 0 1 8.93 3.49c7.51 3.73 13.46 8.71 19.32 16.2 2.63 3.36 6 10.18 8 16.09a38.835 38.835 0 0 1 1.38 18.83 49.179 49.179 0 0 1-2.16 8c-.18.4-.7 1.62-1.17 2.71a90.024 90.024 0 0 1-8.87 14.57c-3 3.93-7.67 9.44-10.48 12.37a76.837 76.837 0 0 0-13.53 19.3 51.264 51.264 0 0 0-4.22 25.23h-.03zm63.33-32.25a62.802 62.802 0 0 1-9.84 10c-2.59 1.89-13.86 7.62-19 9.68-1.12.45-6.39 2.8-9.67 4.32-.83.38-2.45 1.11-3.6 1.62-2 .89-11 5.29-13.78 6.75-1.74.91-2 .9-2.21-.06a53.357 53.357 0 0 1-.16-10.07c1.58-11.91 6.54-21.08 17.56-32.46a98.515 98.515 0 0 0 18.22-25.44c3.19-6.33 5.28-13.48 5.38-18.48a70.922 70.922 0 0 0-.82-10.25 57.608 57.608 0 0 0-5.57-15.54 97.116 97.116 0 0 0-8.71-12.8 43.92 43.92 0 0 0-4.52-4.59 93.152 93.152 0 0 0-10-6.87 77.24 77.24 0 0 0-9.86-4.33 18.53 18.53 0 0 1-2.52-1 2.783 2.783 0 0 1-.3-1.58A11.295 11.295 0 0 0 226 241a3.508 3.508 0 0 1-.6-1.47c.29-.29 9.37-.14 12.07.21 9.15 1.17 14.14 2.76 22.95 7.33a79.546 79.546 0 0 1 33.78 33.73 51.89 51.89 0 0 1 4.95 15c1.92 11.57 2 22.79.35 31.51a96.429 96.429 0 0 1-3 11.17 73.588 73.588 0 0 1-5.24 12.1 78.898 78.898 0 0 1-4.36 6.88l-.03.01zm34.43-34.81a84.894 84.894 0 0 1-12.78 20.62c-3.44 4-13.69 13.35-13.69 12.5.363-.937.794-1.846 1.29-2.72a87.162 87.162 0 0 0 6.49-17.27c.35-1.42 1-4 1.48-5.64 1.81-6.58 2.3-12.34 1.8-21.38-.51-9.27-2.6-19.59-5.3-26.19a68.35 68.35 0 0 0-7.88-14.16c-6.73-8.4-11.61-13.24-18.83-18.69a76.145 76.145 0 0 0-21.75-11.67c-9-3.1-15.11-3.93-28.12-3.8a67.3 67.3 0 0 1-7.74-.14c-.34-.54 5-4.05 9.06-6a52.869 52.869 0 0 1 11.46-4.12 53.56 53.56 0 0 1 21.23-.77A77.133 77.133 0 0 1 289.54 237a101.306 101.306 0 0 1 15 14.35c.79 1 1.87 2.29 2.41 2.88a71.323 71.323 0 0 1 5.5 7.32l2.06 3.12a71.67 71.67 0 0 1 4 7.85 85.952 85.952 0 0 1 6.49 24.22 52.18 52.18 0 0 1-3.68 25.91l-.02.01z"/></g><g clip-path="url(#clip1)"><path fill="#000" d="M325.608 261.992c5.437-10.169-17.633-33.108-51.533-51.236-33.898-18.127-65.788-24.577-71.226-14.408-5.438 10.17 17.634 33.109 51.533 51.236 33.899 18.127 65.787 24.578 71.226 14.408z"/><path fill="#000" d="M306.313 248.282l10.297-70.768a39.194 39.194 0 0 1 6.821-17.085l15.809-22.382a2.32 2.32 0 0 0 .06-2.572 2.274 2.274 0 0 0-2.37-1.031l-32.019 5.952a44.042 44.042 0 0 0-21.784 10.873l-58.233 53.5a2.326 2.326 0 0 0-.765 1.723c.005.66.294 1.284.795 1.713a199.444 199.444 0 0 0 37.116 25.057 198.808 198.808 0 0 0 41.388 16.922 2.317 2.317 0 0 0 2.885-1.902z"/><path fill="#F7931E" d="M293.079 203.264l-6.623 1.906-2.152 6.532a2.32 2.32 0 0 1-3.305 1.311 2.612 2.612 0 0 1-.842-.74l-3.851-5.689-6.87-.044a2.402 2.402 0 0 1-2.08-1.323 2.322 2.322 0 0 1 .253-2.443l4.238-5.416-2.092-6.566a2.303 2.303 0 0 1 .604-2.36 2.34 2.34 0 0 1 2.412-.526l6.454 2.346 5.591-4.009a2.432 2.432 0 0 1 3.682 1.969l-.23 6.876 5.536 4.065a2.342 2.342 0 0 1 .902 2.298 2.306 2.306 0 0 1-1.627 1.813z"/><path fill="#FFCC5C" d="M305.305 249.873a2.237 2.237 0 0 1-1.877.311 198.7 198.7 0 0 1-41.388-16.922 199.444 199.444 0 0 1-37.116-25.057 2.275 2.275 0 0 1-.795-1.713 2.326 2.326 0 0 1 .765-1.723l9.923-9.111a158.79 158.79 0 0 0 3.582 2.994 202.824 202.824 0 0 0 31.3 20.288 203.064 203.064 0 0 0 34.058 14.688c1.543.509 3.047.945 4.5 1.327l-.687 4.632-1.257 8.695a2.215 2.215 0 0 1-1.008 1.591z"/><path fill="#4D4D4D" d="M301.702 170.832l.785 4.576 15.101-2.593a39.382 39.382 0 0 1 3.235-8.156l-13.807-9.932-2.709 3.766 13.345 9.602-15.95 2.737z"/></g><g clip-path="url(#clip2)"><path fill="#1A1A1A" d="M113.146 477.211c0 34.778-22.431 37.676-43.47 37.676-21.042 0-43.472-2.898-43.472-37.676 0-31.502 18.257-78.248 43.471-78.248 25.213 0 43.471 46.746 43.471 78.248z"/><path fill="#333" d="M52.287 366.979A64.52 64.52 0 0 0 32 381.575v-37.676l20.287 23.08zM107.35 343.899v36.689a64.454 64.454 0 0 0-20.286-14.2l20.286-22.489z"/><path fill="#000" d="M54.46 365.171l-20.286-23.185a2.9 2.9 0 0 0-5.072 1.913v40.516a2.899 2.899 0 0 0 2.26 2.84c.21.034.424.052.638.058a2.898 2.898 0 0 0 2.608-1.653 32.175 32.175 0 0 1 18.635-15.824 3.179 3.179 0 0 0 1.072-.666l.03-.028a2.898 2.898 0 0 0 .115-3.971zm-19.562 9.853v-23.417l12.55 14.347a39.898 39.898 0 0 0-12.55 9.07zM108.365 341.175a2.927 2.927 0 0 0-3.188.811L84.89 365.171a2.95 2.95 0 0 0 .144 3.999c.31.291.675.518 1.073.666a32.174 32.174 0 0 1 18.635 15.824 2.897 2.897 0 0 0 2.608 1.653c.214-.006.426-.024.637-.058a2.899 2.899 0 0 0 2.261-2.84v-40.516a2.916 2.916 0 0 0-1.883-2.724zm-3.913 33.849a39.891 39.891 0 0 0-12.549-9.07l12.549-14.347v23.417z"/><path fill="#000" d="M113.146 397.456c0 21.59-19.504 39.182-43.47 39.182-23.968 0-43.472-17.592-43.472-39.182 0-20.953 18.287-36.168 43.471-36.168 25.184 0 43.471 15.215 43.471 36.168zM58.083 506.192a7.428 7.428 0 0 1-4.261 7.072 26.541 26.541 0 0 1-11.563 1.651c-.696 0-6.752-.028-6.752-.028-7.072.058-12.665.086-15.824-3.102a7.514 7.514 0 0 1-2.173-5.593c0-5.333 4.057-10.231 10.549-12.723a22.02 22.02 0 0 1 3.36-1.043 28.34 28.34 0 0 1 16.114 1.043c6.493 2.492 10.55 7.39 10.55 12.723zM89.962 477.212h23.184v20.286H89.962v-20.286z"/><path fill="#000" d="M26.204 477.212h23.185v20.286H26.204v-20.286zM121.841 506.192a7.517 7.517 0 0 1-2.174 5.593c-3.158 3.188-8.752 3.13-15.823 3.102 0 0-6.058.028-6.753.028a26.55 26.55 0 0 1-11.564-1.651 7.427 7.427 0 0 1-4.26-7.072c0-5.333 4.058-10.231 10.55-12.723a27.872 27.872 0 0 1 16.142-1.014c1.155.247 2.289.587 3.39 1.014 6.435 2.492 10.492 7.39 10.492 12.723zM116.045 491.702h-5.797v-5.796h5.797c6.401 0 11.592-5.191 11.592-11.593v-34.777c0-8.003 6.487-14.49 14.49-14.49s14.491 6.487 14.491 14.49v8.695h-5.796v-8.695a8.694 8.694 0 0 0-8.695-8.694 8.694 8.694 0 0 0-8.694 8.694v34.777c-.01 9.599-7.789 17.379-17.388 17.389z"/><path fill="#333" d="M80.687 407.077l-8.694 5.796a4.926 4.926 0 0 1-4.637 0l-8.694-5.796c-.667-.434-.753-1.029-.26-1.521a3.765 3.765 0 0 1 2.579-.797h17.388a3.767 3.767 0 0 1 2.58.797c.493.492.405 1.087-.262 1.521z"/><path fill="#B3B3B3" d="M17.51 407.657h28.98v5.797H17.51v-5.797zM22.13 428.196l26.081-11.598 2.355 5.296-26.08 11.597-2.356-5.295zM92.86 407.657h28.981v5.797H92.86v-5.797zM88.786 421.899l2.355-5.297 26.082 11.592-2.353 5.297-26.084-11.592z"/><path fill="#FFCC5C" d="M66.777 390.269s-6.49 8.694-14.49 8.694c-8.003 0-14.49-8.694-14.49-8.694s6.487-8.694 14.49-8.694c8 0 14.49 8.694 14.49 8.694zM101.554 390.269s-6.49 8.694-14.49 8.694c-8.003 0-14.49-8.694-14.49-8.694s6.487-8.694 14.49-8.694c8 0 14.49 8.694 14.49 8.694z"/><path fill="#000" d="M87.064 381.575a16.246 16.246 0 0 1 2.898 8.694 16.249 16.249 0 0 1-2.898 8.694 16.249 16.249 0 0 1-2.898-8.694 16.246 16.246 0 0 1 2.898-8.694zM52.287 381.575a16.246 16.246 0 0 1 2.898 8.694 16.249 16.249 0 0 1-2.898 8.694 16.25 16.25 0 0 1-2.898-8.694 16.247 16.247 0 0 1 2.898-8.694z"/></g><path fill="#DFD7D5" d="M491.576 388.477v114.511H335.424V388.477c0-43.122 34.954-78.477 78.076-78.477 21.621 0 41.079 8.768 55.254 22.822 14.054 14.173 22.822 34.033 22.822 55.655z"/><path fill="#C4B3AF" d="M491.576 388.477v114.511H413.5V310c21.621 0 41.079 8.768 55.254 22.822 14.054 14.173 22.822 34.033 22.822 55.655z"/><path fill="#FFE470" d="M347.436 430.518c0 6.606-5.406 12.011-12.012 12.011-6.607 0-12.012-5.405-12.012-12.011 0-2.162.601-4.205 1.561-6.006l10.451-18.018 10.451 18.018c.96 1.801 1.561 3.844 1.561 6.006z"/><path fill="#FF7CB9" d="M323.412 442.529h24.024v60.459h-24.024v-60.459z"/><path fill="#FDBF00" d="M347.436 430.518c0 6.606-5.406 12.011-12.012 12.011v-36.035l10.451 18.018c.96 1.801 1.561 3.844 1.561 6.006z"/><path fill="#FF5CA8" d="M335.424 442.529h12.012v60.459h-12.012v-60.459z"/><path fill="#FFE470" d="M503.588 430.518c0 6.606-5.405 12.011-12.012 12.011-6.606 0-12.012-5.405-12.012-12.011 0-2.162.601-4.205 1.561-6.006l10.451-18.018 10.451 18.018c.96 1.801 1.561 3.844 1.561 6.006z"/><path fill="#FF7CB9" d="M479.564 442.529h24.024v60.459h-24.024v-60.459z"/><path fill="#FDBF00" d="M503.588 430.518c0 6.606-5.405 12.011-12.012 12.011v-36.035l10.451 18.018c.96 1.801 1.561 3.844 1.561 6.006z"/><path fill="#FF5CA8" d="M491.576 442.529h12.012v60.459h-12.012v-60.459z"/><path fill="#EDE9E8" d="M311 490.977h205V515H311v-24.023z"/><path fill="#D2C5C2" d="M413.5 490.977H516V515H413.5v-24.023z"/><path fill="#B8281E" d="M378.266 381.87v-35.034h70.068v70.068h-70.068V381.87zm7.785 31.077c1.965-.234 2.275-.273 2.786-.353 2.854-.449 4.123-.755 5.718-1.377l.607-.237c3.369-1.323 6.329-2.989 8.747-4.925 1.757-1.407 3.45-3.069 4.799-4.713.206-.251.454-.55.551-.664.098-.114.372-.468.611-.785 1.302-1.736 2.579-3.748 3.794-5.979.201-.37 1.484-2.94 1.947-3.899.998-2.072 1.358-2.796 1.405-2.825.028-.017 2.128-.046 4.666-.065 4.777-.035 8.206-.142 9.189-.285.312-.046.729-.101.927-.122.198-.022.4-.068.448-.104.079-.058.089-.745.089-6.039.001-4.421-.016-5.985-.065-6.016-.036-.022-1.252-.054-2.702-.07-3.246-.036-4.828-.134-6.867-.426-.531-.076-.65-.11-.65-.189a.26.26 0 0 1 .05-.152c.027-.03.317-.574.645-1.21.83-1.608 1.276-2.337 2.159-3.523 2.101-2.825 5.025-5.137 7.779-6.154 1.832-.676 2.95-.864 5.14-.865.756 0 1.092-.02 1.141-.069.1-.101.1-11.949 0-12.05-.052-.051-.594-.069-2.094-.067-4.208.005-6.372.317-9.135 1.319-4.193 1.52-8.48 4.374-11.519 7.668-.801.867-1.093 1.216-1.87 2.231-.547.715-1.844 2.607-1.949 2.844a3.436 3.436 0 0 1-.159.29c-.749 1.223-2.02 3.787-2.777 5.604-.132.317-.264.629-.293.693-.029.063-.223.544-.432 1.068a62.342 62.342 0 0 1-.431 1.069c-.088.192-.412 1.051-1.242 3.293l-.88 2.368-.166.433c-.326.86-.633 1.652-.772 1.993a48.251 48.251 0 0 1-1.086 2.513c-1.694 3.714-3.459 6.716-5.572 9.473-.946 1.236-1.043 1.352-1.998 2.384-1.807 1.95-3.713 3.447-5.603 4.399-1.72.866-2.838 1.164-5.092 1.359-.394.035-.751.091-.794.126-.063.053-.077 1.132-.077 6.055 0 3.295.017 6.008.039 6.03.054.054.161.049.988-.049z"/><mask id="a" width="71" height="71" x="378" y="346" maskUnits="userSpaceOnUse"><path fill="#000" d="M378.266 381.87v-35.034h70.068v70.068h-70.068V381.87zm7.785 31.077c1.965-.234 2.275-.273 2.786-.353 2.854-.449 4.123-.755 5.718-1.377l.607-.237c3.369-1.323 6.329-2.989 8.747-4.925 1.757-1.407 3.45-3.069 4.799-4.713.206-.251.454-.55.551-.664.098-.114.372-.468.611-.785 1.302-1.736 2.579-3.748 3.794-5.979.201-.37 1.484-2.94 1.947-3.899.998-2.072 1.358-2.796 1.405-2.825.028-.017 2.128-.046 4.666-.065 4.777-.035 8.206-.142 9.189-.285.312-.046.729-.101.927-.122.198-.022.4-.068.448-.104.079-.058.089-.745.089-6.039.001-4.421-.016-5.985-.065-6.016-.036-.022-1.252-.054-2.702-.07-3.246-.036-4.828-.134-6.867-.426-.531-.076-.65-.11-.65-.189a.26.26 0 0 1 .05-.152c.027-.03.317-.574.645-1.21.83-1.608 1.276-2.337 2.159-3.523 2.101-2.825 5.025-5.137 7.779-6.154 1.832-.676 2.95-.864 5.14-.865.756 0 1.092-.02 1.141-.069.1-.101.1-11.949 0-12.05-.052-.051-.594-.069-2.094-.067-4.208.005-6.372.317-9.135 1.319-4.193 1.52-8.48 4.374-11.519 7.668-.801.867-1.093 1.216-1.87 2.231-.547.715-1.844 2.607-1.949 2.844a3.436 3.436 0 0 1-.159.29c-.749 1.223-2.02 3.787-2.777 5.604-.132.317-.264.629-.293.693-.029.063-.223.544-.432 1.068a62.342 62.342 0 0 1-.431 1.069c-.088.192-.412 1.051-1.242 3.293l-.88 2.368-.166.433c-.326.86-.633 1.652-.772 1.993a48.251 48.251 0 0 1-1.086 2.513c-1.694 3.714-3.459 6.716-5.572 9.473-.946 1.236-1.043 1.352-1.998 2.384-1.807 1.95-3.713 3.447-5.603 4.399-1.72.866-2.838 1.164-5.092 1.359-.394.035-.751.091-.794.126-.063.053-.077 1.132-.077 6.055 0 3.295.017 6.008.039 6.03.054.054.161.049.988-.049z"/></mask><g mask="url(#a)"><path fill="#4D0A0A" d="M413.5 346.836h34.834v70.068H413.5z"/></g><g clip-path="url(#clip3)"><path fill="#ACCFDD" d="M413.834 186a2.685 2.685 0 0 1-2.586-3.414c.914-3.241 1.665-6.694.981-9.979-.403-1.939-1.314-3.87-2.276-5.915-1.593-3.377-3.239-6.871-2.878-10.955.295-3.363 1.9-6.207 3.661-9.066l.103-.169c1.397-2.267 2.717-4.406 3.053-6.634.252-1.672-.285-3.85-1.778-4.591a2.684 2.684 0 1 1 2.389-4.809c3.416 1.697 5.349 5.892 4.699 10.201-.5 3.312-2.248 6.148-3.79 8.65l-.103.168c-1.464 2.376-2.691 4.522-2.884 6.72-.233 2.638 1.04 5.338 2.386 8.196 1.053 2.237 2.143 4.55 2.677 7.108.921 4.428-.024 8.82-1.07 12.531a2.688 2.688 0 0 1-2.584 1.958z"/><path fill="#CC6D0E" d="M412.5 124.493h-3.711c-2.536 0-7.063 7.824-7.063 12.167a4.591 4.591 0 0 0 8.085 2.975 1.104 1.104 0 0 1 1.667 0 4.568 4.568 0 0 0 3.492 1.616 4.59 4.59 0 0 0 4.591-4.591c0-4.343-4.525-12.167-7.061-12.167z"/><path fill="#FFA436" d="M410.644 42.044c-19.308 0-34.959 15.653-34.959 34.96 0 28.488 24.689 52.775 34.959 52.775 10.269 0 34.96-24.287 34.96-52.775 0-19.308-15.653-34.96-34.96-34.96z"/><path fill="#CC6D0E" d="M410.644 42.044c-.741 0-1.476.026-2.206.071 16.111 1.14 28.867 16.322 28.867 34.89 0 26.613-18.989 49.556-28.867 52.462.791.205 1.53.312 2.206.312 10.269 0 34.96-24.287 34.96-52.775 0-19.308-15.653-34.96-34.96-34.96z"/><path fill="#4E5173" d="M429.463 74.565l-3.11-7.447a5.745 5.745 0 0 0-5.312-3.538 5.777 5.777 0 0 0-4.176 1.795 5.78 5.78 0 0 0-1.573 4.266l.428 8.059a7.15 7.15 0 0 0 7.143 6.774 7.136 7.136 0 0 0 5.953-3.187 7.138 7.138 0 0 0 .647-6.722zM405.995 69.64a5.786 5.786 0 0 0-1.571-4.265 5.781 5.781 0 0 0-4.177-1.795 5.742 5.742 0 0 0-5.311 3.538l-3.111 7.447a7.135 7.135 0 0 0 .646 6.722 7.153 7.153 0 0 0 13.098-3.586l.426-8.06zM410.644 89.422c-3.521 0-6.175 4.207-6.175 9.785 0 5.577 2.654 9.784 6.175 9.784 3.52 0 6.175-4.207 6.175-9.784 0-5.578-2.655-9.784-6.175-9.784z"/><path fill="#ACCFDD" d="M335.835 166.721a2.687 2.687 0 0 1-2.281-4.099c2.584-4.173 1.321-10.113.145-14.217-.19-.666-.389-1.334-.588-2.004-1.502-5.065-3.056-10.301-1.941-15.786.531-2.605 1.618-4.968 2.669-7.253 1.353-2.939 2.631-5.716 2.396-8.447-.195-2.275-1.428-4.483-2.898-6.925l-.104-.171c-1.536-2.554-3.28-5.449-3.777-8.816-.644-4.371 1.28-8.63 4.679-10.358a2.685 2.685 0 1 1 2.433 4.788c-1.512.769-2.056 3.04-1.799 4.786.34 2.303 1.664 4.503 3.067 6.83l.102.172c1.755 2.915 3.354 5.817 3.648 9.234.356 4.148-1.283 7.71-2.868 11.154-.966 2.099-1.879 4.081-2.285 6.078-.848 4.17.452 8.549 1.827 13.186.204.686.407 1.372.602 2.053 1.455 5.086 2.964 12.54-.741 18.523a2.686 2.686 0 0 1-2.286 1.272z"/><path fill="#50B596" d="M337.523 82.448h-3.712c-2.536 0-7.061 7.823-7.061 12.168a4.59 4.59 0 0 0 4.59 4.59 4.568 4.568 0 0 0 3.493-1.615 1.104 1.104 0 0 1 1.669 0 4.566 4.566 0 0 0 3.492 1.616 4.591 4.591 0 0 0 4.591-4.59c0-4.346-4.527-12.17-7.062-12.17z"/><path fill="#81EBC7" d="M335.667 0c-19.308 0-34.96 15.652-34.96 34.96 0 28.488 24.69 52.775 34.96 52.775s34.959-24.287 34.959-52.775C370.627 15.652 354.975 0 335.667 0z"/><path fill="#50B596" d="M335.667 0c-.741 0-1.476.026-2.205.071 16.109 1.138 28.865 16.322 28.865 34.89 0 26.612-18.987 49.556-28.865 52.46.789.206 1.53.314 2.205.314 10.27 0 34.96-24.287 34.96-52.775 0-19.308-15.652-34.96-34.96-34.96z"/><path fill="#4E5173" d="M354.485 34.69l-3.11-7.448a5.741 5.741 0 0 0-5.312-3.536 5.785 5.785 0 0 0-4.176 1.793 5.787 5.787 0 0 0-1.572 4.266l.427 8.059a7.153 7.153 0 1 0 13.743-3.135zM331.018 29.765a5.778 5.778 0 0 0-1.572-4.266 5.782 5.782 0 0 0-4.176-1.793 5.742 5.742 0 0 0-5.312 3.536l-3.11 7.447a7.138 7.138 0 0 0 .647 6.722 7.152 7.152 0 0 0 13.096-3.586l.427-8.06zM335.667 49.547c-3.521 0-6.176 4.207-6.176 9.784 0 5.579 2.655 9.785 6.176 9.785 3.521 0 6.175-4.206 6.175-9.785 0-5.577-2.654-9.784-6.175-9.784z"/></g><defs><clipPath id="clip0"><path fill="#fff" d="M0 0h311.71v440H0z" transform="translate(69 75)"/></clipPath><clipPath id="clip1"><path fill="#fff" d="M0 0h139.211v139.211H0z" transform="rotate(28.135 -54.25 562.09)"/></clipPath><clipPath id="clip2"><path fill="#fff" d="M0 0h174v174H0z" transform="translate(0 341)"/></clipPath><clipPath id="clip3"><path fill="#fff" d="M0 0h186v186H0z" transform="translate(280)"/></clipPath></defs></svg>