<svg xmlns="http://www.w3.org/2000/svg" fill="none" viewBox="0 0 155 219"><path fill="#1572B6" fill-rule="evenodd" d="M0 43.027h155l-14.118 158.23-63.481 17.609-63.283-17.559L0 43.027z" clip-rule="evenodd"/><path fill="#33A9DC" fill-rule="evenodd" d="M77.5 205.436l51.252-14.227 12.08-135.2H77.5v149.427z" clip-rule="evenodd"/><path fill="#131313" fill-rule="evenodd" d="M121.445 8.108H108.57l13.372 14.525v6.914h-27.54v-8.108h13.372L94.402 6.914V0h27.043v8.108zm-32.511 0H76.057l13.373 14.525v6.914H61.89v-8.108h13.372L61.89 6.914V0h27.042v8.108zm-32.164.348H42.9V21.14h13.87v8.457H33.008V0H56.77v8.456z" clip-rule="evenodd"/><path fill="#fff" fill-rule="evenodd" d="M45.536 76.802c2.485-2.388 4.126-3.034 9.843-3.581 3.082-.299 3.927-.697 6.064-2.886 1.939-1.94 3.182-2.835 5.32-3.73 2.684-1.144 4.523-1.393 10.041-1.293 5.32.1 8.352.447 12.03 1.392 4.474 1.194 6.711 2.04 9.545 3.731 3.082 1.84 5.468 3.681 3.778 2.885l-.597-.298c-.149-.1-1.441-.498-3.927-1.244-4.225-1.293-8.65-1.542-12.925-.696-6.065 1.194-11.036 3.581-14.913 7.113l-.945.895h-6.263c-3.43 0-9.098 0-12.577-.05-3.63 0-6.314-.099-6.314-.149 0-.149.995-1.243 1.84-2.089zm-17.002 29.547c.2-1.542.597-3.134 1.144-4.178l.199-.349.795.796c.746.746 2.088 1.741 2.933 2.139.199.1.795.348 1.392.498.895.298 1.193.348 2.883.348 2.088 0 2.734-.1 4.275-.846 1.193-.547 1.74-1.044 2.188-1.84.596-1.194.397-2.637-.448-3.482-.944-.945-2.734-1.393-5.667-1.393-3.58 0-6.363.497-7.755 1.343-.298.199-.596.348-.646.348-.1 0-.15-.1-.796-1.79-1.69-4.428-1.69-4.477-1.69-5.422 0-.647.05-1.045.249-1.443.547-1.194 1.243-1.691 3.032-2.139 1.442-.348 1.64-.547 1.541-1.442-.05-.349-.1-.647-.149-.697-.1-.199-1.442 0-2.237.249-1.292.448-1.193.497-1.094-.249.15-1.243.498-1.99 1.442-2.885a6.869 6.869 0 011.74-1.293c1.64-.796 1.939-.796 8.55-.796h5.966l.447.696c.994 1.592 2.635 2.09 4.325 1.244.646-.299.994-.696 1.491-1.592l.2-.398 20.48.05.647.299c1.64.746 2.386 2.785 1.69 4.576-.299.696-.497 1.044-1.293 1.99-1.839 2.138-4.275 3.084-7.407 2.984-1.79-.05-1.839 0-1.392 1.194 1.541 4.079 1.442 7.909-.348 11.441-1.441 2.885-3.629 4.924-6.71 6.267-2.387 1.045-3.48 1.144-11.037 1.244-8.848.099-9.992.199-11.88.746-1.641.497-2.635 1.094-3.779 2.338-.348.348-.646.696-.646.696-.05 0-.149-.099-.298-.249-.348-.398-1.143-1.94-1.491-2.835-.746-1.94-1.044-4.328-.846-6.168zm29.927 69.341c-.398.646-1.044 1.989-1.343 2.835-.099.199-.298.945-.447 1.592-.298 1.144-.348 1.442-.348 3.531 0 1.244.05 2.438.1 2.637.099.547-.05.497-.995-.1a16.822 16.822 0 00-1.193-.796c-1.044-.696-5.07-3.78-6.015-4.626-2.834-2.437-5.916-5.571-8.103-8.356-1.491-1.841-4.623-6.616-5.468-8.258-2.187-4.377-3.629-10.097-3.828-15.121-.199-5.372 1.64-11.54 4.872-16.266 1.491-2.189 3.231-4.079 6.164-6.765 2.883-2.636 8.202-6.317 12.776-9.003 3.53-2.04 3.977-2.338 5.567-3.482 2.536-1.89 4.723-3.98 6.413-6.268 1.343-1.741 2.436-4.626 2.685-7.113.149-1.343.05-4.079-.2-5.024-.148-.497-.148-.696-.049-.796.1-.05.597-.248 1.143-.348.547-.15 1.442-.448 1.94-.646l.944-.398.845.895c1.54 1.691 2.982 4.178 3.58 6.218.546 1.79.695 2.835.745 4.825.149 5.024-1.392 10.296-4.524 15.271-1.541 2.487-4.225 5.969-7.208 9.401-.398.448-1.193 1.393-1.84 2.089-2.634 3.034-6.462 8.158-7.804 10.595-.199.348-.447.796-.646.995-.547.796-2.536 4.974-2.983 6.317-.447 1.244-.895 3.233-1.193 5.323-.199 1.343-.199 4.825.05 6.168.894 5.024 2.684 8.904 5.766 12.386.547.596.994 1.193.994 1.293 0 .249-.198.646-.397.995zm18.393-19.151c.1.796.149 1.542.199 1.641.05.249-.249.498-1.89 1.443a85.426 85.426 0 00-3.877 2.587c-3.032 2.089-7.954 6.715-9.694 9.053-.497.646-.994 1.193-1.143 1.193-.1 0-.497-.397-.944-.895-2.685-2.885-4.624-7.312-5.17-11.888-.448-3.632.696-8.705 2.883-13.083 2.237-4.427 6.96-10.794 12.328-16.713 2.933-3.183 3.977-4.477 5.27-6.466 1.093-1.592 2.784-4.776 3.48-6.367 1.043-2.438 1.938-5.323 2.236-7.313.299-2.139.349-5.571.1-7.063-.746-4.576-1.989-7.362-4.623-10.346-.299-.349-.547-.697-.547-.796 0-.05.199-.299.447-.547.249-.25.746-.846 1.144-1.344.944-1.293.895-1.243 1.292-1.193.845.199 2.983 1.044 4.424 1.74 3.729 1.841 6.712 4.328 9.595 8.059 1.292 1.691 2.983 5.074 3.977 8.008.994 2.935 1.193 6.069.696 9.352-.2 1.144-.796 3.333-1.094 3.979-.1.199-.348.796-.596 1.343-.697 1.692-2.884 5.223-4.425 7.263-1.491 1.94-3.828 4.676-5.22 6.168-2.734 2.835-5.319 6.566-6.71 9.6-1.74 3.83-2.536 8.556-2.138 12.585zm31.467-16.017c-1.64 2.039-3.629 4.079-4.872 4.974-1.292.945-6.91 3.781-9.445 4.825-.547.199-3.181 1.393-4.822 2.139-.397.199-1.193.547-1.79.796-.994.448-5.468 2.636-6.86 3.333-.845.447-.994.447-1.093-.05-.15-.945-.199-3.93-.1-5.024.796-5.919 3.232-10.496 8.75-16.166 3.927-4.029 6.611-7.86 9.047-12.635 1.59-3.134 2.635-6.715 2.684-9.202.05-1.194-.198-3.93-.397-5.074-.448-2.437-1.492-5.372-2.784-7.71-.895-1.691-3.032-4.825-4.325-6.367-.646-.746-1.64-1.79-2.237-2.288-1.094-.895-3.53-2.587-4.971-3.432-.994-.597-3.53-1.692-4.921-2.14-.597-.198-1.194-.447-1.243-.497-.1-.05-.15-.398-.15-.796 0-.945-.248-1.89-.695-2.686-.2-.348-.348-.696-.299-.746.15-.149 4.673-.05 6.015.1 4.574.597 7.01 1.392 11.384 3.63 7.159 3.682 13.273 9.85 16.753 16.764 1.193 2.388 2.038 4.875 2.436 7.461.944 5.771.994 11.342.199 15.669-.299 1.642-.845 3.631-1.492 5.571-.646 2.04-1.242 3.383-2.585 6.019-.298.746-1.739 2.985-2.187 3.532zm17.151-17.31c-1.343 3.283-3.928 7.411-6.363 10.246-1.691 1.99-6.811 6.666-6.811 6.218 0-.099.298-.696.646-1.343 1.193-2.238 2.585-5.919 3.232-8.605.149-.697.497-1.99.745-2.786.895-3.283 1.144-6.118.895-10.645-.249-4.626-1.292-9.749-2.635-13.032-.994-2.487-2.734-5.571-3.927-7.064-3.38-4.178-5.766-6.566-9.395-9.301-3.48-2.637-6.86-4.427-10.837-5.82-4.474-1.542-7.507-1.94-13.97-1.89-2.187 0-3.827 0-3.827-.05-.15-.249 2.486-2.04 4.524-2.985 2.137-.995 3.132-1.392 5.717-2.039 3.082-.796 7.158-.945 10.538-.398 5.27.895 11.285 3.532 15.659 6.864 2.486 1.89 5.866 5.124 7.457 7.163.398.498.945 1.144 1.193 1.443.696.746 1.889 2.388 2.734 3.631.398.597.845 1.293 1.044 1.542.398.597 1.243 2.239 1.989 3.93 1.541 3.482 2.734 7.809 3.231 12.037a26.823 26.823 0 01-1.839 12.884z" clip-rule="evenodd"/><path fill="#fff" d="M55.379 73.22l.047.498-.047-.497zm6.064-2.885l-.353-.353-.004.004.357.35zm5.32-3.73l.193.461.002-.001-.196-.46zm10.041-1.293l.01-.5-.01.5zm12.03 1.392l.13-.483h-.005l-.125.483zm9.545 3.731l.256-.43-.256.43zm3.778 2.885l-.224.447.011.005.213-.452zm-.597-.298l-.277.416.026.017.028.014.223-.447zm-3.927-1.244l-.146.478.002.001.144-.479zm-12.925-.696l.097.49-.097-.49zm-14.913 7.113l-.337-.37-.007.007.344.363zm-.945.895v.5h.2l.144-.137-.344-.363zm-18.84-.05l.007-.5h-.007v.5zm-20.332 23.131l-.434-.248-.005.008-.004.008.443.232zm.199-.349l.353-.353-.463-.463-.325.568.435.248zm.795.796l.354-.353-.354.353zm2.933 2.139l.224-.447-.011-.005-.213.452zm1.392.498l.158-.475-.018-.006-.019-.004-.121.485zm7.158-.498l-.208-.454-.01.004.218.45zm2.188-1.84l.435.245.006-.011.006-.011-.447-.223zm-.448-3.482l.354-.354-.354.354zm-13.422-.05l-.26-.427-.009.005-.008.006.277.416zm-1.441-1.443l-.468.179.468-.178zm-1.442-6.864l.447.224.004-.008.003-.008-.454-.208zm3.032-2.139l-.117-.486-.004.001.121.485zm1.541-1.442l.497-.056v-.007l-.002-.008-.495.07zm-.149-.697l-.447.224.036.072.057.058.354-.354zm-2.237.249l-.15-.477-.006.002-.008.002.164.473zm-1.094-.249l.496.066.001-.006-.497-.06zm1.442-2.885l.344.363.01-.01-.354-.353zm1.74-1.293l-.218-.45-.01.005-.01.005.238.44zm14.516-.796l.42-.27-.147-.23h-.273v.5zm.447.696l.424-.265-.003-.005-.42.27zm4.325 1.244l-.21-.454-.007.003-.007.004.224.447zm1.491-1.592l.438.243.005-.01.005-.01-.448-.223zm.2-.398v-.5h-.31l-.138.277.447.223zm20.48.05l.21-.454-.1-.046h-.108l-.002.5zm.647.299l-.21.453.003.002.207-.456zm1.69 4.576l.46.197.003-.008.003-.008-.466-.181zm-1.293 1.99l.38.325.003-.004-.383-.322zm-7.407 2.984l.016-.5h-.002l-.014.5zm-1.392 1.194l-.468.175v.002l.468-.177zm-.348 11.441l-.446-.226v.002l.446.224zm-6.71 6.267l-.2-.458h-.001l.2.458zm-11.037 1.244l.006.5h.001l-.007-.5zm-11.88.746l-.14-.481-.006.002.145.479zm-3.779 2.338l.354.353.007-.007.007-.008-.368-.338zm-.646.696v.5h.23l.15-.175-.38-.325zm-.298-.249l-.377.329.011.013.012.012.354-.354zm-1.491-2.835l-.467.179v.002l.466-.181zm27.738 66.008l.448.223.014-.027.01-.03-.472-.166zm-.447 1.592l.484.126.002-.007.001-.007-.487-.112zm-.248 6.168l.491-.09-.003-.016-.004-.015-.484.121zm-.995-.1l-.3.4.016.012.017.011.267-.423zm-1.193-.796l-.277.416.01.007.01.006.257-.429zm-6.015-4.626l.334-.372-.008-.007-.326.379zm-8.103-8.356l.393-.309-.004-.006-.389.315zm-5.468-8.258l-.447.224.002.005.445-.229zm-3.828-15.121l-.5.018v.002l.5-.02zm4.872-16.266l.413.282-.413-.282zm6.164-6.765l-.337-.369.337.369zm12.776-9.003l-.25-.433-.003.002.253.431zm5.567-3.482l.292.406.007-.005-.299-.401zm6.413-6.268l-.396-.305-.006.008.402.297zm2.685-7.113l-.497-.055v.005l.497.05zm-.2-5.024l.484-.127-.002-.008-.002-.008-.48.143zm-.049-.796l-.224-.447-.072.036-.058.058.354.353zm1.143-.348l.09.492.021-.004.021-.005-.132-.483zm1.94-.646l.185.464.008-.004-.194-.46zm.944-.398l.363-.344-.238-.252-.32.135.195.46zm.845.895l.37-.337-.007-.006-.363.343zm3.58 6.218l-.48.14v.006l.48-.146zm.745 4.825l-.5.012v.003l.5-.015zm-4.524 15.271l-.423-.267-.002.003.425.264zm-7.208 9.401l.374.332.003-.004-.377-.328zm-1.84 2.089l-.366-.34-.006.006-.005.006.377.328zm-7.804 10.595l.434.248.004-.007-.438-.241zm-.646.995l-.354-.353-.032.032-.026.038.412.283zm-2.983 6.317l.47.17.004-.012-.474-.158zm-1.193 5.323l.494.073v-.003l-.494-.07zm.05 6.168l.492-.088v-.003l-.492.091zm5.766 12.386l-.374.331.005.006.37-.337zm19.189-15.222l.49-.098-.013-.065-.03-.06-.447.223zm-1.89 1.443l-.249-.433-.009.005-.008.005.267.423zm-3.877 2.587l.284.411.005-.003-.289-.408zm-9.694 9.053l.397.304.005-.006-.402-.298zm-2.087.298l.371-.334-.005-.007-.366.341zm-5.17-11.888l.496-.06v-.001l-.496.061zm2.883-13.083l-.446-.225-.001.002.447.223zm12.328-16.713l-.368-.339-.002.003.37.336zm5.27-6.466l-.413-.284-.007.011.42.273zm3.48-6.367l.458.2.001-.004-.46-.196zm2.236-7.313l.495.075v-.006l-.495-.069zm.1-7.063l-.494.08v.002l.494-.082zm-4.623-10.346l-.38.325.005.005.375-.33zm1.044-2.687l.39.313.007-.009.007-.009-.404-.295zm1.292-1.193l.115-.487-.026-.006-.027-.003-.062.496zm4.424 1.74l.222-.448-.004-.001-.218.45zm9.595 8.059l.397-.304-.002-.002-.395.306zm4.673 17.36l.492.086.002-.011-.494-.075zm-1.094 3.979l.447.224.004-.007.003-.007-.454-.21zm-.596 1.343l-.456-.206-.004.008-.003.008.463.19zm-4.425 7.263l.397.305.002-.004-.399-.301zm-5.22 6.168l.36.347.006-.006-.365-.341zm-6.71 9.6l-.455-.208v.001l.454.207zm24.457 1.542l-.292-.406-.003.003.295.403zm-9.445 4.825l.171.47.01-.004.01-.004-.19-.462zm-4.822 2.139l-.207-.455-.008.004-.008.004.223.447zm-1.79.796l-.192-.462-.013.006.206.456zm-6.86 3.333l-.223-.448-.01.006.233.442zm-1.093-.05l-.494.078.002.01.001.01.49-.098zm-.1-5.024l-.495-.067-.002.011v.011l.497.045zm8.75-16.166L87.73 135l.358.349zm9.047-12.635l.446.227v-.001l-.446-.226zm2.684-9.202l-.5-.021v.011l.5.01zm-.397-5.074l.492-.085v-.005l-.492.09zm-2.784-7.71l-.442.234.004.008.438-.242zm-4.325-6.367l.383-.321-.005-.006-.378.327zm-2.237-2.288l.32-.384-.003-.003-.317.387zm-4.971-3.432l-.257.428.004.003.253-.431zm-4.921-2.14l-.159.475.005.002.153-.476zm-1.243-.497l.353-.353-.057-.057-.073-.037-.223.447zm-.845-3.482l.436-.245-.002-.002-.434.247zm-.299-.746l.354.354-.354-.354zm6.015.1l.065-.496-.01-.001-.055.497zm11.384 3.63l.229-.444-.229.445zm16.753 16.764l.447-.223v-.002l-.447.225zm2.436 7.461l-.494.076v.005l.494-.081zm.199 15.669l-.492-.09v.001l.492.089zm-1.492 5.571l-.474-.158-.002.007.476.151zm-2.585 6.019l-.445-.227-.01.021-.009.021.464.185zm8.601-3.532l-.38-.325-.002.002.382.323zm-6.165 4.875l.441.237.001-.002-.442-.235zm3.232-8.605l.486.117.002-.012-.488-.105zm.745-2.786l.477.149.003-.008.003-.009-.483-.132zm.895-10.645l-.499.027v.001l.499-.028zm-2.635-13.032l-.464.186.002.003.462-.189zm-3.927-7.064l.391-.312-.002-.002-.389.314zm-9.395-9.301l-.302.398.001.001.301-.4zm-10.837-5.82l.165-.472h-.002l-.163.472zm-13.97-1.89v.5h.005l-.004-.5zm-3.827-.05h.5V79l-.071-.118-.43.257zm4.524-2.985l.21.454-.21-.454zm5.717-2.039l.12.485h.005l-.125-.485zm10.538-.398l.084-.493h-.004l-.08.493zm15.659 6.864l-.303.398h.001l.302-.398zm7.457 7.163l-.394.308.004.005.39-.313zm1.193 1.443l-.384.32.009.01.01.01.365-.34zm2.734 3.631l.416-.277-.002-.004-.414.281zm1.044 1.542l.416-.277-.012-.018-.013-.017-.391.312zm1.989 3.93l-.458.201v.001l.458-.202zm3.231 12.037l.497-.052-.001-.006-.496.058zM45.882 77.163c1.215-1.167 2.189-1.877 3.536-2.373 1.37-.504 3.152-.798 6.008-1.072l-.095-.995c-2.861.274-4.757.576-6.258 1.129-1.524.56-2.613 1.369-3.884 2.59l.693.72zm9.545-3.445c1.547-.15 2.604-.329 3.553-.78.95-.45 1.747-1.154 2.821-2.253l-.715-.699c-1.064 1.09-1.758 1.68-2.535 2.05-.78.37-1.685.538-3.22.687l.096.995zm6.37-3.029c1.904-1.906 3.094-2.758 5.159-3.623l-.387-.922c-2.21.926-3.506 1.864-5.48 3.838l.708.707zm5.161-3.624c2.586-1.102 4.34-1.353 9.837-1.254l.018-1c-5.539-.1-7.464.148-10.247 1.334l.392.92zm9.837-1.254c5.295.1 8.286.445 11.915 1.378l.249-.969c-3.728-.958-6.802-1.308-12.145-1.408l-.02 1zm11.91 1.376c4.45 1.188 6.639 2.019 9.418 3.677l.512-.858c-2.888-1.724-5.174-2.585-9.672-3.785l-.258.966zm9.418 3.677c1.53.914 2.88 1.824 3.63 2.399.188.144.331.261.428.35.048.044.079.075.095.093.028.032-.004.004-.03-.064a.475.475 0 01.286-.606.416.416 0 01.168-.025c.022.002.032.005.026.004a2.483 2.483 0 01-.356-.147l-.426.904c.213.1.4.178.543.214.039.01.087.019.14.023a.587.587 0 00.241-.031.525.525 0 00.312-.693.814.814 0 00-.156-.243 2.183 2.183 0 00-.171-.17 8.077 8.077 0 00-.491-.403c-.791-.606-2.175-1.537-3.727-2.463l-.513.858zm4.258 2.009l-.597-.299-.447.895.596.298.448-.894zm-.543-.267a1.15 1.15 0 00-.201-.1 6.134 6.134 0 00-.239-.088c-.189-.065-.448-.15-.775-.253-.656-.206-1.604-.493-2.846-.866l-.288.958c1.243.373 2.185.658 2.834.862.325.103.572.183.746.243.087.03.151.055.196.072.058.023.048.024.018.004l.555-.832zM97.78 71.3c-4.302-1.317-8.81-1.57-13.169-.709l.194.981c4.192-.829 8.533-.586 12.682.684l.293-.956zm-13.168-.709c-6.14 1.209-11.199 3.632-15.154 7.234l.674.74c3.8-3.461 8.683-5.814 14.673-6.993l-.193-.98zm-15.161 7.24l-.945.896.688.726.945-.895-.688-.726zm-.6.76h-6.264v1h6.263v-1zm-6.264 0c-3.432 0-9.095 0-12.57-.05l-.015 1c3.485.05 9.156.05 12.585.05v-1zm-12.577-.05c-1.81 0-3.384-.025-4.504-.056a55.46 55.46 0 01-1.307-.049 8.969 8.969 0 01-.334-.022l-.04-.004-.015-.002.01.002a.402.402 0 01.035.01.496.496 0 01.34.472h-.999a.501.501 0 00.357.48c.04.013.075.02.091.022.04.007.085.012.129.016.09.008.217.017.373.025.314.016.768.034 1.332.05 1.13.03 2.713.055 4.532.055v-1zm-5.814.35a.44.44 0 01-.033.169c-.006.012-.007.013.001 0 .016-.026.047-.07.096-.132.096-.124.238-.292.413-.488.346-.39.8-.867 1.216-1.284l-.707-.707c-.428.428-.895.92-1.256 1.326-.18.203-.34.39-.456.539a2.746 2.746 0 00-.153.213 1.02 1.02 0 00-.064.118.594.594 0 00-.057.246h1zM29.03 106.413c.196-1.517.583-3.042 1.09-4.011l-.885-.463c-.587 1.12-.994 2.779-1.197 4.346l.992.128zm1.082-3.994l.199-.349-.869-.496-.198.349.868.496zm-.59-.243l.796.796.708-.707-.796-.796-.707.707zm.796.796c.777.777 2.165 1.81 3.074 2.238l.426-.905c-.782-.368-2.078-1.325-2.792-2.04l-.708.707zm3.063 2.232c.229.115.86.377 1.495.536l.242-.97a7.57 7.57 0 01-1.29-.46l-.447.894zm1.458.525c.456.152.792.252 1.24.308.432.054.959.066 1.801.066v-1c-.848 0-1.315-.013-1.678-.058-.348-.044-.609-.119-1.047-.265l-.316.949zm3.041.374c1.044 0 1.77-.024 2.437-.152.677-.13 1.269-.363 2.056-.744l-.436-.9c-.753.365-1.255.556-1.808.662-.564.108-1.205.134-2.249.134v1zm4.484-.891c1.264-.58 1.903-1.141 2.415-2.05l-.872-.49c-.384.682-.838 1.116-1.96 1.631l.417.909zm2.426-2.072c.681-1.363.473-3.044-.541-4.059l-.708.707c.676.676.866 1.881.354 2.905l.895.447zm-.541-4.059c-1.101-1.101-3.084-1.539-6.02-1.539v1c2.928 0 4.525.458 5.313 1.246l.707-.707zm-6.02-1.539c-1.812 0-3.432.126-4.785.362-1.343.234-2.457.584-3.23 1.054l.519.854c.619-.376 1.592-.697 2.883-.923 1.283-.224 2.844-.347 4.612-.347v-1zm-8.033 1.427a4.35 4.35 0 01-.487.279l-.01.004.028-.008a.447.447 0 01.1-.01v.999a.59.59 0 00.187-.032c.032-.011.064-.023.091-.035a2.7 2.7 0 00.185-.09c.133-.07.297-.166.46-.275l-.554-.832zm-.37.264a.423.423 0 01.315.145c.017.02.003.01-.05-.11-.099-.22-.267-.652-.592-1.504l-.935.357c.321.839.501 1.303.614 1.555.052.116.11.237.184.329a.587.587 0 00.465.228v-1zm-.327-1.469c-.849-2.222-1.264-3.322-1.469-3.986a4.12 4.12 0 01-.166-.697 4.226 4.226 0 01-.023-.56h-1c0 .232 0 .443.03.686.032.246.093.509.204.866.217.704.648 1.843 1.49 4.048l.934-.357zm-1.658-5.243c0-.625.05-.928.196-1.22l-.894-.446c-.252.504-.302.997-.302 1.666h1zm.203-1.235c.249-.542.51-.884.885-1.149.39-.275.938-.494 1.815-.713l-.243-.97c-.914.229-1.607.483-2.15.867-.557.394-.917.897-1.216 1.549l.91.416zm2.696-1.86c.364-.089.67-.172.92-.264.245-.092.474-.206.654-.375.408-.386.397-.891.346-1.346l-.994.11c.05.442-.012.483-.038.508-.038.036-.123.093-.317.165-.19.07-.45.143-.806.23l.235.971zm1.918-2a9.382 9.382 0 00-.079-.487 2.126 2.126 0 00-.05-.205.926.926 0 00-.041-.112.597.597 0 00-.12-.175l-.708.707c-.056-.057-.08-.111-.082-.116-.006-.013-.007-.019-.005-.01.006.017.014.05.025.106.022.11.046.26.07.433l.99-.141zm-.197-.85a.63.63 0 00-.407-.315 1.338 1.338 0 00-.302-.04c-.19-.007-.422.01-.657.04a9.09 9.09 0 00-1.467.31l.298.955c.366-.114.871-.22 1.293-.273.212-.027.384-.037.498-.033.06.002.079.007.073.006a.271.271 0 01-.068-.031.42.42 0 01-.155-.171l.894-.447zm-2.848 0c-.338.118-.554.198-.722.253-.08.026-.129.04-.157.045-.038.008.001-.006.072.008a.42.42 0 01.291.23c.041.086.032.15.033.122.001-.018.004-.051.014-.121.008-.059.023-.153.035-.247l-.991-.132c-.02.144-.053.34-.057.466a.73.73 0 00.061.337c.086.182.246.291.418.325a.823.823 0 00.33-.009c.083-.017.173-.044.263-.074.174-.057.43-.151.738-.258l-.328-.945zm-.433.284c.07-.588.184-1.025.375-1.412.19-.385.47-.75.914-1.17l-.688-.726c-.5.475-.866.932-1.123 1.454-.257.522-.392 1.079-.47 1.735l.992.119zm1.299-2.591a6.37 6.37 0 011.623-1.207l-.474-.88a7.363 7.363 0 00-1.857 1.38l.708.707zm1.604-1.197c.785-.381 1.21-.556 2.238-.648 1.077-.097 2.774-.098 6.094-.098v-1c-3.291 0-5.049 0-6.184.102-1.184.106-1.729.329-2.584.744l.436.9zm8.332-.746h5.966v-1h-5.966v1zm5.545-.23l.447.697.842-.54-.448-.697-.84.54zm.444.691c.55.882 1.303 1.494 2.186 1.751.884.258 1.846.146 2.787-.325l-.448-.894c-.75.375-1.452.436-2.06.26-.608-.178-1.173-.612-1.617-1.322l-.848.53zm4.959 1.433c.785-.363 1.199-.867 1.719-1.803l-.875-.486c-.474.855-.757 1.147-1.264 1.381l.42.908zm1.729-1.822L53.29 82l-.895-.447-.199.398.895.447zm-.25-.122l20.481.05.003-1-20.481-.05-.003 1zm20.273.004l.646.298.42-.907-.647-.299-.42.908zm.649.3c1.37.623 2.042 2.367 1.43 3.94l.933.362c.78-2.009-.04-4.344-1.95-5.213l-.413.91zm1.437 3.924c-.275.642-.444.948-1.215 1.864l.765.644c.82-.974 1.048-1.364 1.37-2.114l-.92-.394zm-1.212 1.86c-1.725 2.006-4.005 2.907-7.012 2.811l-.032 1c3.257.103 5.848-.886 7.802-3.159l-.758-.652zm-7.014 2.811c-.442-.012-.805-.02-1.082-.001-.245.016-.564.055-.793.253-.294.253-.286.602-.246.831.04.227.14.5.247.786l.937-.35c-.117-.311-.178-.492-.2-.61-.02-.114.028.002-.085.1-.049.042-.048.004.206-.012.221-.015.535-.01.988.003l.028-1zm-1.873 1.87c1.498 3.965 1.392 7.648-.327 11.039l.892.452c1.861-3.673 1.954-7.651.37-11.844l-.935.354zm-.328 11.041c-1.386 2.775-3.483 4.734-6.463 6.033l.4.916c3.183-1.387 5.461-3.507 6.958-6.502l-.895-.447zm-6.464 6.033c-1.157.506-1.977.776-3.434.937-1.487.165-3.621.215-7.408.265l.013 1c3.77-.05 5.96-.1 7.505-.271 1.576-.174 2.495-.477 3.725-1.015l-.401-.916zm-10.841 1.202c-8.823.099-10.045.195-12.015.765l.279.961c1.808-.524 2.872-.627 11.747-.726l-.011-1zm-12.02.767c-1.72.522-2.793 1.164-4.002 2.478l.736.677c1.079-1.173 1.994-1.724 3.556-2.198l-.29-.957zm-3.987 2.463c-.182.182-.35.363-.471.497l-.146.163-.04.047-.011.013a.018.018 0 00-.003.003l-.001.001v.001l.38.325.379.325a.01.01 0 01.002-.003l.01-.01.036-.042a12.529 12.529 0 01.572-.613l-.707-.707zm-.293.55a.45.45 0 01.219.058.116.116 0 01.011.008l-.012-.011a1.57 1.57 0 01-.064-.06c-.029-.027-.06-.059-.099-.097l-.707.707c.07.069.146.146.21.203.033.028.078.066.13.098a.588.588 0 00.312.094v-1zm.078-.078c-.128-.147-.388-.578-.679-1.133a17.065 17.065 0 01-.723-1.554l-.932.362c.183.471.478 1.098.769 1.655.281.538.593 1.077.812 1.328l.753-.658zm-1.4-2.685c-.719-1.868-1.006-4.176-.816-5.935l-.994-.108c-.207 1.922.102 4.389.876 6.401l.933-.358zm28.188 63.09c-.417.677-1.078 2.052-1.388 2.931l.943.332c.287-.813.918-2.124 1.296-2.739l-.851-.524zm-1.364 2.873c-.076.152-.162.44-.24.719-.083.3-.171.656-.247.984l.974.225c.073-.318.159-.659.237-.943a8.74 8.74 0 01.15-.487c.006-.015.01-.028.015-.037l.004-.01.002-.004-.895-.447zm-.484 1.69c-.15.575-.245.966-.3 1.486-.052.508-.064 1.13-.064 2.171h1c0-1.047.013-1.619.06-2.068.045-.439.123-.768.272-1.337l-.968-.252zm-.364 3.657c0 .628.013 1.244.032 1.73.009.242.02.455.032.622.011.149.026.306.05.406l.97-.242s-.01-.067-.022-.237a17.966 17.966 0 01-.031-.588 45.416 45.416 0 01-.031-1.691h-1zm.108 2.726c.01.061.016.1.017.124.002.029-.002.012.007-.028a.399.399 0 01.173-.238.39.39 0 01.254-.064c.028.004.032.01-.003-.005a1.811 1.811 0 01-.142-.071c-.13-.072-.305-.18-.542-.329l-.534.845c.236.149.434.271.594.36.14.077.32.169.497.192.1.013.263.013.421-.09a.599.599 0 00.256-.372c.042-.179.008-.379-.015-.503l-.983.179zm-.203-.589c-.416-.312-.979-.67-1.236-.824l-.514.857c.24.144.771.483 1.15.767l.6-.8zm-1.215-.812c-1.027-.684-5.035-3.754-5.96-4.582l-.666.745c.964.863 5.01 3.962 6.07 4.669l.556-.832zm-5.967-4.589c-2.813-2.42-5.872-5.531-8.036-8.286l-.786.617c2.21 2.816 5.317 5.973 8.17 8.427l.652-.758zm-8.04-8.292c-1.472-1.817-4.585-6.563-5.413-8.171l-.889.457c.863 1.675 4.014 6.479 5.525 8.343l.777-.629zm-5.41-8.166c-2.154-4.312-3.58-9.962-3.775-14.918l-1 .04c.202 5.092 1.66 10.882 3.88 15.325l.895-.447zm-3.775-14.917c-.195-5.258 1.61-11.322 4.785-15.965l-.826-.564c-3.288 4.808-5.162 11.081-4.959 16.566l1-.037zm4.785-15.965c1.46-2.144 3.17-4.005 6.089-6.678l-.676-.738c-2.947 2.699-4.718 4.619-6.24 6.853l.827.563zm6.088-6.678c2.847-2.603 8.133-6.263 12.692-8.941l-.506-.862c-4.588 2.694-9.94 6.395-12.86 9.065l.674.738zm12.689-8.939c3.536-2.043 4-2.351 5.61-3.509l-.584-.812c-1.572 1.13-2.003 1.419-5.526 3.455l.5.866zm5.616-3.514c2.566-1.913 4.79-4.036 6.517-6.372l-.805-.594c-1.655 2.24-3.804 4.296-6.31 6.164l.598.802zm6.51-6.363c1.406-1.824 2.53-4.801 2.786-7.369l-.995-.1c-.24 2.407-1.304 5.2-2.583 6.858l.792.611zm2.786-7.364c.078-.707.09-1.755.052-2.735-.037-.97-.125-1.94-.265-2.471l-.967.254c.11.414.196 1.284.233 2.255.037.96.023 1.951-.047 2.587l.994.11zm-.217-5.222a2.09 2.09 0 01-.098-.429c-.001-.027.003-.018-.006.011a.284.284 0 01-.071.119l-.708-.707c-.19.19-.223.431-.214.627.01.188.062.41.139.666l.958-.287zm-.305-.206l.007-.003a.995.995 0 01.096-.04 5.013 5.013 0 01.906-.26l-.179-.984a5.756 5.756 0 00-1.278.393l.448.894zm1.051-.313a22.636 22.636 0 001.993-.664l-.372-.929a21.66 21.66 0 01-1.884.629l.263.965zm2.001-.668l.945-.398-.388-.921-.945.398.388.921zm.387-.515l.845.895.727-.686-.845-.896-.727.687zm.84.889c1.494 1.64 2.895 4.062 3.468 6.021l.96-.28c-.62-2.12-2.103-4.673-3.69-6.415l-.739.674zm3.47 6.027c.532 1.741.675 2.74.724 4.691l1-.025c-.051-2.028-.206-3.118-.768-4.958l-.956.292zm.724 4.694c.146 4.91-1.36 10.086-4.447 14.989l.846.533c3.177-5.046 4.753-10.415 4.6-15.552l-.999.03zm-4.449 14.992c-1.52 2.455-4.186 5.914-7.16 9.337l.754.656c2.99-3.441 5.695-6.946 7.256-9.466l-.85-.527zm-7.157 9.333c-.415.467-1.188 1.387-1.832 2.081l.733.68c.649-.699 1.466-1.669 1.847-2.097l-.748-.664zm-1.843 2.093c-2.644 3.045-6.498 8.199-7.865 10.682l.876.482c1.317-2.392 5.119-7.485 7.744-10.508l-.755-.656zm-7.861 10.675c-.102.179-.208.367-.314.538-.111.179-.197.296-.252.352l.707.706c.144-.143.282-.349.395-.531.118-.19.235-.4.332-.569l-.868-.496zm-.624.96c-.301.438-.953 1.723-1.569 3.022-.62 1.31-1.242 2.716-1.476 3.42l.948.316c.213-.638.81-1.993 1.432-3.308.627-1.324 1.243-2.526 1.489-2.884l-.825-.566zm-3.041 6.431c-.464 1.288-.918 3.315-1.218 5.421l.99.141c.296-2.072.737-4.025 1.168-5.223l-.94-.339zm-1.218 5.418c-.105.711-.154 1.949-.148 3.16.006 1.208.068 2.454.2 3.173l.984-.182c-.115-.624-.178-1.791-.184-2.996-.006-1.201.044-2.376.137-3.008l-.989-.147zm.052 6.329c.91 5.104 2.735 9.071 5.885 12.63l.748-.663c-3.014-3.405-4.768-7.198-5.648-12.142l-.985.175zm5.89 12.636c.265.289.503.576.674.799a4.176 4.176 0 01.22.318c.002.002-.003-.007-.009-.024-.003-.01-.022-.062-.022-.137h1a.575.575 0 00-.032-.186.843.843 0 00-.04-.095 1.595 1.595 0 00-.084-.148 4.793 4.793 0 00-.238-.334c-.19-.25-.449-.56-.731-.868l-.738.675zm.863.956l-.002.018a.506.506 0 01-.013.059c-.014.05-.037.112-.069.186a4.926 4.926 0 01-.248.484l.869.496c.103-.181.213-.386.299-.586.079-.185.164-.425.164-.657h-1zm18-18.094c.049.391.085.769.117 1.072.015.148.03.283.044.389.007.052.015.104.025.15.005.029.022.113.061.192l.895-.447c.027.054.031.093.024.059a11.825 11.825 0 01-.055-.447c-.03-.294-.069-.687-.119-1.092l-.992.124zm.204 1.677a.25.25 0 01.026-.169c0-.001-.029.041-.152.136-.242.187-.696.469-1.522.945l.5.866c.814-.469 1.329-.784 1.634-1.02.15-.116.29-.243.383-.389a.755.755 0 00.112-.565l-.98.196zm-1.665.922c-.949.6-2.2 1.4-3.9 2.601l.578.817a84.512 84.512 0 013.856-2.572l-.534-.846zm-3.895 2.598c-1.545 1.064-3.554 2.762-5.389 4.48-1.832 1.714-3.524 3.48-4.422 4.686l.803.597c.842-1.132 2.48-2.848 4.302-4.553 1.819-1.702 3.787-3.362 5.274-4.387l-.567-.823zm-9.806 9.16c-.243.315-.48.6-.67.801-.096.102-.17.173-.221.214l-.03.023a.39.39 0 01.174-.04v1c.15 0 .268-.061.317-.089.063-.035.121-.078.17-.119.1-.081.21-.187.318-.303.22-.234.48-.547.735-.878l-.793-.609zm-.747.998a.429.429 0 01.193.046c.01.005.006.004-.014-.011a2.39 2.39 0 01-.174-.156 12.199 12.199 0 01-.578-.608l-.743.668c.227.253.447.487.627.66.09.086.177.166.257.227.038.03.086.064.138.093.033.018.145.081.294.081v-1zm-.578-.736c-2.602-2.795-4.504-7.119-5.04-11.607l-.993.119c.557 4.665 2.533 9.196 5.3 12.17l.733-.682zm-5.04-11.608c-.432-3.504.675-8.477 2.834-12.798l-.894-.447c-2.216 4.433-3.396 9.608-2.933 13.367l.993-.122zm2.833-12.796c2.208-4.369 6.897-10.698 12.253-16.603l-.741-.672c-5.382 5.934-10.138 12.339-12.404 16.824l.892.451zm12.25-16.6c2.94-3.192 4.006-4.509 5.321-6.533l-.839-.545c-1.27 1.955-2.292 3.225-5.218 6.4l.736.678zm5.314-6.522c1.115-1.624 2.82-4.836 3.526-6.45l-.917-.401c-.686 1.57-2.362 4.724-3.433 6.284l.824.567zm3.527-6.454c1.055-2.462 1.965-5.39 2.272-7.434l-.989-.149c-.29 1.935-1.169 4.777-2.202 7.19l.92.393zm2.273-7.44c.302-2.169.357-5.655.097-7.214l-.986.164c.237 1.426.192 4.804-.102 6.912l.99.138zm.097-7.212c-.758-4.654-2.034-7.531-4.741-10.597l-.75.662c2.562 2.902 3.771 5.596 4.504 10.095l.987-.16zm-4.737-10.592a6.02 6.02 0 01-.354-.451 1.57 1.57 0 01-.088-.138l-.004-.008a.41.41 0 01.02.127h-1c0 .102.028.184.043.223.018.048.04.093.06.13.04.076.093.157.148.237.112.16.26.348.416.53l.76-.65zm-.426-.47a.463.463 0 01-.042.193 1.214 1.214 0 01.06-.077c.07-.084.17-.196.283-.31l-.707-.707a5.225 5.225 0 00-.352.387 2.16 2.16 0 00-.125.167.913.913 0 00-.057.099c-.007.015-.06.116-.06.248h1zm.301-.194c.271-.272.785-.89 1.18-1.384l-.78-.625c-.401.502-.882 1.076-1.107 1.302l.707.707zm1.194-1.402c.238-.326.408-.56.538-.73.135-.178.206-.259.248-.297.027-.026-.004.01-.07.018-.016.002-.034-.001.11.017l.124-.992c-.054-.007-.215-.036-.363-.016a.857.857 0 00-.479.237c-.113.105-.231.25-.366.426-.138.182-.316.427-.55.748l.808.59zm.774-1.002c.79.187 2.888 1.013 4.321 1.705l.435-.9c-1.45-.701-3.627-1.566-4.527-1.778l-.23.973zm4.317 1.703c3.653 1.803 6.578 4.239 9.42 7.916l.791-.612c-2.924-3.784-5.964-6.323-9.768-8.2l-.443.896zm9.418 7.914c1.25 1.634 2.918 4.962 3.901 7.865l.947-.321c-1.005-2.967-2.717-6.403-4.053-8.152l-.794.608zm3.901 7.865c.965 2.849 1.162 5.9.675 9.116l.989.15c.507-3.35.307-6.566-.717-9.587l-.947.321zm.677 9.105c-.096.55-.29 1.366-.5 2.13-.212.775-.426 1.446-.555 1.726l.908.419c.169-.366.402-1.114.612-1.881.214-.778.417-1.628.52-2.222l-.985-.172zm-1.048 3.842c-.103.206-.372.847-.605 1.36l.91.413c.265-.581.493-1.134.59-1.326l-.895-.447zm-.612 1.376c-.673 1.635-2.832 5.128-4.36 7.151l.797.603c1.553-2.055 3.769-5.626 4.488-7.373l-.925-.381zm-4.358 7.148c-1.482 1.927-3.808 4.651-5.19 6.132l.732.682c1.403-1.504 3.75-4.252 5.25-6.204l-.792-.61zm-5.183 6.126c-2.769 2.87-5.388 6.647-6.806 9.739l.909.417c1.365-2.977 3.916-6.662 6.616-9.462l-.72-.694zm-6.807 9.74c-1.775 3.908-2.586 8.722-2.18 12.841l.995-.098c-.388-3.939.391-8.577 2.096-12.329l-.91-.414zm29.396-3.538c-1.631 2.026-3.586 4.025-4.775 4.881l.585.812c1.297-.935 3.318-3.015 4.969-5.067l-.779-.626zm-4.778 4.884c-.607.444-2.295 1.37-4.188 2.333-1.878.955-3.903 1.918-5.152 2.433l.38.924c1.287-.529 3.339-1.506 5.225-2.466 1.874-.953 3.64-1.916 4.326-2.417l-.591-.807zm-9.32 4.758c-.572.208-3.234 1.415-4.859 2.154l.414.91c1.657-.753 4.264-1.934 4.786-2.124l-.342-.94zm-4.876 2.162c-.38.191-1.162.533-1.758.781l.385.923a36.355 36.355 0 001.821-.81l-.448-.894zm-1.77.787c-1.006.453-5.489 2.646-6.88 3.342l.448.894c1.393-.697 5.858-2.881 6.842-3.324l-.41-.912zm-6.89 3.347a5.78 5.78 0 01-.469.23c-.122.05-.139.04-.103.042a.289.289 0 01.13.039c.052.03.082.067.095.088.012.018.011.023.004.001a1 1 0 01-.026-.106l-.98.196a1.3 1.3 0 00.165.456.707.707 0 00.572.325c.191.007.376-.055.523-.116.159-.065.345-.159.557-.271l-.468-.884zm-.365.314c-.069-.434-.119-1.383-.137-2.387-.019-.999-.006-1.996.041-2.514l-.996-.09c-.052.576-.064 1.619-.045 2.622.019.998.068 2.014.149 2.525l.988-.156zm-.098-4.879c.777-5.786 3.147-10.268 8.612-15.885L87.73 135c-5.57 5.725-8.073 10.395-8.886 16.448l.991.134zm8.612-15.884c3.963-4.067 6.677-7.938 9.135-12.757l-.891-.454c-2.414 4.732-5.07 8.521-8.96 12.513l.716.698zm9.135-12.758c1.612-3.175 2.687-6.831 2.738-9.418l-1-.02c-.047 2.387-1.06 5.893-2.63 8.986l.892.452zm2.738-9.407c.052-1.24-.202-4.014-.405-5.18l-.985.171c.195 1.121.439 3.82.39 4.967l1 .042zm-.405-5.185c-.458-2.492-1.52-5.478-2.839-7.862l-.875.484c1.267 2.292 2.293 5.175 2.73 7.558l.984-.18zm-2.834-7.854c-.913-1.725-3.07-4.888-4.384-6.454l-.766.642c1.272 1.518 3.39 4.623 4.266 6.28l.884-.468zm-4.389-6.46c-.651-.752-1.667-1.821-2.295-2.345l-.64.768c.565.471 1.538 1.491 2.18 2.231l.755-.654zm-2.298-2.348c-1.116-.913-3.573-2.619-5.035-3.477l-.506.863c1.421.834 3.835 2.51 4.907 3.388l.634-.774zm-5.03-3.474c-1.037-.622-3.61-1.73-5.026-2.186l-.307.952c1.367.44 3.865 1.52 4.818 2.091l.514-.857zm-5.021-2.184a13.935 13.935 0 01-.797-.294 6.268 6.268 0 01-.324-.143c-.034-.018.019.005.073.06l-.707.707c.067.067.15.108.16.114.035.019.075.038.115.057.082.038.188.083.307.131.24.097.547.213.856.316l.317-.948zm-1.178-.47a.402.402 0 01.147.121c.02.028.027.047.028.048 0 0-.008-.021-.017-.076a2.766 2.766 0 01-.03-.442h-1c0 .215.013.432.044.614.016.088.039.188.076.28.027.066.107.25.305.349l.447-.895zm.128-.35c0-1.03-.27-2.059-.76-2.93l-.872.49c.405.72.632 1.58.632 2.44h1zm-.762-2.933a3.917 3.917 0 01-.239-.493.653.653 0 01-.006-.02l-.002-.006.002.013a.43.43 0 01-.015.162.47.47 0 01-.119.199l-.707-.707a.544.544 0 00-.156.376.742.742 0 00.02.175c.018.085.05.174.082.253.067.162.165.356.271.543l.869-.495zm-.379-.145a.461.461 0 01-.174.109l-.014.004a1.39 1.39 0 01.12-.013 9.67 9.67 0 01.538-.022c.457-.01 1.072-.006 1.727.006 1.318.025 2.763.087 3.41.159l.11-.994c-.697-.078-2.184-.14-3.501-.165a48.376 48.376 0 00-1.766-.006c-.236.005-.442.013-.597.025a2.335 2.335 0 00-.217.026.904.904 0 00-.117.028c-.021.007-.131.04-.226.136l.707.707zm5.597.242c4.51.588 6.892 1.365 11.22 3.58l.456-.89c-4.42-2.262-6.91-3.077-11.547-3.682l-.13.992zm11.22 3.58c7.066 3.633 13.103 9.725 16.534 16.543l.894-.45c-3.529-7.01-9.72-13.254-16.971-16.983l-.457.89zm16.534 16.542c1.173 2.347 2 4.785 2.389 7.313l.988-.152c-.407-2.644-1.27-5.181-2.483-7.608l-.894.447zm2.389 7.318c.938 5.729.984 11.24.201 15.498l.984.181c.808-4.398.754-10.029-.198-15.84l-.987.161zm.201 15.499c-.293 1.611-.832 3.576-1.474 5.502l.949.316c.651-1.953 1.205-3.967 1.509-5.639l-.984-.179zm-1.476 5.509c-.635 2.003-1.218 3.319-2.554 5.943l.891.454c1.348-2.648 1.958-4.018 2.616-6.095l-.953-.302zm-2.573 5.985c-.129.323-.538 1.031-.997 1.759-.454.723-.911 1.395-1.113 1.641l.774.633c.246-.3.733-1.021 1.186-1.741.449-.714.91-1.499 1.079-1.921l-.929-.371zm14.965-13.783c-1.32 3.229-3.875 7.312-6.28 10.111l.759.651c2.467-2.872 5.082-7.046 6.446-10.383l-.925-.379zm-6.282 10.113c-.823.969-2.506 2.618-3.995 3.977a42.76 42.76 0 01-1.92 1.671 6.352 6.352 0 01-.554.411c-.069.043-.071.036-.031.025.005-.001.132-.04.285.026a.48.48 0 01.286.431h-1a.52.52 0 00.316.486.558.558 0 00.371.023c.115-.031.226-.095.3-.141a7.33 7.33 0 00.653-.481 45.01 45.01 0 001.969-1.712c1.493-1.364 3.216-3.048 4.083-4.069l-.763-.647zm-5.929 6.541c0 .076-.02.123-.011.095a6.044 6.044 0 01.153-.342c.114-.234.272-.538.445-.859l-.881-.474c-.176.327-.341.644-.463.895a5.819 5.819 0 00-.152.332 1.71 1.71 0 00-.053.139c-.008.026-.038.114-.038.214h1zm.588-1.108c1.213-2.277 2.62-5.998 3.276-8.723l-.973-.234c-.636 2.647-2.014 6.288-3.186 8.487l.883.47zm3.278-8.735c.146-.679.489-1.957.734-2.742l-.954-.298a39.929 39.929 0 00-.757 2.83l.977.21zm.74-2.759c.912-3.348 1.162-6.239.911-10.804l-.998.055c.246 4.488-.001 7.267-.878 10.486l.965.263zm.911-10.803c-.25-4.667-1.302-9.848-2.671-13.195l-.925.378c1.316 3.219 2.351 8.285 2.598 12.87l.998-.053zm-2.669-13.192c-1.008-2.52-2.77-5.65-4.001-7.19l-.781.625c1.155 1.445 2.872 4.483 3.853 6.937l.929-.372zm-4.003-7.192c-3.4-4.203-5.815-6.621-9.483-9.386l-.602.798c3.589 2.706 5.947 5.063 9.307 9.217l.778-.629zm-9.482-9.386c-3.522-2.668-6.949-4.483-10.974-5.893l-.33.944c3.928 1.376 7.262 3.142 10.7 5.746l.604-.797zm-10.977-5.894c-4.544-1.566-7.637-1.967-14.135-1.917l.008 1c6.426-.05 9.398.345 13.802 1.863l.326-.946zM77.053 78.69c-1.095 0-2.05 0-2.73-.007a30.963 30.963 0 01-.789-.014 3.637 3.637 0 01-.186-.01c-.02-.002-.015-.003.002.001a.489.489 0 01.375.48h-1a.503.503 0 00.296.459c.053.024.1.034.117.038a.99.99 0 00.113.017c.065.006.15.01.246.014.195.008.475.012.817.015.686.007 1.646.007 2.739.007v-1zm-3.4.193c.118.195.044.37.035.39-.016.037-.029.047-.01.025.033-.04.105-.112.227-.214.237-.2.599-.466 1.039-.76.879-.586 2.025-1.256 3.015-1.715l-.42-.907c-1.048.486-2.24 1.183-3.15 1.79-.454.304-.85.593-1.13.828a2.88 2.88 0 00-.351.34.916.916 0 00-.139.218.567.567 0 00.027.52l.858-.515zm4.307-2.274c2.114-.984 3.078-1.37 5.627-2.008l-.243-.97c-2.62.656-3.645 1.065-5.806 2.071l.422.907zm5.63-2.009c3.01-.777 7.016-.925 10.334-.388l.16-.988c-3.442-.557-7.589-.407-10.743.408l.25.968zm10.33-.389c5.188.881 11.128 3.484 15.44 6.77l.606-.796c-4.437-3.38-10.526-6.05-15.878-6.96l-.167.986zm15.441 6.77c2.459 1.87 5.806 5.074 7.365 7.072l.788-.615c-1.623-2.08-5.036-5.344-7.548-7.254l-.605.796zm7.369 7.077c.401.502.955 1.156 1.199 1.45l.768-.64c-.252-.304-.793-.943-1.186-1.435l-.781.625zm1.218 1.47c.666.715 1.84 2.327 2.686 3.572l.827-.562c-.844-1.242-2.057-2.913-2.782-3.691l-.731.682zm2.683 3.568c.382.573.853 1.306 1.07 1.577l.781-.624c-.181-.226-.605-.886-1.019-1.507l-.832.554zm1.044 1.542c.372.56 1.203 2.167 1.947 3.854l.915-.403c-.747-1.695-1.607-3.37-2.03-4.005l-.832.554zm1.947 3.855c1.52 3.435 2.701 7.713 3.192 11.894l.993-.117c-.502-4.276-1.708-8.652-3.27-12.182l-.915.405zm3.192 11.887a26.315 26.315 0 01-1.805 12.642l.925.379a27.315 27.315 0 001.874-13.125l-.994.104z"/><path fill="#97F4EC" d="M26.257 89.728c-.364-5.631 5.06-9.858 10.431-8.132l2.812.904 15.664 6.113a8 8 0 015.083 7.072l.424 8.913a7.999 7.999 0 01-6.451 8.231L35.5 116.5c-3.69 1.23-7.5-1.516-7.5-5.406v-10.183a8 8 0 00-.205-1.799l-1.149-4.978a7.99 7.99 0 01-.188-1.284l-.201-3.122z"/><path stroke="#97F4EC" stroke-linecap="round" stroke-width="2" d="M57.681 91.761l29.08-8.442M56.511 109.681l32.17-14.192"/><path fill="#fff" fill-rule="evenodd" stroke="#fff" d="M76.854 156.539c.1.796.15 1.542.199 1.641.05.249-.249.498-1.89 1.443a85.483 85.483 0 00-3.877 2.587c-3.032 2.089-7.953 6.715-9.693 9.053-.498.646-.995 1.193-1.144 1.193-.1 0-.497-.397-.944-.895-2.685-2.885-4.623-7.312-5.17-11.888-.448-3.631.696-8.705 2.883-13.083 2.237-4.427 6.96-10.794 12.328-16.713 2.933-3.183 3.977-4.477 5.27-6.466 1.093-1.592 2.784-4.776 3.48-6.367 1.043-2.438 1.938-5.323 2.237-7.313.298-2.138.348-5.571.099-7.063-.746-4.576-1.988-7.362-4.623-10.346-.298-.349-.547-.697-.547-.796 0-.05.199-.299.447-.547.249-.25.746-.846 1.144-1.343.944-1.294.895-1.244 1.292-1.194.845.199 2.983 1.044 4.425 1.74 3.728 1.841 6.71 4.328 9.594 8.059 1.292 1.691 2.983 5.074 3.977 8.008.994 2.935 1.193 6.069.696 9.352-.199 1.144-.796 3.333-1.094 3.979-.1.199-.348.796-.596 1.343-.696 1.692-2.884 5.223-4.425 7.263-1.491 1.94-3.828 4.676-5.22 6.168-2.733 2.835-5.319 6.566-6.71 9.6-1.74 3.83-2.536 8.556-2.138 12.585v0z" clip-rule="evenodd"/><path fill="#fff" fill-rule="evenodd" stroke="#fff" d="M108.532 140.819c-1.64 2.04-3.629 4.079-4.871 4.975-1.293.945-6.91 3.78-9.445 4.825-.547.199-3.182 1.392-4.822 2.139-.398.199-1.194.547-1.79.795-.994.448-5.468 2.637-6.86 3.333-.845.448-.995.448-1.094-.05-.149-.945-.199-3.929-.1-5.023.796-5.92 3.232-10.496 8.75-16.167 3.927-4.029 6.612-7.859 9.047-12.634 1.591-3.134 2.635-6.715 2.685-9.203.049-1.193-.2-3.929-.398-5.073-.447-2.438-1.491-5.372-2.784-7.71-.895-1.692-3.032-4.825-4.325-6.367-.646-.747-1.64-1.791-2.237-2.288-1.093-.896-3.53-2.587-4.97-3.433-.995-.597-3.53-1.691-4.922-2.139-.597-.199-1.193-.447-1.243-.497-.1-.05-.15-.398-.15-.796 0-.945-.248-1.89-.695-2.686-.199-.348-.348-.696-.298-.746.149-.15 4.672-.05 6.015.1 4.573.596 7.009 1.392 11.384 3.63 7.158 3.681 13.273 9.85 16.752 16.764 1.193 2.387 2.038 4.874 2.436 7.461.945 5.77.994 11.341.199 15.669-.298 1.641-.845 3.631-1.491 5.571-.647 2.039-1.243 3.382-2.585 6.019-.299.746-1.74 2.984-2.188 3.531v0z" clip-rule="evenodd"/><path stroke="#CAFFFA" stroke-linecap="round" stroke-width="3" d="M27.914 90.085l14.171 5.001M29.397 108.404l12.007-.801M29.596 100.603l12.007.801"/></svg>