<svg xmlns="http://www.w3.org/2000/svg" viewBox="0 0 478.591 338.4"><path fill="#0b50a3" d="M99.62 19.04H378.97L239.73 321.403"/><path fill="#2e6fb7" d="M239.295 30.405h119.223L239.664 288.488"/><g fill="#fff"><path d="M206.826 176.558q-4.969 2.578-10.36 3.89-5.39 1.313-11.25 1.313-17.484 0-27.702-9.75-10.219-9.797-10.219-26.532 0-16.78 10.219-26.53 10.218-9.798 27.703-9.798 5.86 0 11.25 1.313 5.39 1.312 10.36 3.89v14.485q-5.016-3.422-9.891-5.016-4.875-1.594-10.266-1.594-9.656 0-15.188 6.188-5.53 6.187-5.53 17.062 0 10.829 5.53 17.016 5.532 6.188 15.188 6.188 5.39 0 10.266-1.594 4.875-1.594 9.89-5.016zM270.685 112.62v14.813q-5.765-2.579-11.25-3.891-5.484-1.313-10.359-1.313-6.469 0-9.563 1.782-3.093 1.781-3.093 5.531 0 2.812 2.062 4.406 2.11 1.547 7.594 2.672l7.687 1.547q11.672 2.344 16.594 7.125 4.922 4.781 4.922 13.594 0 11.578-6.89 17.25-6.844 5.625-20.954 5.625-6.656 0-13.359-1.266t-13.406-3.75v-15.234q6.703 3.562 12.937 5.39 6.281 1.782 12.094 1.782 5.906 0 9.047-1.97 3.14-1.968 3.14-5.624 0-3.281-2.156-5.063-2.11-1.78-8.484-3.187l-6.985-1.547q-10.5-2.25-15.375-7.172-4.828-4.922-4.828-13.266 0-10.453 6.75-16.078t19.407-5.625q5.765 0 11.859.891 6.094.844 12.61 2.578zM331.165 112.62v14.813q-5.765-2.579-11.25-3.891-5.484-1.313-10.359-1.313-6.469 0-9.563 1.782-3.093 1.781-3.093 5.531 0 2.812 2.062 4.406 2.11 1.547 7.594 2.672l7.687 1.547q11.672 2.344 16.594 7.125 4.922 4.781 4.922 13.594 0 11.578-6.89 17.25-6.844 5.625-20.954 5.625-6.656 0-13.359-1.266t-13.406-3.75v-15.234q6.703 3.562 12.937 5.39 6.281 1.782 12.094 1.782 5.906 0 9.047-1.97 3.14-1.968 3.14-5.624 0-3.281-2.156-5.063-2.11-1.78-8.484-3.187l-6.985-1.547q-10.5-2.25-15.375-7.172-4.828-4.922-4.828-13.266 0-10.453 6.75-16.078t19.407-5.625q5.765 0 11.859.891 6.094.844 12.61 2.578z"/></g></svg>