<svg xmlns="http://www.w3.org/2000/svg" viewBox="0 0 329 451" xmlns:xlink="http://www.w3.org/1999/xlink"><defs><path id="a" d="M71.298.47l71.165 188.636H.133z"/></defs><g fill="none" fill-rule="evenodd"><g fill-rule="nonzero"><path fill="#1572B6" d="M28.72 415.494L.35 97.324h311.71l-28.4 318.12-127.65 35.39"/><path fill="#33A9DC" d="M156.21 423.834l103.14-28.64 24.27-271.85H156.21"/></g><path fill="#FFF" fill-rule="nonzero" stroke="#FFF" d="M91.88 165.244c5-4.83 8.35-6.06 19.78-7.17 6.21-.6 7.89-1.39 12.2-5.75 3.88-3.92 6.37-5.67 10.74-7.54 5.39-2.3 9.08-2.78 20.21-2.6 10.74.17 16.79.87 24.23 2.83 9 2.37 13.46 4.11 19.16 7.48 6.24 3.69 11 7.36 7.56 5.8-.44-.2-1-.46-1.17-.59-.17-.13-2.92-1-7.92-2.55-8.422-2.58-17.348-3.06-26-1.4-12.22 2.37-22.24 7.15-30 14.29l-1.9 1.76h-12.61c-6.94 0-18.31 0-25.27-.06-7.29 0-12.66-.15-12.66-.28 0-.3 1.95-2.56 3.65-4.22zm-34.15 59.37c.304-2.915 1.095-5.757 2.34-8.41l.38-.73 1.6 1.57c1.79 1.675 3.777 3.123 5.92 4.31.902.38 1.824.715 2.76 1 1.84.6 2.4.66 5.76.69 4.16 0 5.47-.22 8.59-1.66 2.42-1.12 3.54-2.07 4.38-3.73 1.21-2.29.848-5.09-.9-7-1.93-1.93-5.46-2.8-11.35-2.81-7.24 0-12.83 1-15.57 2.7-.397.28-.827.51-1.28.69-.23 0-.33-.22-1.6-3.6-3.36-8.91-3.39-9-3.39-10.87-.06-1 .105-2 .48-2.93 1.06-2.39 2.51-3.42 6.13-4.33 2.94-.75 3.35-1.13 3.11-2.89-.047-.48-.148-.953-.3-1.41-.22-.36-2.93 0-4.51.54-2.6.94-2.38 1-2.2-.54.17-2.245 1.208-4.335 2.89-5.83.995-1.067 2.183-1.935 3.5-2.56 3.31-1.57 3.86-1.62 17.23-1.62h12l.89 1.44c.81 1.502 2.188 2.615 3.828 3.087 1.64.48 3.4.27 4.882-.57 1.34-.69 2.4-1.82 3-3.21l.41-.75 41.17.13 1.27.57c3.37 1.69 4.857 5.7 3.4 9.18-.596 1.51-1.498 2.87-2.65 4-3.73 4.27-8.56 6.22-14.92 6-3.59-.11-3.67 0-2.77 2.35 3.1 8.22 2.88 15.86-.65 23-2.804 5.73-7.62 10.22-13.53 12.61-4.78 2.06-7 2.31-22.22 2.5-17.82.22-20.1.36-23.88 1.49-2.953.78-5.598 2.45-7.58 4.77-.412.48-.856.93-1.33 1.35-.222-.15-.42-.33-.59-.54-1.255-1.79-2.29-3.72-3.08-5.76-1.425-3.9-1.978-8.07-1.62-12.22zm60.16 139.42c-1.038 1.826-1.95 3.72-2.73 5.67-.15.4-.57 1.85-.93 3.24-.6 2.3-.65 2.92-.66 7.08-.037 1.782.017 3.564.16 5.34.23 1.06-.11 1-2-.24l-2.38-1.6c-2.06-1.39-10.16-7.57-12.14-9.26-5.918-5.1-11.38-10.708-16.32-16.76-4.03-5.283-7.706-10.83-11-16.6-4.59-9.506-7.22-19.837-7.74-30.38-.43-10.8 3.27-23.18 9.78-32.66 3-4.41 6.5-8.21 12.41-13.56s16.45-12.74 25.69-18.06c7.06-4.07 8-4.68 11.17-7 4.907-3.537 9.267-7.776 12.94-12.58 2.93-4.25 4.797-9.14 5.44-14.26.3-3.382.18-6.788-.36-10.14-.26-1-.28-1.43-.07-1.6.747-.326 1.524-.577 2.32-.75 1.335-.354 2.65-.778 3.94-1.27l1.9-.75 1.66 1.79c3.274 3.61 5.74 7.88 7.23 12.52.975 3.132 1.483 6.39 1.51 9.67.33 10.14-2.78 20.7-9.07 30.74-4.383 6.628-9.24 12.93-14.53 18.86l-3.68 4.22c-5.28 6.05-13 16.44-15.73 21.29-.38.66-.95 1.58-1.26 2-2.28 4.102-4.284 8.352-6 12.72-1.094 3.49-1.907 7.06-2.43 10.68-.414 4.11-.384 8.255.09 12.36 1.78 10.15 5.41 17.93 11.59 24.85.785.78 1.458 1.665 2 2.63-.17.642-.44 1.253-.8 1.81zm37-38.48c.16 1.59.34 3.07.41 3.29.13.45-.52 1-3.76 2.95-1.89 1.16-4.41 2.84-7.85 5.21-6.1 4.22-16 13.47-19.45 18.18-1 1.3-2 2.4-2.35 2.4-.722-.494-1.372-1.086-1.93-1.76-5.38-5.77-9.29-14.74-10.42-23.91-.9-7.3 1.36-17.49 5.82-26.27 4.46-8.78 14-21.69 24.8-33.59 5.86-6.43 8-9 10.6-13 2.622-4.093 4.96-8.36 7-12.77 2.057-4.71 3.55-9.65 4.45-14.71.636-4.704.717-9.467.24-14.19-1.52-9.17-4-14.79-9.3-20.83-.454-.465-.838-.994-1.14-1.57.21-.42.507-.792.87-1.09.82-.866 1.58-1.785 2.28-2.75 1.95-2.65 1.83-2.54 2.56-2.38 3.076.894 6.064 2.062 8.93 3.49 7.51 3.73 13.46 8.71 19.32 16.2 2.63 3.36 6 10.18 8 16.09 2.002 6.068 2.476 12.535 1.38 18.83-.493 2.723-1.216 5.4-2.16 8-.18.4-.7 1.62-1.17 2.71-2.488 5.126-5.458 10.005-8.87 14.57-3 3.93-7.67 9.44-10.48 12.37-5.475 5.7-10.04 12.21-13.53 19.3-3.515 7.918-4.967 16.598-4.22 25.23h-.03zm63.33-32.25c-2.896 3.69-6.196 7.045-9.84 10-2.59 1.89-13.86 7.62-19 9.68-1.12.45-6.39 2.8-9.67 4.32-.83.38-2.45 1.11-3.6 1.62-2 .89-11 5.29-13.78 6.75-1.74.91-2 .9-2.21-.06-.37-3.344-.424-6.716-.16-10.07 1.58-11.91 6.54-21.08 17.56-32.46 7.39-7.455 13.54-16.044 18.22-25.44 3.19-6.33 5.28-13.48 5.38-18.48-.025-3.432-.3-6.858-.82-10.25-1.1-5.42-2.976-10.654-5.57-15.54-2.557-4.492-5.47-8.772-8.71-12.8-1.392-1.638-2.903-3.173-4.52-4.59-3.18-2.505-6.52-4.8-10-6.87-3.18-1.67-6.476-3.118-9.86-4.33-.863-.27-1.705-.606-2.52-1-.253-.486-.357-1.035-.3-1.58-.034-1.885-.54-3.73-1.47-5.37-.31-.438-.514-.94-.6-1.47.29-.29 9.37-.14 12.07.21 9.15 1.17 14.14 2.76 22.95 7.33 14.448 7.52 26.24 19.294 33.78 33.73 2.406 4.718 4.076 9.777 4.95 15 1.92 11.57 2 22.79.35 31.51-.775 3.78-1.777 7.51-3 11.17-1.38 4.182-3.134 8.232-5.24 12.1-1.333 2.367-2.788 4.663-4.36 6.88l-.03.01zm34.43-34.81c-3.25 7.45-7.554 14.394-12.78 20.62-3.44 4-13.69 13.35-13.69 12.5.364-.937.795-1.846 1.29-2.72 2.77-5.51 4.944-11.3 6.49-17.27.35-1.42 1-4 1.48-5.64 1.81-6.58 2.3-12.34 1.8-21.38-.51-9.27-2.6-19.59-5.3-26.19-2.056-5.016-4.7-9.77-7.88-14.16-6.73-8.4-11.61-13.24-18.83-18.69-6.567-5.047-13.913-8.99-21.75-11.67-9-3.1-15.11-3.93-28.12-3.8-2.58.102-5.164.055-7.74-.14-.34-.54 5-4.05 9.06-6 3.65-1.81 7.495-3.193 11.46-4.12 6.955-1.672 14.173-1.933 21.23-.77 11.41 2.16 22.184 6.866 31.52 13.77 5.48 4.257 10.505 9.066 15 14.35.79 1 1.87 2.29 2.41 2.88 1.99 2.32 3.826 4.765 5.5 7.32l2.06 3.12c1.494 2.532 2.83 5.154 4 7.85 3.336 7.713 5.523 15.873 6.49 24.22.995 8.81-.272 17.726-3.68 25.91l-.02.01z"/><path fill="#FF960E" d="M261.37 216.65l-117.997-79.59L307.855 20.47"/><g transform="rotate(34 156.868 397.343)"><mask id="b" fill="#fff"><use xlink:href="#a"/></mask><path fill="#F9D541" d="M-.59-2.4l7.704 3.803 1.235 8.5 5.99-6.15 8.46 1.45L18.81-2.4l4-7.6-8.466 1.45L8.35-14.7 7.113-6.2-.59-2.4m0 38.685l7.704 3.802 1.235 8.5 5.99-6.15 8.46 1.45-4-7.602 3.99-7.602-8.47 1.452-6-6.15-1.24 8.5-7.7 3.8m0 38.685l7.7 3.8 1.23 8.5 5.99-6.15 8.46 1.45-4-7.6 3.99-7.604-8.46 1.454-5.99-6.16-1.24 8.5-7.7 3.8m0 38.68l7.7 3.8 1.23 8.5 5.99-6.15 8.46 1.45-4-7.61 4-7.6-8.47 1.45-5.99-6.15-1.24 8.5-7.71 3.8m.01 38.68l7.7 3.8 1.24 8.5 5.99-6.15 8.465 1.45-4-7.605 3.993-7.6-8.467 1.45-5.997-6.15-1.24 8.5-7.7 3.8M-.61 191l7.7 3.8 1.237 8.5 5.99-6.15 8.467 1.45-3.998-7.6 3.995-7.6-8.46 1.45-5.99-6.15-1.23 8.5-7.71 3.8M30.31 17.4l7.704 3.804 1.235 8.5 5.99-6.15 8.46 1.45-4-7.6 4-7.604-8.47 1.45-5.99-6.15L38 13.6l-7.7 3.8m0 38.687l7.705 3.8 1.24 8.5 6-6.15 8.47 1.455-3.997-7.6 3.99-7.6-8.46 1.45-6-6.15-1.23 8.5-7.706 3.8m0 38.683l7.7 3.8 1.235 8.5 5.993-6.15 8.468 1.45-4-7.6 3.998-7.604-8.466 1.45-5.995-6.15-1.236 8.5-7.71 3.81m0 38.68l7.7 3.8 1.23 8.5 6-6.15 8.46 1.46-4-7.6 3.99-7.6-8.47 1.45-6-6.15-1.237 8.5-7.706 3.8m0 38.69l7.703 3.8 1.23 8.5 5.998-6.15 8.466 1.45-4-7.6 3.996-7.6-8.46 1.47-5.992-6.15-1.236 8.5-7.71 3.8M61.87-2.4l7.702 3.803 1.236 8.5 5.995-6.15 8.466 1.45-4-7.602 4-7.6-8.47 1.45-6-6.15-1.24 8.5-7.7 3.8m0 38.69l7.7 3.8 1.23 8.5 5.99-6.15 8.46 1.45-4-7.6 4-7.6-8.47 1.45-6-6.15-1.24 8.5-7.7 3.8m0 38.69l7.7 3.8 1.24 8.5 5.99-6.15 8.46 1.45-4-7.6 4-7.6-8.46 1.45-6-6.15-1.24 8.5-7.71 3.8m0 38.69l7.7 3.8 1.23 8.5 6-6.15 8.462 1.46-4-7.6 3.993-7.6-8.47 1.46-6-6.15-1.24 8.5-7.707 3.8m0 38.69l7.7 3.8 1.24 8.5 5.995-6.15 8.46 1.46-4-7.6 4-7.6-8.465 1.45-5.99-6.15-1.24 8.5-7.7 3.8m0 38.69l7.706 3.8 1.24 8.5 6-6.15 8.463 1.458-4-7.603 3.994-7.6-8.46 1.45-5.994-6.15-1.237 8.5-7.7 3.8m30.93-173.6l7.7 3.805 1.234 8.5 5.992-6.15 8.46 1.45-4-7.6 3.993-7.605-8.465 1.45-6-6.15-1.23 8.5-7.7 3.8m0 38.69l7.7 3.8 1.236 8.5 6-6.15 8.46 1.45-4-7.6 4-7.6-8.466 1.45-6-6.15-1.23 8.5-7.7 3.8m0 38.687l7.7 3.8 1.24 8.5 6-6.15 8.46 1.45-4-7.6 4-7.602-8.46 1.45-5.994-6.15-1.23 8.5-7.7 3.805m0 38.68l7.7 3.8 1.236 8.5 6-6.15 8.46 1.45-4-7.604 3.996-7.605-8.47 1.453-5.998-6.15-1.23 8.5-7.7 3.8m0 38.68l7.7 3.8 1.24 8.5 6-6.15 8.46 1.45-3.995-7.6 4-7.604-8.47 1.45-6-6.15-1.23 8.5-7.7 3.8m31.6-135.91l7.703 3.8 1.234 8.5 5.992-6.15 8.465 1.45-4-7.6 3.995-7.602-8.46 1.45-5.99-6.15-1.23 8.5-7.7 3.8m0 38.685l7.7 3.8 1.24 8.5 6-6.15 8.47 1.45-4-7.6 4-7.6-8.46 1.46-5.99-6.15-1.23 8.5-7.7 3.8m0 38.69l7.7 3.8 1.24 8.5 6-6.15 8.47 1.46-3.994-7.6 4-7.6-8.463 1.46-6-6.15-1.232 8.5-7.7 3.8m0 38.68l7.7 3.8 1.23 8.5 5.998-6.15 8.466 1.46-3.99-7.6 4-7.6-8.465 1.45-6-6.15-1.23 8.5-7.706 3.81m0 38.68l7.7 3.8 1.24 8.5 5.995-6.15 8.47 1.45-4-7.602 4-7.6-8.47 1.45-5.995-6.15-1.233 8.5-7.7 3.8" mask="url(#b)"/></g><path fill="#F9D541" d="M319.44 3.297l-10.173 7.506-6.43-10.885-1.887 12.5-12.244-3.148 7.507 10.173-10.884 6.43 12.5 1.886L294.68 40l10.172-7.507 6.43 10.885 1.886-12.5 12.243 3.15-7.5-10.174 10.89-6.43-12.5-1.886 3.15-12.243"/><path fill="#FFF" d="M143.373 137.06L297.618 27.728 143.373 137.06"/><path fill="#FF9E32" d="M197.773 173.754l-38.08-25.684 5.66-3.043-7.83-3.53-1.53-8.452-5.777 6.356-4.224-.57-2.62-1.76L297.62 27.73l.212.032-3.15 12.24-.254.378-.126-.69-5.777 6.36-8.51-1.152 4.26 7.46-3.73 7.737.687-.142-8.436 12.51-.126-.69-5.777 6.36-8.51-1.158 4.26 7.46-3.73 7.737.688-.144-8.43 12.507-.12-.69-5.77 6.358-8.51-1.154 4.26 7.46-3.73 7.73.69-.14-8.43 12.5-.12-.69-5.77 6.35-8.51-1.16 4.26 7.45-3.73 7.74.69-.14-8.43 12.51-.13-.69-5.77 6.35-4.22-.58m-5.6-39.07l-5.77 6.35-8.51-1.16 4.26 7.45-3.73 7.74 8.41-1.75 6.21 5.94.93-8.54 7.568-4.07-7.83-3.53-1.53-8.45m-11.07-24.38l-14.93 10.58 6.09-1.26 6.207 5.94.94-8.54 7.57-4.07-5.87-2.65m32.7-7.68l-5.77 6.36-8.51-1.16 4.26 7.46-3.73 7.74 8.41-1.75 6.21 5.94.94-8.54 7.568-4.07-7.83-3.53-1.53-8.46m9.85-22.48l1.76 3.07-3.73 7.74 8.41-1.74 6.207 5.94.94-8.54 7.565-4.07-7.83-3.53-1.34-7.35-3.37 2.39-2.61 2.87-1.21-.16-4.8 3.4M258 63.05l.86-7.83-5.19 3.684 4.33 4.15m7.95-12.856l-3.19 2.268 3.74-2.01-.56-.25"/><path fill="#FAE04B" d="M166.188 120.888l14.927-10.58 5.87 2.648-7.564 4.07-.93 8.536-6.2-5.937-6.09 1.263m-6.5 27.182l-13.7-9.243 4.23.574 5.78-6.35 1.53 8.45 7.83 3.53-5.66 3.05m98.24-84.99l-4.33-4.15 5.2-3.68-.86 7.83m4.76-10.59l3.19-2.26.56.25-3.75 2.02M221.7 90.97l3.727-7.73-1.75-3.06 4.796-3.4 1.21.16 2.61-2.87 3.37-2.39L237 79.03l7.83 3.53-7.565 4.06-.94 8.535-6.21-5.937-8.41 1.745m-21.63 32.07l3.73-7.74-4.26-7.456 8.51 1.15 5.78-6.357 1.53 8.45 7.83 3.53-7.562 4.07-.937 8.535-6.2-5.94-8.41 1.745m-21.63 32.07l3.73-7.74-4.26-7.455 8.51 1.153 5.776-6.357 1.53 8.45 7.83 3.53-7.567 4.07-.933 8.54-6.21-5.94-8.41 1.75m102.12-95l3.73-7.73-4.26-7.46 8.51 1.16 5.78-6.35.124.69-13.2 19.568-.683.14m-17.91 24.34l-4.26-7.46 8.51 1.157 5.78-6.35.128.7-13.19 19.56-.69.14m-21.63 32.07l3.73-7.72-4.26-7.46 8.51 1.16 5.78-6.35.13.69-13.2 19.56-.69.14m-21.66 32.05l3.73-7.735-4.26-7.456 8.51 1.15 5.78-6.35.13.69-13.19 19.56-.69.15m-13.27 20.55l-4.6-3.1 4.23.58 5.776-6.35.13.7-5.53 8.196"/><path fill="#FFF" d="M285.33 25.874l10.883-6.432-7.506-10.172 7.506 10.173-10.884 6.43M288.7 9.27l12.243 3.15 1.885-12.5-1.884 12.5L288.7 9.27m20.56 1.533l10.173-7.506-10.174 7.506"/><path fill="#FAE04B" d="M294.68 40.003l3.15-12.244-.212-.04-12.29-1.86 10.885-6.43-7.507-10.18 12.244 3.15 1.886-12.5 6.43 10.88 10.174-7.5L294.68 40"/><path fill="#131313" fill-rule="nonzero" d="M244.61 27.124h-25.87l26.9 29.19v13.9h-55.41v-16.27h26.9l-26.9-29.2v-13.91h54.38v16.29zm-65.37 0h-25.89l26.9 29.19v13.9h-55.39v-16.27h26.9l-26.9-29.2v-13.91h54.39v16.29h-.01zm-64.72.71H86.6v25.43h27.92v17H66.76v-59.43h47.76v17z"/></g></svg>
