<svg xmlns="http://www.w3.org/2000/svg" viewBox="0 0 192 65"><path fill="#ee4d2d" fill-rule="evenodd" d="M35.672 44.954c-.334 2.75-2 4.954-4.583 6.057-1.438.615-3.368.947-4.897.843-2.384-.092-4.623-.671-6.688-1.731-.737-.38-1.837-1.135-2.681-1.844-.214-.179-.24-.294-.098-.494.076-.116.217-.323.529-.78.451-.661.508-.744.558-.822.145-.222.38-.24.611-.059l.043.034.127.099.167.128c2.226 1.744 4.82 2.75 7.437 2.85 3.643-.05 6.262-1.687 6.731-4.202.516-2.767-1.656-5.158-5.907-6.49-1.33-.417-4.69-1.762-5.309-2.125-2.91-1.708-4.27-3.943-4.076-6.705.296-3.829 3.85-6.684 8.34-6.703 2.009-.004 4.013.413 5.938 1.224.681.288 1.898.95 2.319 1.264.242.178.29.385.15.608-.077.13-.205.335-.475.764l-.003.004-.448.714c-.14.214-.306.234-.56.073-2.06-1.384-4.344-2.08-6.855-2.13-3.127.062-5.471 1.923-5.625 4.458-.041 2.29 1.676 3.961 5.386 5.236 7.53 2.42 10.411 5.256 9.869 9.729m-9.3-39.527c4.903 0 8.899 4.652 9.086 10.475h-18.17c.187-5.823 4.182-10.475 9.085-10.475m25.37 11.57c0-.604-.487-1.095-1.087-1.095H38.878c-.288-7.689-5.777-13.82-12.505-13.82-6.729 0-12.217 6.131-12.506 13.82H2.073a1.091 1.091 0 0 0-1.065 1.18H1l1.681 37.062c0 .103.004.207.012.311l.006.07.003.08.004.003c.256 2.58 2.127 4.656 4.672 4.752l.006.006H44.982l.002-.002c2.59-.07 4.687-2.177 4.908-4.787l.001-.002.002-.035a5.33 5.33 0 0 0 .014-.278l1.834-37.208h-.001a.994.994 0 0 0 .001-.057m124.722 24.155c.721-2.351 2.9-3.919 5.444-3.919 2.428 0 4.74 1.649 5.538 3.914l.055.156h-11.083l.046-.151zm13.503 3.406l.037.001h.044c.531-.025.951-.477.951-1.028 0-.027 0-.05-.003-.087v-.063c0-5.193-4.07-9.4-9.09-9.4-5.021 0-9.092 4.207-9.092 9.4 0 .387.023.773.068 1.157l.003.02.014.102a9.165 9.165 0 0 0 2.306 4.97l.007.008c1.396 1.537 3.292 2.584 5.394 2.975l.027.005v-.002l.137.023.243.039c2.767.332 5.222-.067 7.3-1.113a9.038 9.038 0 0 0 1.37-.843 6.057 6.057 0 0 0 .458-.383c.469-.483.498-.655.215-1.096a47.975 47.975 0 0 0-1.036-1.58l-.054-.078-.014-.02-.003-.003c-.256-.32-.431-.348-.716-.097-.03.027-.131.105-.15.124-1.999 1.776-4.73 2.347-7.455 1.776a8.251 8.251 0 0 1-1.42-.518c-1.709-.857-2.919-2.383-3.268-4.15l-.027-.139h13.754zm-35.136-3.406c.72-2.351 2.9-3.919 5.444-3.919 2.427 0 4.739 1.649 5.537 3.914l.055.156h-11.083l.047-.151zm13.502 3.406l.038.001h.044c.53-.025.95-.477.95-1.028 0-.027 0-.05-.002-.087v-.063c0-5.193-4.07-9.4-9.091-9.4-5.02 0-9.091 4.207-9.091 9.4 0 .387.022.773.068 1.157l.002.02.014.102a9.165 9.165 0 0 0 2.306 4.97l.008.008c1.396 1.537 3.291 2.584 5.393 2.975l.028.005v-.002l.136.023.244.039c2.767.332 5.221-.067 7.3-1.113a9.038 9.038 0 0 0 1.37-.843 6.057 6.057 0 0 0 .457-.383c.47-.483.498-.655.216-1.096a47.977 47.977 0 0 0-1.036-1.58l-.055-.078-.014-.02-.002-.003c-.257-.32-.432-.348-.716-.097-.03.027-.132.105-.15.124-2 1.776-4.73 2.347-7.456 1.776a8.251 8.251 0 0 1-1.42-.518c-1.708-.857-2.918-2.383-3.267-4.15l-.028-.139h13.754zm-30.013 5.178c-3.38 0-6.146-2.681-6.231-6.04v-.317c.084-3.354 2.85-6.035 6.231-6.035 3.443 0 6.234 2.774 6.234 6.196 0 3.422-2.791 6.196-6.234 6.196m.002-15.68a9.54 9.54 0 0 0-6.04 2.141l-.193.158V34.62c0-.463-.1-.564-.568-.564h-2.176c-.474 0-.568.094-.568.564v27.64c0 .454.106.564.568.564h2.176c.464 0 .568-.108.568-.564V50.734l.193.158a9.54 9.54 0 0 0 6.04 2.14c5.272 0 9.545-4.247 9.545-9.488 0-5.24-4.273-9.487-9.545-9.487m-22.415 15.467c-3.45 0-6.246-2.75-6.246-6.143 0-3.392 2.796-6.142 6.246-6.142 3.448 0 6.245 2.75 6.245 6.142 0 3.393-2.796 6.143-6.245 6.143m.002-15.544c-5.282 0-9.563 4.211-9.563 9.406s4.28 9.406 9.563 9.406c5.281 0 9.562-4.211 9.562-9.406s-4.28-9.406-9.562-9.406m-21.318.21c-1.928 0-3.794.619-5.342 1.765l-.188.139V23.257c0-.425-.14-.564-.565-.564h-2.278c-.46 0-.566.11-.566.564v29.284c0 .443.114.565.566.565h2.278c.423 0 .565-.146.565-.565v-9.565c.024-3.011 2.493-5.441 5.53-5.441 3.044 0 5.517 2.442 5.53 5.463v9.543c0 .484.08.564.565.564h2.273c.481 0 .565-.082.565-.564V42.97c-.018-4.828-4.044-8.78-8.933-8.78M62.846 47.793l-.005.008c-.325.492-.461.7-.537.818-.256.381-.225.551.166.882.913.735 2.086 1.508 2.878 1.895 2.202 1.077 4.58 1.646 7.102 1.698 1.628.082 3.673-.305 5.196-.985 2.757-1.23 4.513-3.626 4.821-6.579.498-4.784-2.614-7.775-10.632-10.185h-.002c-3.736-1.205-5.49-2.807-5.491-5.043.11-2.472 2.401-4.318 5.493-4.433 2.49.006 4.692.667 6.856 2.06.456.276.666.225.973-.173.035-.059.133-.201.543-.79l.001-.002c.383-.55.51-.733.54-.788.26-.486.222-.674-.244-1.004-.46-.33-1.754-1.003-2.494-1.298-2.058-.821-4.186-1.22-6.304-1.179-4.82.105-8.579 3.24-8.827 7.351-.157 2.97 1.35 5.36 4.5 7.125.884.466 4.112 1.687 5.619 2.128 4.285 1.255 6.519 3.563 6.057 6.286-.42 2.475-3.012 4.12-6.65 4.233-2.638-.055-5.296-1.022-7.604-2.756l-.178-.133-.174-.13c-.47-.324-.748-.297-1.035.13l-.568.864"/></svg>