<svg xmlns="http://www.w3.org/2000/svg" viewBox="0 0 170 43"><path fill="#373591" d="M4.483 25.67c.122 1.576 1.263 3.037 3.544 3.037 1.737 0 2.563-.93 2.563-1.98 0-.898-.592-1.62-2.09-1.938l-2.557-.62c-3.74-.85-5.436-3.15-5.436-5.95 0-3.56 3.075-6.51 7.248-6.51 5.515 0 7.365 3.59 7.604 5.74l-4.38 1.002c-.16-1.17-.99-2.663-3.19-2.663-1.38 0-2.48.84-2.48 1.975 0 .97.7 1.58 1.77 1.775l2.76.606c3.82.815 5.75 3.196 5.75 6.11 0 3.235-2.44 6.54-7.53 6.54-5.83 0-7.84-3.873-8.07-6.14l4.48-1.01zm22.964-8.978c-2.68 0-4.844 2.068-4.844 5.58 0 3.52 2.163 5.625 4.844 5.625 2.68 0 4.802-2.068 4.802-5.624 0-3.513-2.13-5.58-4.81-5.58zM17.44 42.862V12.33h5.078v2.425c.873-1.54 3.037-2.87 5.952-2.87 5.67 0 8.938 4.446 8.938 10.347 0 6.024-3.657 10.478-9.135 10.478-2.68 0-4.652-1.094-5.59-2.43v9.625L17.44 42.86zM50.8 24.176v-.886l-4.37.684c-1.342.202-2.404.97-2.404 2.51 0 1.167.822 2.3 2.52 2.3 2.203 0 4.254-1.094 4.254-4.608m-6.224-3.397l4.77-.73c1.102-.16 1.454-.73 1.454-1.42 0-1.41-1.065-2.59-3.27-2.59-2.283 0-3.546 1.49-3.7 3.23l-4.648-1.01c.315-3.11 3.112-6.55 8.31-6.55 6.144 0 8.43 3.56 8.43 7.55v9.79c0 1.05.117 2.463.234 3.15H51.35c-.118-.52-.197-1.617-.197-2.38-.982 1.57-2.836 2.95-5.71 2.95-4.14 0-6.655-2.87-6.655-5.99 0-3.56 2.558-5.535 5.788-6.02m27.25 5.57l2.713 3.39c-1.17 1.283-3.49 2.825-6.86 2.825-6.2 0-10.17-4.515-10.17-10.35 0-5.876 4.25-10.47 10.12-10.47 3.56 0 5.72 1.466 6.89 2.712l-2.82 3.5c-.81-.79-2.097-1.65-4.04-1.65-3.226 0-5.245 2.516-5.245 5.866 0 3.62 2.454 5.84 5.28 5.84 1.98 0 3.225-.904 4.11-1.66m8.913-6.363h8.88c-.2-2.25-1.854-3.97-4.53-3.97-2.496 0-4.073 1.69-4.33 3.987zm-.108 3.803c.257 2.673 2.09 4.29 4.876 4.29 2.494 0 3.92-1.354 4.95-3.01l3.623 2.26c-1.17 2.522-3.81 5.233-8.574 5.233-5.943 0-10.05-3.95-10.05-10.35 0-6.03 3.96-10.47 9.646-10.47 5.9 0 9.615 3.954 9.615 9.98 0 .492 0 1.21-.08 2.07h-14zm15.994 8.43V12.33h5v2.426c1.067-1.945 3.546-2.996 5.677-2.996 2.638 0 4.764 1.176 5.746 3.32 1.54-2.424 3.58-3.32 6.15-3.32 3.58 0 7 2.236 7 7.57v12.89h-5.074V20.415c0-2.14-1.02-3.76-3.423-3.76-2.246 0-3.588 1.78-3.588 3.926v11.64h-5.2V20.41c0-2.14-1.07-3.76-3.43-3.76-2.288 0-3.626 1.74-3.626 3.926v11.64H96.6zm46.155-9.947c0-3.76-2.36-5.656-4.924-5.656-2.555 0-4.92 1.9-4.92 5.66 0 3.724 2.365 5.66 4.92 5.66 2.566 0 4.928-1.897 4.928-5.66m5.24 0c0 6.11-4.37 10.55-10.166 10.55-5.78 0-10.157-4.44-10.157-10.55 0-6.144 4.375-10.546 10.158-10.546 5.8 0 10.17 4.4 10.17 10.546m11.7-5.656c-2.643 0-4.854 1.983-4.854 5.62 0 3.595 2.21 5.662 4.856 5.662 2.674 0 4.8-2.02 4.8-5.664 0-3.635-2.126-5.62-4.8-5.62zm-9.93 15.605V0l5.16 2.95v11.564c.87-1.417 2.99-2.71 5.868-2.71 5.67 0 8.942 4.49 8.942 10.394 0 6.022-3.63 10.514-9.14 10.514-2.68 0-4.73-1.22-5.758-2.914v2.422h-5.074z"/></svg>
