<svg xmlns="http://www.w3.org/2000/svg" viewBox="0 0 169.76 42.86"><title>spacemob</title><path d="M5.48,26.67a3.26,3.26,0,0,0,3.54,3c1.74,0,2.56-.93,2.56-2,0-.9-.59-1.62-2.09-1.94l-2.56-.61C3.2,24.33,1.51,22,1.51,19.23c0-3.56,3.07-6.5,7.25-6.5,5.52,0,7.37,3.6,7.6,5.74l-4.38,1a3,3,0,0,0-3.19-2.66,2.24,2.24,0,0,0-2.48,2c0,1,.7,1.58,1.77,1.78l2.76.61c3.82.81,5.75,3.2,5.75,6.11,0,3.23-2.44,6.54-7.52,6.54-5.83,0-7.83-3.87-8.07-6.14Z" transform="translate(-1 -1)" style="fill:#373591"/><path d="M28.45,17.69c-2.68,0-4.84,2.07-4.84,5.58s2.16,5.62,4.84,5.62,4.8-2.07,4.8-5.62-2.12-5.58-4.8-5.58Zm-10,26.17V13.33h5.08v2.42c.87-1.54,3-2.87,6-2.87,5.67,0,8.94,4.45,8.94,10.35s-3.66,10.48-9.13,10.48a6.72,6.72,0,0,1-5.59-2.43v9.62Z" transform="translate(-1 -1)" style="fill:#373591"/><path d="M51.8,25.18v-.89L47.43,25A2.48,2.48,0,0,0,45,27.48a2.3,2.3,0,0,0,2.52,2.3c2.2,0,4.25-1.09,4.25-4.61m-6.22-3.4,4.77-.73c1.1-.16,1.46-.72,1.46-1.42,0-1.41-1.07-2.59-3.27-2.59a3.47,3.47,0,0,0-3.7,3.23l-4.65-1c.31-3.11,3.11-6.55,8.31-6.55,6.14,0,8.43,3.56,8.43,7.55v9.79a23,23,0,0,0,.23,3.15H52.35a13.82,13.82,0,0,1-.2-2.38,6.44,6.44,0,0,1-5.71,2.95c-4.14,0-6.66-2.87-6.66-6,0-3.56,2.56-5.54,5.79-6" transform="translate(-1 -1)" style="fill:#373591"/><path d="M72.83,27.35l2.71,3.39a9.22,9.22,0,0,1-6.86,2.83c-6.2,0-10.16-4.52-10.16-10.35s4.26-10.47,10.13-10.47a9.12,9.12,0,0,1,6.9,2.71l-2.82,3.5a5.59,5.59,0,0,0-4-1.65c-3.23,0-5.24,2.52-5.24,5.87,0,3.62,2.46,5.84,5.28,5.84a6,6,0,0,0,4.11-1.66" transform="translate(-1 -1)" style="fill:#373591"/><path d="M81.74,21h8.88a4.28,4.28,0,0,0-4.54-4,4.21,4.21,0,0,0-4.33,4Zm-.11,3.8a4.51,4.51,0,0,0,4.88,4.29,5.54,5.54,0,0,0,5-3l3.62,2.26a9,9,0,0,1-8.58,5.23c-5.94,0-10.05-4-10.05-10.35,0-6,4-10.47,9.65-10.47,5.9,0,9.61,4,9.61,10,0,.49,0,1.21-.08,2.07Z" transform="translate(-1 -1)" style="fill:#373591"/><path d="M97.63,33.22V13.33h5v2.42a6.61,6.61,0,0,1,5.68-3A6,6,0,0,1,114,16.08a6.69,6.69,0,0,1,6.15-3.32c3.58,0,7,2.23,7,7.57V33.22h-5.07V21.41c0-2.14-1-3.76-3.43-3.76a3.62,3.62,0,0,0-3.59,3.93V33.22h-5.2V21.41c0-2.14-1.07-3.76-3.43-3.76a3.6,3.6,0,0,0-3.62,3.93V33.22Z" transform="translate(-1 -1)" style="fill:#373591"/><path d="M143.78,23.27c0-3.76-2.36-5.66-4.92-5.66s-4.92,1.9-4.92,5.66,2.36,5.66,4.92,5.66,4.92-1.9,4.92-5.66m5.24,0c0,6.11-4.37,10.55-10.17,10.55S128.7,29.38,128.7,23.27s4.38-10.55,10.16-10.55S149,17.13,149,23.27" transform="translate(-1 -1)" style="fill:#373591"/><path d="M160.72,17.61c-2.64,0-4.85,2-4.85,5.62s2.21,5.66,4.85,5.66,4.8-2,4.8-5.66-2.13-5.62-4.8-5.62Zm-9.93,15.61V1L156,3.95V15.51a6.82,6.82,0,0,1,5.87-2.71c5.67,0,8.94,4.49,8.94,10.4s-3.63,10.51-9.14,10.51a6.53,6.53,0,0,1-5.75-2.91v2.42Z" transform="translate(-1 -1)" style="fill:#373591"/></svg>
