<svg xmlns="http://www.w3.org/2000/svg" viewBox="0 0 1854.667 226.667"><path d="M21.016 190.553c-6.007-1.029-10.906-5.021-13.683-11.151-1.043-2.303-1.132-8.259-1.132-75.833V30.236l1.544-3.413c1.803-3.983 4.594-6.85 8.789-9.03l3-1.557h147.333l3.135 1.602c3.804 1.944 6.564 4.733 8.64 8.73l1.559 3v148l-1.469 2.745c-2.366 4.423-4.676 6.732-8.729 8.722l-3.802 1.867-71 .099c-39.05.054-72.434-.148-74.185-.448zm144.88-5.09c1.31-.262 3.467-1.674 5.347-3.5 2.597-2.523 3.283-3.707 3.903-6.738.536-2.626.7-23.796.57-74-.2-77.506.12-71.816-4.287-76.263-3.877-3.913.047-3.727-78.374-3.715l-72.188.01-2.603 1.49c-3.794 2.17-6.259 5.58-7.05 9.753-.929 4.897-.929 137.24 0 142.138.83 4.374 3.348 7.728 7.333 9.764l2.936 1.5h71.109c39.11 0 72.096-.197 73.304-.439zm-89.362-25.2v-5.694h11.387l-.193 5.5-.194 5.5-5.5.194-5.5.193zm22.667 0v-5.694h11.387l-.194 5.5-.193 5.5-5.5.194-5.5.193zm-22.667-22.667v-5.694h11.387l-.193 5.5-.194 5.5-5.5.194-5.5.194zm22.667 0v-5.694h5.262c3.627 0 5.342.26 5.52.834.142.458.25 2.933.238 5.5l-.02 4.666-5.5.194-5.5.194v-5.694zm-22.667-22.694v-5.666h11.333v11.333H76.534zm22.667-.027v-5.693l5.5.193 5.5.194.017 5.5.017 5.5H99.2v-5.694zm-22.667-22.64V86.57h11.333v11.333H76.534zm22.667 0V86.57h11.066l-.033 5.667-.033 5.666h-11v-5.666zm-68-22.666v-5.667h11.333v11.334H31.201zm22.666 0v-5.667h11.334v11.334H53.867zm22.667 0v-5.667h11.333v11.334H76.534zm22.667 0v-5.667H110.264l.02 5.667.02 5.667H99.202zm22.666 0v-5.667h10.667v11.334h-10.667zm22.667 0v-5.667h10.667v11.334h-10.667zM31.201 46.929v-5.693h11.387l-.194 5.5-.193 5.5-5.5.193-5.5.194zm22.666 0v-5.693h11.388l-.194 5.5-.194 5.5-5.5.193-5.5.194zm22.667 0v-5.693H87.92l-.193 5.5-.194 5.5-5.5.193-5.5.194zm22.667 0v-5.693h11.152l-.076 5.5-.076 5.5-5.5.193-5.5.194zm22.666-.027v-5.666h10.667v11.333h-10.667zm22.667 0v-5.666H155.2v11.333h-10.667zm155.333 76v-55h-71.333v-30h161.333v30h-70.666v110h-19.334zm116.667-15v-70h18.667v140h-18.667zm117.333 15v-55h-71.333v-30h161.333v30h-71.333v110h-18.667zm117.334-15v-70h172v140h-19.334v-42H670.534v42h-19.333zm152.666-21v-19H670.534v38h133.333zm46 21v-70h171.334v140h-18.667v-110H869.2v110h-19.334zm201.334 55v-15h149.333v-24.666H1051.2V37.902h168v30h-148.667v25.334H1219.2v84.666h-168zm198-55v-70h172v140h-172zm152.666 0v-40h-134v80h134zm47.334 0v-70h168v30h-148.667v25.334H1617.2v30h-148.667v54.666H1449.2zm269.333 15v-55H1647.2v-30h161.333V67.891l-35.5.172-35.5.173-.17 54.833-.171 54.833h-18.66z"/></svg>