<?xml version="1.0" encoding="utf-8"?>
<!-- Generator: Adobe Illustrator 21.1.0, SVG Export Plug-In . SVG Version: 6.00 Build 0)  -->
<svg version="1.1" id="Layer_1" xmlns="http://www.w3.org/2000/svg" xmlns:xlink="http://www.w3.org/1999/xlink" x="0px" y="0px"
	 viewBox="0 0 292.3 34.3" style="enable-background:new 0 0 292.3 34.3;" xml:space="preserve">
<style type="text/css">
	.st0{display:none;fill:none;}
	.st1{fill:none;}
	.st2{fill:#0C9BFF;}
	.st3{fill:#FFFFFF;}
</style>
<title>RakutenVIKI</title>
<path class="st0" d="M-7.9-11h308.2c1.9,0,3.4,1.5,3.4,3.4v49.9c0,1.9-1.5,3.4-3.4,3.4H-7.9c-1.9,0-3.4-1.5-3.4-3.4V-7.6
	C-11.3-9.5-9.8-11-7.9-11z"/>
<g>
	<rect y="0.3" class="st1" width="292.3" height="34"/>
	<circle class="st2" cx="17" cy="17.3" r="17"/>
	<path class="st3" d="M14.8,26.5v-5.7h2.5l4.2,5.7h4.3l-5.1-6.8c2.8-2,3.5-5.9,1.5-8.8C21,9.2,19.1,8.2,17,8.2h-5.7v18.3H14.8z
		 M14.8,11.7H17c1.6,0,2.8,1.3,2.8,2.8c0,1.6-1.3,2.8-2.8,2.8h-2.2V11.7z"/>
	<path d="M148.8,25.8c-0.6,1.3-2.1,2-3.5,1.4c-1.1-0.5-1.7-1.6-1.6-2.7V13.9h8.6V8.1h-8.6V2H138v6.1h-4.1v5.8h4.1v10.6
		c-0.1,4.7,3.6,8.5,8.3,8.6c3.7,0.1,7.1-2.3,8.2-5.8L148.8,25.8z"/>
	<path d="M77,8.1v1.1c-1.7-1.1-3.7-1.7-5.7-1.7c-6.3,0-11.5,5.8-11.5,12.8S65,33.2,71.3,33.2c2,0,4-0.6,5.7-1.7v1.1h5.8V8.1H77z
		 M71.3,27.4c-3.1,0-5.7-3.2-5.7-7s2.5-7,5.7-7s5.7,3.1,5.7,6.9S74.5,27.4,71.3,27.4z"/>
	<path d="M126,8.1v14.4c-0.1,2.7-2.4,4.8-5.1,4.7c-2.5-0.1-4.6-2.1-4.7-4.7V8.1h-5.8v14.4c0,5.9,4.8,10.7,10.7,10.7
		c1.7,0,3.4-0.4,4.9-1.2v0.6h5.8V8.1H126z"/>
	<path d="M191,7.5c-1.7,0-3.4,0.4-4.9,1.2V8.1h-5.8v24.5h5.8V18.2c-0.1-2.7,2-5,4.7-5.1c2.7-0.1,5,2,5.1,4.7c0,0.1,0,0.3,0,0.4v14.4
		h5.8V18.2C201.7,12.3,196.9,7.5,191,7.5z"/>
	<path d="M178,20.3c0-7.1-5.1-12.9-11.5-12.9S155,13.2,155,20.3c0,7.6,6.5,12.9,12.3,12.9c4.1,0,7.9-2.1,10.1-5.5l-5.1-2.9
		c-4.3,5.2-10.3,1.7-10.9-2.8h16.4C177.9,21.5,178,20.9,178,20.3z M171.4,16.9h-9.8C162.7,12.1,170.3,11.1,171.4,16.9L171.4,16.9z"
		/>
	<polygon points="97.7,19.6 109.2,8.1 101,8.1 92.1,17 92.1,0 86.3,0 86.3,32.6 92.1,32.6 92.1,22.2 102.5,32.6 110.7,32.6 	"/>
	<path d="M43.2,32.6v-9.5h4.1l7.1,9.5h7.3l-8.6-11.5c4.7-3.4,5.9-10,2.5-14.7C53.7,3.7,50.4,2,47,2h-9.6v30.6H43.2z M43.2,7.8H47
		c2.6,0,4.8,2.1,4.8,4.8s-2.1,4.8-4.8,4.8h-3.8L43.2,7.8z"/>
	<path class="st2" d="M217.4,2l6,20l5.9-20h8.8l-11.3,30.6h-7L208.6,2H217.4z"/>
	<path class="st2" d="M241,32.6V2h8.4v30.6H241z"/>
	<path class="st2" d="M254.2,32.6V2h8.4v11.6L271.9,2h9.5l-11.1,13.7l11.9,16.9h-9.7l-7.6-11.3l-2.3,2.4v8.8L254.2,32.6z"/>
	<path class="st2" d="M283.9,32.6V2h8.4v30.6H283.9z"/>
</g>
</svg>
