<svg height="99" viewBox="0 0 700 99" width="700" xmlns="http://www.w3.org/2000/svg"><g fill="none" fill-rule="evenodd"><path d="m.875 1.76h697.375v95.376h-697.375z" fill="#fff"/><path d="m0 0v98.082h700v-98.082zm87.206 78.466h-13.436l-12.447-39.082-12.53 39.082h-13.68l-15.91-58.85h13.85l9.642 37.75 12.117-37.75h13.353l12.117 37.834 9.478-37.834h13.353zm60.572 0h-35v-58.85h35v11.77h-23.334v11.77h23.334v11.77h-23.334v11.77h23.334zm38.285 0h-22.73v-58.85h21c11.54 0 18.216 6.683 18.216 15.746 0 6.07-3.793 11.032-8.575 12.613 5.275 1.247 10.387 6.14 10.387 13.79 0 9.645-7.253 16.7-18.3 16.7zm56.31 1.248c-16.815 0-30.332-12.226-30.332-30.6 0-18.378 13.848-30.85 30.167-30.85 17.556 0 25.304 11.392 27.2 19.872l-12.28 3.908c-.91-4.074-4.617-10.977-14.92-10.977-7.83 0-16.65 5.655-16.65 18.046 0 11.06 8.078 17.46 16.815 17.46 10.138 0 14.177-6.817 15.33-11.058l12.447 3.574c-1.896 8.15-9.646 20.624-27.778 20.624zm65.295 0c-16.486 0-30.414-12.057-30.414-30.685 0-18.71 13.928-30.767 30.414-30.767 16.4 0 30.33 12.057 30.33 30.766 0 18.627-13.93 30.684-30.33 30.684zm92.888-1.248h-14.158l-24.73-38.75v38.75h-11.668v-58.85h15.214l23.676 35.734v-35.735h11.666v58.85zm50.555-47.08h-23.331v11.77h23.333v11.77h-23.333v23.54h-11.67v-58.85h35v11.77zm10.734 47.826c-4.618 0-8.41-3.99-8.41-8.563 0-4.656 3.792-8.484 8.41-8.484 4.614 0 8.488 3.828 8.488 8.483 0 4.573-3.874 8.562-8.488 8.562zm61.08-.746-4.206-11.77h-22.58l-4.205 11.77h-13.684l22.007-58.85h15.08l21.762 58.85h-14.177zm43.038 1.248c-16.155 0-23.08-10.563-23.903-18.877l11.95-2.91c.495 5.404 4.12 10.144 12.12 10.144 5.107 0 8.24-2.493 8.24-6.152 0-2.993-2.39-5.156-6.266-5.904l-7.994-1.496c-9.89-1.912-15.905-8.565-15.905-17.297 0-11.14 9.726-18.956 20.933-18.956 14.59 0 20.113 8.814 21.347 15.716l-11.705 3.326c-.41-2.743-2.635-7.4-9.726-7.4-4.86 0-7.994 3.076-7.994 6.32 0 2.825 1.732 4.905 5.77 5.652l7.83 1.498c11.127 2.08 16.896 9.312 16.896 17.71 0 9.23-7.664 18.628-21.594 18.628zm44.594-1.248h-11.667v-58.85h11.666v58.85zm54.995 0-4.204-11.77h-22.58l-4.205 11.77h-13.683l22.008-58.85h15.08l21.762 58.85h-14.18z" fill="#010101"/></g></svg>