<svg xmlns="http://www.w3.org/2000/svg" viewBox="0 0 466.46 104.14"><defs><style>.cls-1{fill:#24272a}</style></defs><g id="Layer_2" data-name="Layer 2"><g id="Layer_1-2" data-name="Layer 1"><path d="M50.8 45.23c9.88 0 17.66-.15 27.68-.46 1.72.16 1.58 4.41.49 5l-2.33.4c-3.62.73-5.78 1.44-5.78 2.17 0 1.15.29 2 1.23 4.39 2.85 6.85 7.2 16 10.67 22.89 3.75-8.23 6.23-15.19 8.71-21.78a18.78 18.78 0 0 0 1.42-5.54c0-.71-1.26-1.41-4-2l-2.63-.57c-1-1-1-4.39.62-5 5.17.27 8.89.41 12.82.41 4.54 0 8.61-.16 12-.45 1.41.6 1.73 3.7.49 5l-2.2.42c-5.15 1-6.23 2.43-8.74 7.69C94.16 72.33 87 88 80.46 103.07a5 5 0 0 1-3.63 1 5 5 0 0 1-3.6-1C70 95.42 61.78 78.78 57.08 69.71c-4 7.38-13.38 26.32-17 33.41-.94.85-2 1-3.59 1a4.89 4.89 0 0 1-3.6-1C25.36 87.08 17.67 70.75 10 56c-2.21-4.13-3.78-4.71-6.45-5.41l-2.81-.72c-1.06-1.15-1.06-4.24.5-5 6.41.28 11.42.41 18 .41zm-4.22 5.86a39.26 39.26 0 0 0-7.47-.57c-5 0-8 .6-8 2.15a13.57 13.57 0 0 0 1.42 4.67c2.18 5 8.45 17.78 11.13 22.32 2.17-3.84 7.49-14.08 8.25-16.94a14.82 14.82 0 0 0 .49-4.25c.01-2.28-2.69-6.83-5.82-7.38z" class="cls-1"/><path d="M127.15 68.32c-3.6 0-3.91.29-3.91 2.56 0 10.66 7.53 21 22.08 21 4.36 0 10.34-.83 14.54-7.4a3.45 3.45 0 0 1 4.06 3.28C157.55 99.86 146 104 136.57 104c-21.12 0-32.52-13.46-32.56-29 0-17.92 14.18-31.86 33.73-31.88 16.29 0 25 9.5 25 20.45 0 2.66-.75 4.67-5.63 4.68zm10.33-6.27a13.53 13.53 0 0 0 6.4-1.29c.77-.42 1.09-1.85 1.09-3.28 0-4.68-3-7.79-8.31-7.79-6.55 0-12.19 5.71-12.19 10.23 0 2 2.17 2.16 7.2 2.13zM213.91 45c9.83 0 17.68-.16 27.68-.46 1.7.15 1.55 4.38.43 5l-2.32.4c-3.6.73-5.78 1.43-5.78 2.14 0 1.15.33 2 1.25 4.4 2.84 6.85 7.23 16.06 10.68 22.9 3.74-8.26 6.23-15.22 8.72-21.8a20.62 20.62 0 0 0 1.43-5.5c0-.73-1.29-1.42-3.94-2l-2.65-.57c-.95-1-.95-4.39.61-5 5.16.29 8.91.42 12.84.4 4.52 0 8.58-.13 12-.42 1.42.59 1.73 3.71.49 5l-2.19.45c-5.16 1-6.24 2.4-8.75 7.66-7.17 14.51-14.35 30.2-20.9 45.25-.93.86-2 1-3.61 1s-2.66-.15-3.58-1c-3.27-7.67-11.45-24.3-16.15-33.39-4.07 7.41-13.39 26.34-17 33.44a4.82 4.82 0 0 1-3.58 1c-1.59 0-2.66-.15-3.6-1-7.53-16-15.26-32.39-22.9-47.17-2.21-4.12-3.77-4.68-6.42-5.39l-2.81-.7c-1.11-1.12-1.14-4.28.45-5 6.4.27 11.41.41 18 .4zm-4.23 5.86a38.72 38.72 0 0 0-7.49-.55c-5 0-8 .56-8 2.11a14.38 14.38 0 0 0 1.46 4.68c2.17 5 8.45 17.78 11.11 22.33 2.19-3.84 7.5-14.07 8.24-16.92a15.27 15.27 0 0 0 .48-4.28c0-2.23-2.66-6.82-5.8-7.35zM267.49 74.53c-.17-20.32 17.49-31.59 35.93-31.59s35.07 10.17 35.07 30.21c0 20.79-16.7 30.61-35.92 30.64-18.57.03-34.9-9.64-35.08-29.26zM290 71.38c0 14.9 5.23 25.88 14.27 25.86S316.16 88 316 75.19c-.15-13.8-4.54-25.74-13.44-25.74-6.98.03-12.56 6.46-12.56 21.93z" class="cls-1"/><path d="M342.22 64.07c0-5.7 0-7.41-3-9.12L337 53.7a3.2 3.2 0 0 1 0-4.29c7.21-1.87 18-5.7 22.84-8.54a3.24 3.24 0 0 1 2.8 1.28c-.29 2.86-.61 4.82-.61 6.11 0 1 .32 1.43 1.56 1.71 4.23-2.44 8.73-7.12 15.31-7.14 4.25 0 8.62 3 8.62 8.37 0 6.55-5 9.26-10 9.26a9.15 9.15 0 0 1-6.11-2.55c-3.61-2.71-5-2.85-5.93-2.85-2.21 0-3 3.14-3 8.55v21.91c0 9.93.68 11.09 5.83 11.49l5 .42c1.24.85 1.25 4.13-.15 5-7.54-.27-13.76-.41-21.11-.41-6.43 0-13.3.16-18.47.47-1.38-.84-1.41-4.12-.16-5l3-.28c5.16-.45 5.78-1.71 5.75-11.67z" class="cls-1"/><path d="M390.09 22.61c0-5.72 0-7.24-3.17-8.92l-2.66-1.43a3.21 3.21 0 0 1 0-4.28c6.44-1.44 15.93-4.86 23.93-8a3.44 3.44 0 0 1 2.65 1c-.28 5.82-.44 11.77-.44 20.76l.05 44.62c0 1.59.48 2 2.21 2a12 12 0 0 0 9.07-4l6.53-7c3-3.26 3.76-4.81 3.76-5.68 0-.71-1.57-1.28-3-1.39l-3.89-.58c-1.42-1.26-1.28-4.4.3-5h3.74a257.71 257.71 0 0 0 29.56-2c1.58.69 1.74 3.81.66 5l-5 1c-3 .6-6.28 2-10.49 5A83.7 83.7 0 0 0 433.44 62a2.74 2.74 0 0 0-.94 1.85 5.14 5.14 0 0 0 1.11 2.41c2.81 4.53 16.61 23.86 20.54 27.13 2.19 1.84 5.14 2.55 9.21 3.24l2.33.45c1.24 1 .93 4.4-.6 4.95-4.84-.26-10.63-.41-19.69-.41-9.26 0-14.9.18-19.28.47-1.56-.7-1.85-3.69-.6-5l2.05-.46c1.55-.29 2.48-.57 2.48-1.1s-1.42-2.86-2.66-4.57l-11.14-15.35a4.43 4.43 0 0 0-3.93-2.14c-1.07 0-1.87.73-1.85 3.44v8.23c0 10 .62 11.11 6.14 11.64l2.48.31c1.26.84 1.28 4.14-.17 5-5-.27-11.55-.41-18.75-.41s-13.61.17-19.08.45c-1.42-.83-1.42-4.11-.19-5l3-.29c5.63-.56 6.27-1.72 6.26-11.69z" class="cls-1"/></g></g></svg>
